<svg width="24" height="24" viewBox="0 0 24 24" fill="none" xmlns="http://www.w3.org/2000/svg">
<g id="Add_square">
<path id="Rectangle 1" d="M3 11C3 7.22876 3 5.34315 4.17157 4.17157C5.34315 3 7.22876 3 11 3H13C16.7712 3 18.6569 3 19.8284 4.17157C21 5.34315 21 7.22876 21 11V13C21 16.7712 21 18.6569 19.8284 19.8284C18.6569 21 16.7712 21 13 21H11C7.22876 21 5.34315 21 4.17157 19.8284C3 18.6569 3 16.7712 3 13V11Z" stroke="#2454FF" stroke-width="2"/>
<path id="Vector 52" d="M12 8L12 16" stroke="#2454FF" stroke-width="2" stroke-linecap="square" stroke-linejoin="round"/>
<path id="Vector 53" d="M16 12L8 12" stroke="#2454FF" stroke-width="2" stroke-linecap="square" stroke-linejoin="round"/>
</g>
</svg>
