<svg width="97" height="32" viewBox="0 0 97 32" fill="none" xmlns="http://www.w3.org/2000/svg">
<path d="M0.0319579 25.5224C0.182299 20.1065 2.01274 14.8714 5.26984 10.5417C5.88458 9.72332 6.54638 8.94134 7.25192 8.19976C7.40014 8.04401 7.55087 7.88951 7.70411 7.73627C7.86992 7.57046 8.03573 7.40843 8.2053 7.24639C13.0842 2.62069 19.5509 0.0414437 26.2741 0.0396118H26.3268V7.22378V7.27277C21.2645 7.27477 16.4102 9.28743 12.8317 12.8681C9.25317 16.4488 7.2434 21.3042 7.2444 26.3665H0.0244141L0.0319579 25.5224Z" fill="#2454FF"/>
<path d="M12.2031 17.4602C12.8693 16.4066 13.6496 15.4298 14.53 14.5474C15.3719 13.7056 16.301 12.9559 17.3016 12.3109L26.3021 21.3095L26.3529 21.3585V26.3702H21.1094L12.2031 17.4602Z" fill="#2454FF"/>
<path d="M0 0.0357974V0H4.97598L7.252 2.27979L8.69525 3.72115C8.20035 4.09797 7.71926 4.49615 7.252 4.91568C6.83372 5.29251 6.42613 5.67561 6.0292 6.065C5.63228 6.45439 5.25546 6.85005 4.89873 7.252C4.43774 7.76825 3.99812 8.29958 3.57984 8.84597L1.98776 7.25577L0.0169737 5.28686L0 0.0357974Z" fill="#2454FF"/>
<path d="M35.4299 32C34.6925 32 34.1141 31.8003 33.6946 31.4009C33.2751 31.0014 33.064 30.4016 33.0615 29.6015V12.7084C33.0615 11.9309 33.2669 11.3362 33.6776 10.9242C34.0884 10.5122 34.6724 10.3068 35.4299 10.3081C36.1672 10.3081 36.7412 10.5134 37.152 10.9242C37.5627 11.3349 37.7674 11.9297 37.7662 12.7084V14.8545L37.4195 13.6241C37.7324 12.5966 38.4124 11.7201 39.33 11.1616C40.3175 10.5425 41.4638 10.2244 42.6291 10.2459C43.8879 10.2215 45.1271 10.5611 46.1976 11.2237C47.2464 11.8975 48.075 12.8636 48.5811 14.0028C49.1388 15.2036 49.4176 16.635 49.4176 18.2968C49.4176 19.9586 49.1337 21.403 48.566 22.6302C48.0653 23.7723 47.2422 24.7434 46.1976 25.4244C45.1262 26.0835 43.8867 26.4179 42.6291 26.3872C41.4831 26.4077 40.3551 26.1012 39.3771 25.5035C38.4888 24.9857 37.8161 24.1659 37.4817 23.1936H37.8302V29.5996C37.8302 30.3985 37.6249 30.9983 37.2141 31.399C36.8034 31.7997 36.2086 32 35.4299 32ZM41.2085 22.8432C41.8378 22.8556 42.4573 22.6861 42.9927 22.3552C43.539 21.9888 43.9582 21.4622 44.1929 20.8479C44.5022 20.0314 44.6469 19.1618 44.6187 18.2892C44.6187 16.7543 44.3047 15.6238 43.6767 14.8978C43.3744 14.5428 42.996 14.2605 42.5698 14.0716C42.1435 13.8828 41.6801 13.7923 41.2141 13.8069C40.5866 13.7944 39.9682 13.9589 39.4299 14.2817C38.8821 14.6355 38.4616 15.155 38.2297 15.7645C37.9231 16.5705 37.7784 17.4291 37.8039 18.2911C37.8039 19.8499 38.1179 20.9973 38.7459 21.7334C39.0456 22.0928 39.4229 22.3794 39.8495 22.5716C40.2761 22.7638 40.7408 22.8567 41.2085 22.8432Z" fill="#58595B"/>
<path d="M60.3727 26.3797C58.5414 26.3797 56.9681 26.0537 55.653 25.4018C54.3856 24.7948 53.3295 23.8215 52.6214 22.6077C51.9155 21.3968 51.5632 19.9598 51.5645 18.2968C51.5645 16.6978 51.9061 15.3035 52.5894 14.114C53.2615 12.936 54.2375 11.9599 55.4156 11.2878C56.5042 10.6979 57.7069 10.3488 58.9422 10.2643C60.1775 10.1797 61.4165 10.3618 62.5753 10.798C63.4688 11.1573 64.2725 11.7083 64.9298 12.4121C65.5871 13.116 66.0819 13.9555 66.3793 14.8714C66.728 15.9249 66.8986 17.029 66.8843 18.1385C66.8968 18.3077 66.8692 18.4774 66.8037 18.6339C66.7382 18.7904 66.6367 18.9293 66.5074 19.0391C66.1834 19.26 65.7946 19.3655 65.4033 19.3387H55.5192V16.8762H63.4457L62.9408 17.3189C62.9641 16.5798 62.8359 15.8437 62.564 15.1559C62.3401 14.6173 61.9602 14.158 61.4731 13.8371C60.946 13.5171 60.337 13.358 59.7208 13.3792C59.0192 13.3581 58.3269 13.5449 57.7312 13.9162C57.1636 14.2988 56.7239 14.8429 56.4688 15.4781C56.1556 16.2558 56.0049 17.0894 56.0261 17.9275V18.18C56.0261 19.7802 56.3947 20.9591 57.1321 21.7165C57.8694 22.4739 58.9848 22.8507 60.4782 22.847C61.057 22.8396 61.6337 22.7765 62.2003 22.6585C62.8379 22.5337 63.4579 22.3319 64.0468 22.0575C64.5492 21.8276 64.9807 21.7542 65.3412 21.8371C65.6805 21.9101 65.986 22.0936 66.2098 22.359C66.4306 22.6204 66.5585 22.9478 66.5734 23.2897C66.5921 23.6571 66.51 24.0226 66.336 24.3467C66.131 24.7204 65.8177 25.0232 65.4373 25.2153C64.6704 25.6478 63.8379 25.952 62.9728 26.1159C62.1169 26.2887 61.246 26.3771 60.3727 26.3797Z" fill="#58595B"/>
<path d="M72.1188 26.3175C71.3199 26.3175 70.7095 26.1121 70.2874 25.7014C69.8654 25.2906 69.655 24.6959 69.6563 23.9171V12.7084C69.6563 11.9309 69.8616 11.3362 70.2724 10.9242C70.6831 10.5122 71.2672 10.3068 72.0246 10.3081C72.7619 10.3081 73.3272 10.5134 73.7203 10.9242C74.1135 11.3349 74.3132 11.9297 74.3195 12.7084V14.3495H74.0048C74.2372 13.0934 74.7899 12.1149 75.6628 11.414C76.5358 10.7131 77.6663 10.3238 79.0543 10.2459C79.2689 10.2129 79.4883 10.2314 79.6943 10.2999C79.9004 10.3683 80.0872 10.4848 80.2394 10.6397C80.522 10.9449 80.6859 11.4555 80.7274 12.1715C80.7732 12.7089 80.6218 13.2447 80.3016 13.6788C79.9963 14.0556 79.4857 14.2911 78.7698 14.374L78.0444 14.4381C76.8436 14.5436 75.9543 14.8909 75.3765 15.48C74.7987 16.0691 74.5154 16.9239 74.5267 18.0443V23.9171C74.5267 24.6971 74.3264 25.2919 73.9257 25.7014C73.525 26.1109 72.9227 26.3162 72.1188 26.3175Z" fill="#58595B"/>
<path d="M87.97 26.3797C86.9029 26.404 85.8445 26.1829 84.8763 25.7334C84.0361 25.3397 83.316 24.729 82.7906 23.9642C82.2828 23.2032 82.0198 22.3052 82.0369 21.3905C82.0369 20.26 82.3321 19.3657 82.9225 18.7075C83.5128 18.0493 84.4649 17.5758 85.7788 17.2869C87.0939 16.993 88.8461 16.8454 91.0355 16.8441H92.7105V19.3067H91.0675C90.1962 19.2904 89.325 19.349 88.4637 19.4819C87.8205 19.5962 87.352 19.7959 87.0581 20.081C86.9087 20.2276 86.792 20.4041 86.7157 20.5989C86.6394 20.7937 86.6052 21.0025 86.6153 21.2115C86.6096 21.4787 86.6616 21.744 86.768 21.9892C86.8743 22.2344 87.0324 22.4538 87.2315 22.6322C87.6422 23.009 88.2263 23.1974 88.9837 23.1974C89.5578 23.2061 90.1242 23.0645 90.6266 22.7867C91.1005 22.5213 91.4917 22.13 91.7571 21.6562C92.0427 21.1234 92.1843 20.5252 92.1679 19.9209V16.3071C92.1679 15.3814 91.9575 14.7238 91.5367 14.3345C91.1159 13.9451 90.3892 13.7504 89.3567 13.7504C88.7474 13.7565 88.1399 13.8195 87.5423 13.9388C86.7886 14.0941 86.053 14.3271 85.3473 14.634C84.9578 14.8158 84.5181 14.8603 84.1 14.7603C83.7639 14.6634 83.4767 14.4434 83.2955 14.1442C83.1048 13.8367 83.0061 13.481 83.011 13.1192C83.0118 12.7386 83.1209 12.3661 83.3257 12.0453C83.5838 11.6755 83.9641 11.4086 84.3996 11.2916C85.2928 10.9344 86.2184 10.6643 87.1636 10.4852C87.9496 10.3369 88.7472 10.258 89.547 10.2497C91.1674 10.2497 92.5089 10.4865 93.5715 10.96C94.5925 11.3926 95.4303 12.1683 95.9399 13.1531C96.4561 14.1442 96.7143 15.3971 96.7143 16.9119V23.9209C96.7143 24.7009 96.5196 25.2957 96.1302 25.7052C95.7402 26.1159 95.1994 26.3213 94.5042 26.3213C93.8089 26.3213 93.2362 26.1159 92.8461 25.7052C92.4561 25.2944 92.2621 24.7009 92.2621 23.9209V22.7527L92.4825 22.9732C92.3725 23.6324 92.0955 24.2525 91.678 24.7744C91.2612 25.2835 90.7316 25.6886 90.1311 25.9576C89.4496 26.2526 88.7124 26.3965 87.97 26.3797Z" fill="#58595B"/>
</svg>
