<svg width="120" height="97" viewBox="0 0 120 97" fill="none" xmlns="http://www.w3.org/2000/svg">
<path d="M7.50013 29.0813C7.74689 29.0827 7.99151 29.0354 8.21995 28.9421C8.4484 28.8488 8.65618 28.7113 8.83138 28.5375L28.5376 8.83126C28.7125 8.65644 28.8511 8.44889 28.9457 8.22048C29.0404 7.99206 29.0891 7.74724 29.0891 7.50001C29.0891 7.25277 29.0404 7.00796 28.9457 6.77954C28.8511 6.55112 28.7125 6.34358 28.5376 6.16876C28.3628 5.99394 28.1553 5.85526 27.9268 5.76065C27.6984 5.66603 27.4536 5.61734 27.2064 5.61734C26.7071 5.61734 26.2282 5.81569 25.8751 6.16876L6.16888 25.875C5.99314 26.0493 5.85365 26.2567 5.75846 26.4852C5.66327 26.7137 5.61426 26.9587 5.61426 27.2063C5.61426 27.4538 5.66327 27.6989 5.75846 27.9273C5.85365 28.1558 5.99314 28.3632 6.16888 28.5375C6.34408 28.7113 6.55186 28.8488 6.7803 28.9421C7.00875 29.0354 7.25337 29.0827 7.50013 29.0813ZM7.50013 50.4188C7.74689 50.4202 7.99151 50.3729 8.21995 50.2796C8.4484 50.1863 8.65618 50.0488 8.83138 49.875L49.8751 8.83126C50.05 8.65644 50.1886 8.44889 50.2832 8.22048C50.3779 7.99206 50.4266 7.74724 50.4266 7.50001C50.4266 7.25277 50.3779 7.00796 50.2832 6.77954C50.1886 6.55112 50.05 6.34358 49.8751 6.16876C49.7003 5.99394 49.4928 5.85526 49.2643 5.76065C49.0359 5.66603 48.7911 5.61734 48.5439 5.61734C48.2966 5.61734 48.0518 5.66603 47.8234 5.76065C47.595 5.85526 47.3875 5.99394 47.2126 6.16876L6.16888 47.2125C5.99314 47.3868 5.85365 47.5942 5.75846 47.8227C5.66327 48.0512 5.61426 48.2962 5.61426 48.5438C5.61426 48.7913 5.66327 49.0364 5.75846 49.2648C5.85365 49.4933 5.99314 49.7007 6.16888 49.875C6.34408 50.0488 6.55186 50.1863 6.7803 50.2796C7.00875 50.3729 7.25337 50.4202 7.50013 50.4188ZM7.50013 71.7188C7.98799 71.7419 8.46562 71.5737 8.83138 71.25L71.2501 8.83126C71.6032 8.47819 71.8015 7.99932 71.8015 7.50001C71.8015 7.00069 71.6032 6.52183 71.2501 6.16876C70.8971 5.81569 70.4182 5.61734 69.9189 5.61734C69.4196 5.61734 68.9407 5.81569 68.5876 6.16876L6.16888 68.5125C5.99314 68.6868 5.85365 68.8942 5.75846 69.1227C5.66327 69.3512 5.61426 69.5962 5.61426 69.8438C5.61426 70.0913 5.66327 70.3364 5.75846 70.5648C5.85365 70.7933 5.99314 71.0007 6.16888 71.175C6.34408 71.3488 6.55186 71.4863 6.7803 71.5796C7.00875 71.6729 7.25337 71.7202 7.50013 71.7188ZM7.50013 93.0563C7.74689 93.0577 7.99151 93.0104 8.21995 92.9171C8.4484 92.8238 8.65618 92.6863 8.83138 92.5125L92.5126 8.83126C92.6875 8.65644 92.8261 8.44889 92.9207 8.22048C93.0154 7.99206 93.064 7.74724 93.064 7.50001C93.064 7.25277 93.0154 7.00796 92.9207 6.77954C92.8261 6.55112 92.6875 6.34358 92.5126 6.16876C92.3378 5.99394 92.1303 5.85526 91.9018 5.76065C91.6734 5.66603 91.4286 5.61734 91.1814 5.61734C90.9341 5.61734 90.6893 5.66603 90.4609 5.76065C90.2325 5.85526 90.0249 5.99394 89.8501 6.16876L6.16888 89.85C5.99314 90.0243 5.85365 90.2317 5.75846 90.4602C5.66327 90.6887 5.61426 90.9337 5.61426 91.1813C5.61426 91.4288 5.66327 91.6739 5.75846 91.9023C5.85365 92.1308 5.99314 92.3382 6.16888 92.5125C6.34408 92.6863 6.55186 92.8238 6.7803 92.9171C7.00875 93.0104 7.25337 93.0577 7.50013 93.0563ZM113.831 6.16876C113.657 5.99302 113.45 5.85353 113.221 5.75834C112.993 5.66314 112.748 5.61414 112.5 5.61414C112.253 5.61414 112.008 5.66314 111.779 5.75834C111.551 5.85353 111.343 5.99302 111.169 6.16876L6.16888 111.169C5.99314 111.343 5.85365 111.55 5.75846 111.779C5.66327 112.007 5.61426 112.252 5.61426 112.5C5.61426 112.748 5.66327 112.993 5.75846 113.221C5.85365 113.45 5.99314 113.657 6.16888 113.831C6.34319 114.007 6.55056 114.146 6.77905 114.242C7.00753 114.337 7.25261 114.386 7.50013 114.386C7.74765 114.386 7.99273 114.337 8.22121 114.242C8.4497 114.146 8.65707 114.007 8.83138 113.831L113.831 8.83126C114.007 8.65695 114.147 8.44958 114.242 8.22109C114.337 7.9926 114.386 7.74753 114.386 7.50001C114.386 7.25249 114.337 7.00741 114.242 6.77893C114.147 6.55044 114.007 6.34306 113.831 6.16876ZM111.169 27.4875L27.4876 111.169C27.3119 111.343 27.1724 111.55 27.0772 111.779C26.982 112.007 26.933 112.252 26.933 112.5C26.933 112.748 26.982 112.993 27.0772 113.221C27.1724 113.45 27.3119 113.657 27.4876 113.831C27.6619 114.007 27.8693 114.146 28.0978 114.242C28.3263 114.337 28.5714 114.386 28.8189 114.386C29.0664 114.386 29.3115 114.337 29.54 114.242C29.7684 114.146 29.9758 114.007 30.1501 113.831L113.831 30.15C114.184 29.7969 114.383 29.3181 114.383 28.8188C114.383 28.3194 114.184 27.8406 113.831 27.4875C113.478 27.1344 112.999 26.9361 112.5 26.9361C112.001 26.9361 111.522 27.1344 111.169 27.4875ZM111.169 48.75L48.7501 111.169C48.5744 111.343 48.4349 111.55 48.3397 111.779C48.2445 112.007 48.1955 112.252 48.1955 112.5C48.1955 112.748 48.2445 112.993 48.3397 113.221C48.4349 113.45 48.5744 113.657 48.7501 113.831C48.9244 114.007 49.1318 114.146 49.3603 114.242C49.5888 114.337 49.8339 114.386 50.0814 114.386C50.3289 114.386 50.574 114.337 50.8025 114.242C51.0309 114.146 51.2383 114.007 51.4126 113.831L113.831 51.4875C114.194 51.1344 114.402 50.6516 114.409 50.1453C114.416 49.6389 114.222 49.1505 113.869 48.7875C113.516 48.4245 113.033 48.2166 112.527 48.2096C112.02 48.2025 111.532 48.3969 111.169 48.75ZM111.169 70.125L70.1251 111.169C69.9494 111.343 69.8099 111.55 69.7147 111.779C69.6195 112.007 69.5705 112.252 69.5705 112.5C69.5705 112.748 69.6195 112.993 69.7147 113.221C69.8099 113.45 69.9494 113.657 70.1251 113.831C70.2994 114.007 70.5068 114.146 70.7353 114.242C70.9638 114.337 71.2089 114.386 71.4564 114.386C71.7039 114.386 71.949 114.337 72.1775 114.242C72.4059 114.146 72.6133 114.007 72.7876 113.831L113.831 72.7875C114.184 72.4344 114.383 71.9556 114.383 71.4563C114.383 70.9569 114.184 70.4781 113.831 70.125C113.478 69.7719 112.999 69.5736 112.5 69.5736C112.001 69.5736 111.522 69.7719 111.169 70.125ZM111.169 91.4625L91.4626 111.169C91.2869 111.343 91.1474 111.55 91.0522 111.779C90.957 112.007 90.908 112.252 90.908 112.5C90.908 112.748 90.957 112.993 91.0522 113.221C91.1474 113.45 91.2869 113.657 91.4626 113.831C91.6369 114.007 91.8443 114.146 92.0728 114.242C92.3013 114.337 92.5464 114.386 92.7939 114.386C93.0414 114.386 93.2865 114.337 93.515 114.242C93.7434 114.146 93.9508 114.007 94.1251 113.831L113.831 94.125C114.184 93.7719 114.383 93.2931 114.383 92.7938C114.383 92.2945 114.184 91.8156 113.831 91.4625C113.478 91.1094 112.999 90.9111 112.5 90.9111C112.001 90.9111 111.522 91.1094 111.169 91.4625Z" fill="#4666FF"/>
</svg>
