<svg width="101" height="102" viewBox="0 0 101 102" fill="none" xmlns="http://www.w3.org/2000/svg">
<g clip-path="url(#clip0_352_15365)">
<path d="M50.1777 50.7406V50.9229H75.877L87.6273 39.1821L100.357 26.4814C95.9016 23.0687 91.6511 19.3967 87.6273 15.4845L86.5425 14.4141L85.6162 13.5118C81.4237 9.26199 77.507 4.74885 73.8898 -0.000198364L60.3921 13.4829L50.1777 23.6541V50.7406Z" fill="#6D8DFF"/>
<path d="M50.1772 50.7405V50.9229H24.4732L12.7277 39.1821L-0.00195312 26.4813C4.45336 23.0687 8.70392 19.3966 12.7277 15.4844L13.8123 14.414L14.7388 13.5117C18.9313 9.26193 22.848 4.7488 26.4652 -0.00025177L39.9629 13.4829L50.1772 23.654V50.7405Z" fill="#6D8DFF"/>
<path d="M50.1777 51.1102V50.923H75.877L87.6273 62.6685L100.357 75.3693C95.9016 78.782 91.6511 82.454 87.6273 86.3662L86.5425 87.4366L85.6162 88.3389C81.4237 92.5887 77.507 97.1019 73.8898 101.851L60.3921 88.3678L50.1777 78.1966V51.1102Z" fill="#6D8DFF"/>
<path d="M50.1772 51.1102V50.923H24.4732L12.7277 62.6685L-0.00195312 75.3693C4.45336 78.782 8.70392 82.454 12.7277 86.3662L13.8123 87.4366L14.7388 88.3389C18.9313 92.5887 22.848 97.1019 26.4652 101.851L39.9629 88.3678L50.1772 78.1966V51.1102Z" fill="#6D8DFF"/>
</g>
<defs>
<clipPath id="clip0_352_15365">
<rect width="100.358" height="101.851" fill="white"/>
</clipPath>
</defs>
</svg>
