<svg width="48" height="48" viewBox="0 0 48 48" fill="none" xmlns="http://www.w3.org/2000/svg">
<g clip-path="url(#clip0_632_16856)">
<path d="M0.0751953 46.4753C0.349847 36.6138 3.68369 27.0815 9.6152 19.1981C10.7347 17.7091 11.9383 16.2852 13.2202 14.9334L14.0452 14.0885C14.3452 13.7886 14.6502 13.4937 14.9602 13.1987C16.2168 12.0066 17.537 10.8834 18.9152 9.83409C27.231 3.48952 37.405 0.0598639 47.8652 0.0750932H47.9602V13.1587V13.2488C40.9703 13.2388 34.1416 15.3478 28.3752 19.2979C26.5819 20.5154 24.9077 21.8997 23.3752 23.4325C21.7722 25.0353 20.3288 26.79 19.0652 28.672C15.2248 34.3911 13.1792 41.1265 13.1902 48.0152H0.0751953V46.4753Z" fill="white"/>
<path d="M22.2246 31.7917C23.4365 29.8716 24.8586 28.0925 26.4646 26.4873C27.9966 24.9551 29.6879 23.5908 31.5096 22.4177L47.8996 38.781L47.9896 38.8711V48H38.4446L22.2246 31.7917Z" fill="white"/>
<path d="M0 0.0651177V0.000183105H9.07501L13.215 4.13476L15.845 6.75949C14.945 7.45942 14.0684 8.18594 13.215 8.93919C12.455 9.61412 11.715 10.3089 10.99 11.0288C10.265 11.7487 9.6 12.4487 8.935 13.1936C8.09 14.1285 7.28501 15.0986 6.51501 16.0935L3.61502 13.1988L0.0250244 9.61417L0 0.0651177Z" fill="white"/>
</g>
<defs>
<clipPath id="clip0_632_16856">
<rect width="48" height="48" fill="white"/>
</clipPath>
</defs>
</svg>
