<svg width="100" height="160" viewBox="0 0 100 160" fill="none" xmlns="http://www.w3.org/2000/svg">
<path d="M-50.0002 38.775C-49.6711 38.7769 -49.345 38.7138 -49.0404 38.5894C-48.7358 38.465 -48.4588 38.2817 -48.2252 38.05L-21.9502 11.775C-21.7171 11.5419 -21.5322 11.2652 -21.406 10.9606C-21.2799 10.6561 -21.2149 10.3296 -21.2149 10C-21.2149 9.67035 -21.2799 9.34393 -21.406 9.03938C-21.5322 8.73482 -21.7171 8.4581 -21.9502 8.225C-22.1832 7.9919 -22.46 7.807 -22.7645 7.68085C-23.0691 7.5547 -23.3955 7.48977 -23.7252 7.48977C-24.3909 7.48977 -25.0294 7.75424 -25.5002 8.225L-51.7752 34.5C-52.0095 34.7324 -52.1955 35.0089 -52.3224 35.3136C-52.4493 35.6182 -52.5146 35.945 -52.5146 36.275C-52.5146 36.605 -52.4493 36.9318 -52.3224 37.2364C-52.1955 37.5411 -52.0095 37.8176 -51.7752 38.05C-51.5416 38.2817 -51.2645 38.465 -50.9599 38.5894C-50.6553 38.7138 -50.3292 38.7769 -50.0002 38.775ZM-50.0002 67.225C-49.6711 67.2269 -49.345 67.1638 -49.0404 67.0394C-48.7358 66.915 -48.4588 66.7317 -48.2252 66.5L6.49985 11.775C6.73294 11.5419 6.91785 11.2652 7.04399 10.9606C7.17015 10.6561 7.23508 10.3296 7.23508 10C7.23508 9.67035 7.17015 9.34393 7.04399 9.03938C6.91785 8.73482 6.73294 8.4581 6.49985 8.225C6.26675 7.9919 5.99003 7.807 5.68547 7.68085C5.38092 7.5547 5.05449 7.48977 4.72485 7.48977C4.3952 7.48977 4.06878 7.5547 3.76423 7.68085C3.45967 7.807 3.18295 7.9919 2.94985 8.225L-51.7752 62.95C-52.0095 63.1824 -52.1955 63.4589 -52.3224 63.7636C-52.4493 64.0682 -52.5146 64.395 -52.5146 64.725C-52.5146 65.055 -52.4493 65.3818 -52.3224 65.6864C-52.1955 65.9911 -52.0095 66.2676 -51.7752 66.5C-51.5416 66.7317 -51.2645 66.915 -50.9599 67.0394C-50.6553 67.1638 -50.3292 67.2269 -50.0002 67.225ZM-50.0002 95.625C-49.3497 95.6558 -48.7128 95.4316 -48.2252 95L34.9998 11.775C35.4706 11.3042 35.7351 10.6658 35.7351 10C35.7351 9.33425 35.4706 8.69576 34.9998 8.225C34.5291 7.75424 33.8906 7.48977 33.2249 7.48977C32.5591 7.48977 31.9206 7.75424 31.4499 8.225L-51.7752 91.35C-52.0095 91.5824 -52.1955 91.8589 -52.3224 92.1636C-52.4493 92.4682 -52.5146 92.795 -52.5146 93.125C-52.5146 93.455 -52.4493 93.7818 -52.3224 94.0864C-52.1955 94.3911 -52.0095 94.6676 -51.7752 94.9C-51.5416 95.1317 -51.2645 95.315 -50.9599 95.4394C-50.6553 95.5638 -50.3292 95.6269 -50.0002 95.625ZM-50.0002 124.075C-49.6711 124.077 -49.345 124.014 -49.0404 123.889C-48.7358 123.765 -48.4588 123.582 -48.2252 123.35L63.3498 11.775C63.5829 11.5419 63.7678 11.2652 63.894 10.9606C64.0201 10.6561 64.0851 10.3296 64.0851 10C64.0851 9.67035 64.0201 9.34393 63.894 9.03938C63.7678 8.73482 63.5829 8.4581 63.3498 8.225C63.1168 7.9919 62.84 7.807 62.5355 7.68085C62.2309 7.5547 61.9045 7.48977 61.5749 7.48977C61.2452 7.48977 60.9188 7.5547 60.6142 7.68085C60.3097 7.807 60.0329 7.9919 59.7998 8.225L-51.7752 119.8C-52.0095 120.032 -52.1955 120.309 -52.3224 120.614C-52.4493 120.918 -52.5146 121.245 -52.5146 121.575C-52.5146 121.905 -52.4493 122.232 -52.3224 122.536C-52.1955 122.841 -52.0095 123.118 -51.7752 123.35C-51.5416 123.582 -51.2645 123.765 -50.9599 123.889C-50.6553 124.014 -50.3292 124.077 -50.0002 124.075ZM91.7748 8.225C91.5424 7.99068 91.2659 7.80469 90.9613 7.67777C90.6566 7.55085 90.3299 7.4855 89.9998 7.4855C89.6698 7.4855 89.3431 7.55085 89.0384 7.67777C88.7338 7.80469 88.4573 7.99068 88.2249 8.225L-51.7752 148.225C-52.0095 148.457 -52.1955 148.734 -52.3224 149.039C-52.4493 149.343 -52.5146 149.67 -52.5146 150C-52.5146 150.33 -52.4493 150.657 -52.3224 150.961C-52.1955 151.266 -52.0095 151.543 -51.7752 151.775C-51.5427 152.009 -51.2662 152.195 -50.9616 152.322C-50.6569 152.449 -50.3302 152.514 -50.0002 152.514C-49.6701 152.514 -49.3434 152.449 -49.0387 152.322C-48.7341 152.195 -48.4576 152.009 -48.2252 151.775L91.7748 11.775C92.0092 11.5426 92.1951 11.2661 92.3221 10.9614C92.449 10.6568 92.5143 10.33 92.5143 10C92.5143 9.66997 92.449 9.34321 92.3221 9.03856C92.1951 8.73391 92.0092 8.45741 91.7748 8.225ZM88.2249 36.65L-23.3502 148.225C-23.5845 148.457 -23.7705 148.734 -23.8974 149.039C-24.0243 149.343 -24.0896 149.67 -24.0896 150C-24.0896 150.33 -24.0243 150.657 -23.8974 150.961C-23.7705 151.266 -23.5845 151.543 -23.3502 151.775C-23.1177 152.009 -22.8412 152.195 -22.5366 152.322C-22.2319 152.449 -21.9052 152.514 -21.5752 152.514C-21.2451 152.514 -20.9184 152.449 -20.6137 152.322C-20.3091 152.195 -20.0326 152.009 -19.8002 151.775L91.7748 40.2C92.2456 39.7292 92.5101 39.0908 92.5101 38.425C92.5101 37.7592 92.2456 37.1208 91.7748 36.65C91.3041 36.1792 90.6656 35.9148 89.9998 35.9148C89.3341 35.9148 88.6956 36.1792 88.2249 36.65ZM88.2249 65L4.99985 148.225C4.76553 148.457 4.57954 148.734 4.45262 149.039C4.3257 149.343 4.26035 149.67 4.26035 150C4.26035 150.33 4.3257 150.657 4.45262 150.961C4.57954 151.266 4.76553 151.543 4.99985 151.775C5.23225 152.009 5.50876 152.195 5.81341 152.322C6.11806 152.449 6.44482 152.514 6.77485 152.514C7.10487 152.514 7.43164 152.449 7.73629 152.322C8.04094 152.195 8.31744 152.009 8.54985 151.775L91.7748 68.65C92.2589 68.1792 92.5361 67.5355 92.5454 66.8604C92.5548 66.1852 92.2956 65.534 91.8248 65.05C91.3541 64.566 90.7103 64.2888 90.0352 64.2794C89.3601 64.27 88.7089 64.5292 88.2249 65ZM88.2249 93.5L33.4998 148.225C33.2655 148.457 33.0795 148.734 32.9526 149.039C32.8257 149.343 32.7604 149.67 32.7604 150C32.7604 150.33 32.8257 150.657 32.9526 150.961C33.0795 151.266 33.2655 151.543 33.4998 151.775C33.7323 152.009 34.0088 152.195 34.3134 152.322C34.618 152.449 34.9448 152.514 35.2748 152.514C35.6049 152.514 35.9316 152.449 36.2363 152.322C36.5409 152.195 36.8174 152.009 37.0499 151.775L91.7748 97.05C92.2456 96.5792 92.5101 95.9408 92.5101 95.275C92.5101 94.6092 92.2456 93.9708 91.7748 93.5C91.3041 93.0292 90.6656 92.7648 89.9998 92.7648C89.3341 92.7648 88.6956 93.0292 88.2249 93.5ZM88.2249 121.95L61.9498 148.225C61.7155 148.457 61.5295 148.734 61.4026 149.039C61.2757 149.343 61.2104 149.67 61.2104 150C61.2104 150.33 61.2757 150.657 61.4026 150.961C61.5295 151.266 61.7155 151.543 61.9498 151.775C62.1823 152.009 62.4588 152.195 62.7634 152.322C63.0681 152.449 63.3948 152.514 63.7249 152.514C64.0549 152.514 64.3816 152.449 64.6863 152.322C64.9909 152.195 65.2674 152.009 65.4998 151.775L91.7748 125.5C92.2456 125.029 92.5101 124.391 92.5101 123.725C92.5101 123.059 92.2456 122.421 91.7748 121.95C91.3041 121.479 90.6656 121.215 89.9998 121.215C89.3341 121.215 88.6956 121.479 88.2249 121.95Z" fill="white"/>
</svg>
