<svg width="167" height="96" viewBox="0 0 167 96" fill="none" xmlns="http://www.w3.org/2000/svg">
<g clip-path="url(#clip0_354_6097)">
<path d="M48.2357 200C48.5917 200 48.9477 199.863 49.2207 199.592L74.4018 174.414C74.6623 174.153 74.8086 173.799 74.8086 173.43C74.8086 173.062 74.6623 172.708 74.4018 172.447L51.2066 149.253L75.4175 125.041C75.9567 124.503 75.9567 123.618 75.4175 123.075L52.3137 99.9779L76.6413 75.6503C76.9017 75.3892 77.048 75.0356 77.048 74.6668C77.048 74.2981 76.9017 73.9444 76.6413 73.6833L53.4491 50.4886L77.66 26.2782C77.9202 26.017 78.0663 25.6634 78.0663 25.2947C78.0663 24.9261 77.9202 24.5724 77.66 24.3112L53.7554 0.407597C53.6263 0.278366 53.4731 0.175845 53.3044 0.105896C53.1356 0.0359478 52.9548 -5.6072e-05 52.7722 -5.6072e-05C52.5895 -5.6072e-05 52.4087 0.0359478 52.24 0.105896C52.0712 0.175845 51.918 0.278366 51.7889 0.407597C51.5285 0.668572 51.3823 1.02218 51.3823 1.39084C51.3823 1.7595 51.5285 2.11311 51.7889 2.37408L74.7091 25.2932L50.512 49.4888C50.2521 49.75 50.1062 50.1035 50.1062 50.472C50.1062 50.8405 50.2521 51.194 50.512 51.4553C50.5517 51.495 50.5989 51.5084 50.6396 51.5397C50.6873 51.6062 50.7156 51.6812 50.7742 51.7392L73.6938 74.6618L49.4978 98.8574C49.1522 99.2024 49.0519 99.6781 49.1428 100.121C49.1377 100.308 49.1706 100.494 49.2395 100.669C49.3085 100.843 49.412 101.001 49.5439 101.134L72.4641 124.062L48.267 148.251C47.7284 148.795 47.7284 149.681 48.267 150.219C48.3067 150.262 48.3514 150.275 48.3931 150.3C48.4398 150.365 48.4651 150.441 48.5287 150.501L71.4483 173.418L47.2552 197.61C46.7131 198.154 46.7131 199.042 47.2552 199.577C47.5198 199.868 47.8798 200 48.2357 200ZM85.7801 200C85.9629 200 86.1439 199.964 86.3128 199.894C86.4816 199.824 86.635 199.721 86.7641 199.592L111.944 174.414C112.202 174.152 112.347 173.798 112.347 173.43C112.347 173.062 112.202 172.709 111.944 172.447L88.753 149.253L112.966 125.041C113.501 124.503 113.501 123.618 112.966 123.075L89.8601 99.9779L114.19 75.6503C114.45 75.3887 114.595 75.0352 114.595 74.6668C114.595 74.2984 114.45 73.9449 114.19 73.6833L90.998 50.4916L115.21 26.2807C115.471 26.0198 115.617 25.6662 115.617 25.2974C115.617 24.9287 115.471 24.5751 115.21 24.3142L91.3038 0.413058C91.1747 0.283937 91.0214 0.181512 90.8527 0.111632C90.684 0.0417525 90.5031 0.00578581 90.3205 0.0057858C90.1379 0.0057858 89.9571 0.0417525 89.7884 0.111632C89.6197 0.181512 89.4664 0.283937 89.3373 0.413058C89.2082 0.542179 89.1058 0.695468 89.0359 0.864173C88.966 1.03288 88.93 1.2137 88.93 1.3963C88.93 1.5789 88.966 1.75972 89.0359 1.92843C89.1058 2.09713 89.2082 2.25042 89.3373 2.37954L112.256 25.2987L88.0634 49.4947C87.803 49.7557 87.6567 50.1093 87.6567 50.478C87.6567 50.8466 87.803 51.2002 88.0634 51.4612C88.1001 51.498 88.1433 51.5114 88.1855 51.5426C88.2332 51.6092 88.258 51.6866 88.3215 51.7452L111.244 74.6683L87.0486 98.8639C86.7066 99.2064 86.6058 99.6795 86.6946 100.122C86.6885 100.311 86.7209 100.499 86.7897 100.674C86.8585 100.85 86.9623 101.01 87.0948 101.145L110.023 124.07L85.8129 148.258C85.5541 148.52 85.4089 148.874 85.4089 149.242C85.4089 149.61 85.5541 149.963 85.8129 150.225C85.8526 150.263 85.8973 150.282 85.936 150.301C85.9862 150.366 86.0115 150.448 86.0751 150.502L108.994 173.426L84.7991 197.617C84.6699 197.746 84.5674 197.899 84.4974 198.068C84.4275 198.237 84.3915 198.418 84.3915 198.6C84.3915 198.783 84.4275 198.964 84.4974 199.132C84.5674 199.301 84.6699 199.454 84.7991 199.583C85.0638 199.868 85.4197 200 85.7801 200ZM123.326 200C123.509 200.001 123.69 199.965 123.859 199.895C124.028 199.825 124.182 199.722 124.311 199.592L149.494 174.414C149.755 174.153 149.901 173.799 149.901 173.43C149.901 173.062 149.755 172.708 149.494 172.447L126.299 149.253L150.509 125.041C150.638 124.912 150.741 124.759 150.811 124.59C150.881 124.421 150.917 124.241 150.917 124.058C150.917 123.875 150.881 123.695 150.811 123.526C150.741 123.357 150.638 123.204 150.509 123.075L127.408 99.9779L151.738 75.6503C151.994 75.3867 152.137 75.034 152.137 74.6668C152.137 74.2997 151.994 73.9469 151.738 73.6833L128.537 50.4886L152.749 26.2782C153.009 26.0166 153.154 25.6631 153.154 25.2947C153.154 24.9263 153.009 24.5729 152.749 24.3112L128.841 0.407597C128.298 -0.136028 127.409 -0.136028 126.874 0.407597C126.614 0.668443 126.467 1.0221 126.467 1.39084C126.467 1.75958 126.614 2.11323 126.874 2.37408L149.788 25.2932L125.597 49.4888C125.468 49.6179 125.365 49.7711 125.295 49.9399C125.225 50.1086 125.189 50.2894 125.189 50.472C125.189 50.6546 125.225 50.8355 125.295 51.0042C125.365 51.1729 125.468 51.3262 125.597 51.4553C125.636 51.495 125.676 51.5084 125.727 51.5397C125.782 51.6062 125.796 51.6812 125.859 51.7392L148.782 74.6618L124.582 98.8574C124.239 99.2024 124.147 99.6781 124.229 100.121C124.224 100.309 124.257 100.495 124.327 100.67C124.397 100.844 124.502 101.002 124.635 101.134L147.558 124.062L123.36 148.251C122.822 148.795 122.822 149.681 123.36 150.219C123.397 150.262 123.441 150.275 123.483 150.3C123.534 150.365 123.55 150.441 123.619 150.501L146.543 173.418L122.35 197.61C121.805 198.154 121.805 199.042 122.35 199.577C122.473 199.713 122.624 199.82 122.792 199.893C122.961 199.966 123.143 200.003 123.326 200Z" fill="#4666FF"/>
</g>
<defs>
<clipPath id="clip0_354_6097">
<rect width="200" height="200" fill="white"/>
</clipPath>
</defs>
</svg>
