<svg width="122" height="172" viewBox="0 0 122 172" fill="none" xmlns="http://www.w3.org/2000/svg">
<g filter="url(#filter0_dddd_1840_286555)">
<rect x="31" y="5" width="60" height="60" rx="30" fill="#2454FF"/>
<path d="M49.676 37.8623L60.1049 47.6592L60.105 47.6592C60.3018 47.8441 60.4002 47.9365 60.501 47.9946C60.8099 48.1724 61.1901 48.1724 61.499 47.9946C61.5998 47.9365 61.6983 47.8441 61.8951 47.6592L72.324 37.8623C75.2582 35.1059 75.6146 30.5699 73.1467 27.3891L72.6827 26.791C69.7304 22.9859 63.8044 23.624 61.73 27.9705C61.437 28.5844 60.563 28.5844 60.27 27.9705C58.1956 23.624 52.2696 22.9859 49.3173 26.791L48.8533 27.3891C46.3854 30.5699 46.7417 35.1059 49.676 37.8623Z" fill="white" stroke="white" stroke-width="4"/>
</g>
<defs>
<filter id="filter0_dddd_1840_286555" x="0" y="0" width="122" height="172" filterUnits="userSpaceOnUse" color-interpolation-filters="sRGB">
<feFlood flood-opacity="0" result="BackgroundImageFix"/>
<feColorMatrix in="SourceAlpha" type="matrix" values="0 0 0 0 0 0 0 0 0 0 0 0 0 0 0 0 0 0 127 0" result="hardAlpha"/>
<feOffset dy="5"/>
<feGaussianBlur stdDeviation="5"/>
<feColorMatrix type="matrix" values="0 0 0 0 0 0 0 0 0 0 0 0 0 0 0 0 0 0 0.1 0"/>
<feBlend mode="normal" in2="BackgroundImageFix" result="effect1_dropShadow_1840_286555"/>
<feColorMatrix in="SourceAlpha" type="matrix" values="0 0 0 0 0 0 0 0 0 0 0 0 0 0 0 0 0 0 127 0" result="hardAlpha"/>
<feOffset dy="19"/>
<feGaussianBlur stdDeviation="9.5"/>
<feColorMatrix type="matrix" values="0 0 0 0 0 0 0 0 0 0 0 0 0 0 0 0 0 0 0.09 0"/>
<feBlend mode="normal" in2="effect1_dropShadow_1840_286555" result="effect2_dropShadow_1840_286555"/>
<feColorMatrix in="SourceAlpha" type="matrix" values="0 0 0 0 0 0 0 0 0 0 0 0 0 0 0 0 0 0 127 0" result="hardAlpha"/>
<feOffset dy="43"/>
<feGaussianBlur stdDeviation="13"/>
<feColorMatrix type="matrix" values="0 0 0 0 0 0 0 0 0 0 0 0 0 0 0 0 0 0 0.05 0"/>
<feBlend mode="normal" in2="effect2_dropShadow_1840_286555" result="effect3_dropShadow_1840_286555"/>
<feColorMatrix in="SourceAlpha" type="matrix" values="0 0 0 0 0 0 0 0 0 0 0 0 0 0 0 0 0 0 127 0" result="hardAlpha"/>
<feOffset dy="76"/>
<feGaussianBlur stdDeviation="15.5"/>
<feColorMatrix type="matrix" values="0 0 0 0 0 0 0 0 0 0 0 0 0 0 0 0 0 0 0.01 0"/>
<feBlend mode="normal" in2="effect3_dropShadow_1840_286555" result="effect4_dropShadow_1840_286555"/>
<feBlend mode="normal" in="SourceGraphic" in2="effect4_dropShadow_1840_286555" result="shape"/>
</filter>
</defs>
</svg>
