<svg width="54" height="59" viewBox="0 0 54 59" fill="none" xmlns="http://www.w3.org/2000/svg">
<path fill-rule="evenodd" clip-rule="evenodd" d="M17.9407 54.8221C12.8207 53.3853 7.46026 52.6605 2.26027 51.9965C1.14027 51.8573 0.100428 52.6341 0.0204277 53.7285C-0.139572 54.8237 0.660895 55.8253 1.70089 55.9645C6.74089 56.6037 11.9404 57.2877 16.8204 58.6709C17.8604 58.9709 18.9809 58.3533 19.3009 57.2909C19.6209 56.2293 18.9807 55.1229 17.9407 54.8221Z" fill="black" fill-opacity="0.4"/>
<path fill-rule="evenodd" clip-rule="evenodd" d="M33.4601 34.4518C25.2201 26.043 15.9401 18.7166 7.86015 10.0822C7.14015 9.27577 5.86015 9.23257 5.06015 9.98537C4.26015 10.739 4.18047 12.0062 4.98046 12.8126C13.0605 21.4718 22.3404 28.8222 30.5804 37.2558C31.3804 38.043 32.6601 38.0542 33.4601 37.2798C34.1801 36.5062 34.2601 35.239 33.4601 34.4518Z" fill="black" fill-opacity="0.4"/>
<path fill-rule="evenodd" clip-rule="evenodd" d="M48.9012 2.10855C49.1412 6.92135 49.3807 11.7341 49.6207 16.5477C49.6207 17.6501 50.5812 18.5013 51.7012 18.4477C52.8212 18.3933 53.6207 17.4549 53.6207 16.3517C53.3807 11.5309 53.1412 6.71095 52.9012 1.89094C52.8212 0.788545 51.861 -0.0570556 50.741 0.00294443C49.701 0.0629444 48.8212 1.00695 48.9012 2.10855Z" fill="black" fill-opacity="0.4"/>
</svg>
