<svg width="146" height="48" viewBox="0 0 146 48" fill="none" xmlns="http://www.w3.org/2000/svg">
<path d="M0.0479369 38.2836C0.273448 30.1598 3.01911 22.307 7.90476 15.8126C8.82688 14.585 9.81957 13.412 10.8779 12.2996C11.1002 12.066 11.3263 11.8343 11.5562 11.6044C11.8049 11.3557 12.0536 11.1126 12.3079 10.8696C19.6264 3.93103 29.3263 0.0621655 39.4111 0.0594177H39.4902V10.8357V10.9092C31.8968 10.9122 24.6154 13.9311 19.2476 19.3021C13.8798 24.6731 10.8651 31.9563 10.8666 39.5498H0.0366211L0.0479369 38.2836Z" fill="#2454FF"/>
<path d="M18.3052 26.1903C19.3044 24.6099 20.4749 23.1446 21.7955 21.821C23.0583 20.5584 24.4519 19.4338 25.9529 18.4663L39.4536 31.9642L39.5298 32.0377V39.5554H31.6646L18.3052 26.1903Z" fill="#2454FF"/>
<path d="M0 0.0536961V0H7.46397L10.878 3.41969L13.0429 5.58172C12.3005 6.14696 11.5789 6.74423 10.878 7.37353C10.2506 7.93876 9.63919 8.51342 9.04381 9.0975C8.44842 9.68158 7.88318 10.2751 7.34809 10.878C6.65662 11.6524 5.99717 12.4494 5.36976 13.269L2.98164 10.8837L0.0254605 7.93029L0 0.0536961Z" fill="#2454FF"/>
<path d="M53.1443 48C52.0383 48 51.1707 47.7004 50.5414 47.1013C49.9121 46.5021 49.5956 45.6024 49.5918 44.4023V19.0626C49.5918 17.8964 49.8998 17.0042 50.5159 16.3862C51.132 15.7682 52.0082 15.4602 53.1443 15.4621C54.2503 15.4621 55.1113 15.7701 55.7274 16.3862C56.3436 17.0023 56.6507 17.8945 56.6488 19.0626V22.2817L56.1288 20.4362C56.5982 18.8948 57.6182 17.5801 58.9945 16.7423C60.4757 15.8138 62.1952 15.3365 63.9432 15.3688C65.8314 15.3323 67.6901 15.8416 69.296 16.8356C70.8692 17.8463 72.112 19.2954 72.8711 21.0042C73.7077 22.8055 74.1259 24.9524 74.1259 27.4451C74.1259 29.9378 73.7001 32.1046 72.8485 33.9453C72.0975 35.6584 70.8628 37.115 69.296 38.1366C67.6888 39.1252 65.8295 39.6268 63.9432 39.5808C62.2242 39.6116 60.5321 39.1518 59.0652 38.2553C57.7327 37.4785 56.7237 36.2489 56.222 34.7904H56.7449V44.3994C56.7449 45.5977 56.4368 46.4974 55.8207 47.0984C55.2046 47.6995 54.3125 48 53.1443 48ZM61.8122 34.2647C62.7562 34.2833 63.6855 34.0292 64.4886 33.5327C65.3079 32.9832 65.9369 32.1934 66.2889 31.2718C66.7528 30.0471 66.9699 28.7427 66.9276 27.4338C66.9276 25.1314 66.4566 23.4357 65.5145 22.3467C65.0611 21.8142 64.4936 21.3907 63.8541 21.1074C63.2147 20.8241 62.5197 20.6884 61.8207 20.7103C60.8794 20.6915 59.9518 20.9384 59.1443 21.4225C58.3226 21.9533 57.6919 22.7325 57.344 23.6467C56.8842 24.8558 56.6671 26.1436 56.7053 27.4366C56.7053 29.7748 57.1763 31.496 58.1184 32.6001C58.5679 33.1391 59.1339 33.569 59.7738 33.8574C60.4137 34.1457 61.1107 34.285 61.8122 34.2647Z" fill="#58595B"/>
<path d="M90.5596 39.5695C87.8126 39.5695 85.4527 39.0806 83.48 38.1027C81.5789 37.1923 79.9948 35.7322 78.9327 33.9115C77.8738 32.0952 77.3453 29.9397 77.3472 27.4452C77.3472 25.0467 77.8596 22.9553 78.8846 21.171C79.8928 19.4039 81.3568 17.9399 83.1239 16.9317C84.7568 16.0468 86.5608 15.5232 88.4137 15.3964C90.2667 15.2696 92.1252 15.5426 93.8634 16.1969C95.2036 16.7359 96.4093 17.5624 97.3952 18.6182C98.3811 19.6739 99.1234 20.9332 99.5695 22.3072C100.092 23.8873 100.348 25.5435 100.327 27.2078C100.346 27.4615 100.304 27.7162 100.206 27.9509C100.108 28.1856 99.9556 28.3939 99.7617 28.5587C99.2756 28.8899 98.6923 29.0482 98.1055 29.008H83.2793V25.3142H95.1691L94.4117 25.9784C94.4467 24.8696 94.2543 23.7655 93.8465 22.7339C93.5107 21.9259 92.9408 21.2369 92.2101 20.7556C91.4195 20.2757 90.506 20.037 89.5818 20.0688C88.5293 20.0371 87.4909 20.3173 86.5973 20.8743C85.746 21.4483 85.0864 22.2644 84.7038 23.2172C84.2339 24.3837 84.0078 25.6341 84.0396 26.8912V27.2699C84.0396 29.6703 84.5926 31.4386 85.6986 32.5747C86.8046 33.7108 88.4776 34.2761 90.7179 34.2704C91.586 34.2593 92.451 34.1647 93.301 33.9878C94.2573 33.8006 95.1874 33.4978 96.0707 33.0862C96.8243 32.7414 97.4715 32.6312 98.0123 32.7556C98.5212 32.8651 98.9795 33.1404 99.3151 33.5384C99.6464 33.9306 99.8382 34.4217 99.8606 34.9346C99.8886 35.4856 99.7655 36.0339 99.5045 36.5201C99.197 37.0805 98.727 37.5347 98.1564 37.8229C97.006 38.4717 95.7574 38.928 94.4598 39.1738C93.1758 39.4331 91.8695 39.5656 90.5596 39.5695Z" fill="#58595B"/>
<path d="M108.178 39.4762C106.979 39.4762 106.064 39.1682 105.431 38.5521C104.798 37.9359 104.482 37.0438 104.484 35.8757V19.0627C104.484 17.8964 104.792 17.0043 105.408 16.3863C106.024 15.7683 106.9 15.4602 108.036 15.4621C109.142 15.4621 109.99 15.7701 110.58 16.3863C111.17 17.0024 111.469 17.8945 111.479 19.0627V21.5243H111.007C111.355 19.6401 112.184 18.1724 113.494 17.1211C114.803 16.0697 116.499 15.4856 118.581 15.3688C118.903 15.3193 119.232 15.3471 119.541 15.4498C119.85 15.5525 120.13 15.7272 120.359 15.9595C120.783 16.4173 121.028 17.1832 121.091 18.2572C121.159 19.0634 120.932 19.867 120.452 20.5181C119.994 21.0834 119.228 21.4367 118.154 21.561L117.066 21.6571C115.265 21.8154 113.931 22.3363 113.064 23.22C112.198 24.1036 111.773 25.3858 111.79 27.0664V35.8757C111.79 37.0457 111.489 37.9378 110.888 38.5521C110.287 39.1663 109.384 39.4743 108.178 39.4762Z" fill="#58595B"/>
<path d="M131.955 39.5695C130.354 39.6059 128.767 39.2743 127.314 38.6001C126.054 38.0096 124.974 37.0935 124.186 35.9463C123.424 34.8049 123.03 33.4578 123.055 32.0858C123.055 30.3901 123.498 29.0486 124.384 28.0613C125.269 27.074 126.697 26.3637 128.668 25.9303C130.641 25.4894 133.269 25.2681 136.553 25.2662H139.066V28.96H136.601C135.294 28.9356 133.988 29.0235 132.696 29.2228C131.731 29.3943 131.028 29.6939 130.587 30.1216C130.363 30.3413 130.188 30.6061 130.074 30.8983C129.959 31.1906 129.908 31.5038 129.923 31.8173C129.914 32.2181 129.992 32.616 130.152 32.9839C130.311 33.3517 130.549 33.6806 130.847 33.9482C131.463 34.5135 132.339 34.7961 133.476 34.7961C134.337 34.8092 135.186 34.5968 135.94 34.18C136.651 33.7819 137.238 33.195 137.636 32.4843C138.064 31.685 138.277 30.7878 138.252 29.8813V24.4607C138.252 23.0721 137.936 22.0858 137.305 21.5017C136.674 20.9176 135.584 20.6256 134.035 20.6256C133.121 20.6347 132.21 20.7293 131.313 20.9082C130.183 21.1412 129.08 21.4907 128.021 21.9511C127.437 22.2237 126.777 22.2904 126.15 22.1404C125.646 21.9951 125.215 21.6651 124.943 21.2162C124.657 20.755 124.509 20.2215 124.517 19.6788C124.518 19.1079 124.681 18.5492 124.988 18.0679C125.376 17.5132 125.946 17.1129 126.599 16.9374C127.939 16.4016 129.328 15.9965 130.745 15.7278C131.924 15.5053 133.121 15.3871 134.321 15.3745C136.751 15.3745 138.763 15.7297 140.357 16.44C141.889 17.0888 143.145 18.2525 143.91 19.7297C144.684 21.2162 145.071 23.0957 145.071 25.3679V35.8813C145.071 37.0514 144.779 37.9435 144.195 38.5577C143.61 39.1738 142.799 39.4819 141.756 39.4819C140.713 39.4819 139.854 39.1738 139.269 38.5577C138.684 37.9416 138.393 37.0514 138.393 35.8813V34.1291L138.724 34.4598C138.559 35.4486 138.143 36.3788 137.517 37.1616C136.892 37.9253 136.097 38.5329 135.197 38.9364C134.174 39.3788 133.069 39.5948 131.955 39.5695Z" fill="#58595B"/>
</svg>
