<svg width="127" height="42" viewBox="0 0 127 42" fill="none" xmlns="http://www.w3.org/2000/svg">
<path d="M0.0397949 32.4325C0.277038 24.2118 3.54409 16.3689 9.21308 10.4109C9.40261 10.2125 9.59214 10.016 9.78167 9.82146C9.99205 9.61109 10.2062 9.4045 10.4204 9.1998C11.2983 8.36585 12.2208 7.58004 13.1837 6.84583C18.9868 2.42035 26.086 0.0297359 33.3839 0.0435778H33.4503V9.17137V9.23392C28.5735 9.2285 23.8093 10.7 19.7851 13.4548C17.2286 15.2035 15.0288 17.4233 13.3032 19.9955C10.6268 23.9876 9.20264 28.6876 9.21308 33.4938H0.0416902L0.0397949 32.4325Z" fill="#4666FF"/>
<path d="M14.1882 20.8711C15.8887 18.2785 18.0931 16.0543 20.6702 14.3304L33.4199 27.065L33.3157 27.1692H33.4825V33.4977H27.2279C27.2279 33.4673 27.2279 33.4351 27.2279 33.4048C27.2279 33.3745 27.2279 33.3005 27.2279 33.2475L26.9797 33.4977H26.8167L14.1882 20.8711Z" fill="#4666FF"/>
<path d="M0 0.0454877V0H6.32274L9.21309 2.88655L12.3441 6.01381C11.2478 6.85255 10.2023 7.75568 9.21309 8.71841L8.94585 8.97997L8.71841 9.20172C7.6873 10.2495 6.72381 11.3618 5.83375 12.5318L2.51318 9.2093L0 6.70749V6.20903V0.0454877Z" fill="#4666FF"/>
<path d="M42.3166 42C41.5888 42 41.0278 41.8029 40.6336 41.4087C40.2393 41.0144 40.0422 40.4383 40.0422 39.6801V13.2899C40.0422 12.5318 40.2393 11.9556 40.6336 11.5614C41.0278 11.1671 41.5717 10.9725 42.2654 10.9776C42.9932 10.9776 43.5542 11.1747 43.9485 11.5689C44.3427 11.9632 44.5398 12.5368 44.5398 13.2899V17.2473L44.0394 16.2996C44.5028 14.6922 45.5174 13.2992 46.9051 12.365C48.3304 11.3794 50.0134 10.8866 51.9542 10.8866C53.9254 10.8866 55.6463 11.3567 57.1171 12.2967C58.6095 13.2622 59.7936 14.6357 60.5286 16.2541C61.3322 17.9523 61.734 19.9993 61.734 22.3949C61.734 24.7299 61.3322 26.7693 60.5286 28.513C59.725 30.2567 58.5954 31.591 57.1398 32.5159C55.6842 33.4408 53.9557 33.9032 51.9542 33.9032C50.0438 33.9032 48.3759 33.418 46.9506 32.4476C45.5692 31.5372 44.5542 30.1677 44.0849 28.5812H44.6308V39.6801C44.6308 40.4383 44.4261 41.0144 44.0167 41.4087C43.6073 41.8029 43.0406 42 42.3166 42ZM50.8227 30.3476C51.9948 30.3759 53.1494 30.0596 54.1433 29.4379C55.124 28.7827 55.8848 27.8476 56.3267 26.7541C56.8422 25.5715 57.1 24.1184 57.1 22.3949C57.1 19.787 56.5314 17.8159 55.3942 16.4816C54.257 15.1473 52.7332 14.4801 50.8227 14.4801C49.6617 14.4577 48.5181 14.7653 47.5249 15.3671C46.5324 16.0017 45.7615 16.9289 45.3188 18.0206C44.7995 19.2083 44.5398 20.6639 44.5398 22.3873C44.5398 24.965 45.116 26.9361 46.2683 28.3007C47.4207 29.6653 48.9388 30.3476 50.8227 30.3476Z" fill="#4666FF"/>
<path d="M77.3417 33.9032C74.9157 33.9032 72.8309 33.4408 71.0872 32.5159C69.3775 31.6242 67.9691 30.2475 67.0388 28.5585C66.0836 26.8451 65.606 24.8058 65.606 22.4404C65.606 20.1357 66.076 18.1191 67.0161 16.3906C67.9092 14.7115 69.2476 13.3108 70.8844 12.3422C72.3584 11.525 73.9928 11.0386 75.6738 10.9168C77.3549 10.7951 79.0422 11.0409 80.6187 11.6372C81.8085 12.1211 82.8736 12.8674 83.7346 13.8206C84.628 14.8272 85.295 16.0138 85.6905 17.3004C86.1484 18.7881 86.3709 20.3382 86.3501 21.8946C86.3501 22.4101 86.1985 22.7967 85.8952 23.0545C85.592 23.3123 85.1371 23.4386 84.5306 23.4336H69.2449V20.6209H83.2551L82.4818 21.2502C82.4818 19.7339 82.2619 18.4451 81.8222 17.3837C81.4372 16.39 80.7539 15.5399 79.8662 14.9502C79.002 14.3892 77.933 14.1087 76.6594 14.1087C75.2341 14.1087 74.0287 14.4422 73.0431 15.1094C72.0404 15.7974 71.2583 16.7612 70.7915 17.8841C70.2511 19.1958 69.9878 20.6051 70.0182 22.0235V22.2964C70.0182 24.965 70.65 26.974 71.9135 28.3235C73.1771 29.6729 75.0016 30.3476 77.3872 30.3476C78.3609 30.3397 79.3304 30.2176 80.2756 29.9837C81.3 29.7376 82.2761 29.3225 83.1641 28.7556C83.5745 28.4819 84.0582 28.3391 84.5514 28.3462C84.9149 28.3571 85.2627 28.4963 85.5333 28.7391C85.8039 28.982 85.9798 29.3128 86.0298 29.6729C86.0854 30.0551 86.019 30.445 85.8403 30.7874C85.6221 31.2075 85.2947 31.561 84.8926 31.8108C83.7974 32.5368 82.5849 33.0678 81.3086 33.3801C80.0135 33.7202 78.6807 33.8959 77.3417 33.9032Z" fill="#4666FF"/>
<path d="M93.6717 33.8123C92.9135 33.8123 92.3374 33.6076 91.9431 33.1982C91.547 32.7888 91.3518 32.2202 91.3518 31.4924V13.2899C91.3518 12.5318 91.5413 11.9632 91.9431 11.5614C92.3449 11.1596 92.8813 10.97 93.5807 10.97C94.2801 10.97 94.86 11.1596 95.241 11.5614C95.6219 11.9632 95.8096 12.5318 95.8096 13.2899V16.6105H95.3547C95.8386 14.791 96.7332 13.4112 98.0385 12.4711C99.3437 11.531 101.012 10.9852 103.042 10.8336C103.275 10.8065 103.511 10.8289 103.734 10.8995C103.958 10.97 104.163 11.0871 104.338 11.2429C104.657 11.5462 104.829 12.0162 104.862 12.6531C104.894 13.2899 104.784 13.7902 104.452 14.1693C104.12 14.5484 103.601 14.7682 102.906 14.8289L102.041 14.9198C100.069 15.1018 98.5679 15.7235 97.5381 16.7848C96.5083 17.8462 95.9928 19.2993 95.9915 21.144V31.4848C95.9915 32.2126 95.802 32.7812 95.4229 33.1906C95.0439 33.6 94.4582 33.8123 93.6717 33.8123Z" fill="#4666FF"/>
<path d="M115.413 33.9032C113.971 33.9282 112.543 33.6167 111.243 32.9935C110.08 32.4412 109.083 31.5912 108.355 30.5296C107.656 29.4963 107.291 28.274 107.308 27.0271C107.308 25.3845 107.725 24.0881 108.559 23.1379C109.393 22.1877 110.773 21.5054 112.699 21.091C114.629 20.6917 117.232 20.492 120.507 20.492H122.645V23.3123H120.56C118.377 23.3123 116.649 23.4184 115.375 23.6307C114.101 23.8429 113.199 24.1993 112.668 24.6996C112.138 25.205 111.872 25.8949 111.872 26.7693C111.872 27.9216 112.267 28.8541 113.055 29.5668C113.843 30.2794 114.935 30.6357 116.33 30.6357C117.371 30.6577 118.397 30.3815 119.287 29.8397C120.134 29.3037 120.828 28.5565 121.3 27.6715C121.816 26.7071 122.077 25.6266 122.058 24.5328V19.3018C122.058 17.5682 121.693 16.3224 120.962 15.5642C120.232 14.8061 119.032 14.4271 117.361 14.4271C116.34 14.4322 115.322 14.5543 114.329 14.791C113.198 15.0651 112.106 15.4776 111.076 16.0191C110.561 16.2617 110.119 16.3375 109.75 16.2466C109.393 16.1608 109.084 15.9408 108.885 15.6325C108.676 15.3226 108.558 14.9601 108.544 14.5863C108.54 14.1972 108.642 13.8144 108.84 13.4794C109.068 13.0895 109.433 12.7979 109.863 12.6606C111.123 12.0493 112.452 11.5912 113.821 11.296C115.033 11.033 116.269 10.8958 117.509 10.8866C119.541 10.8866 121.216 11.2025 122.535 11.8343C123.821 12.4388 124.858 13.4702 125.469 14.7531C126.101 16.057 126.417 17.7401 126.417 19.8022V31.4848C126.417 32.2126 126.235 32.7812 125.871 33.1906C125.507 33.6 124.976 33.8047 124.279 33.8047C123.985 33.819 123.692 33.7717 123.418 33.666C123.144 33.5602 122.895 33.3983 122.687 33.1906C122.293 32.7812 122.096 32.2126 122.096 31.4848V28.5281H122.505C122.293 29.5839 121.833 30.574 121.163 31.4166C120.513 32.2187 119.678 32.8509 118.73 33.2588C117.681 33.7013 116.551 33.9207 115.413 33.9032Z" fill="#4666FF"/>
</svg>
