<svg width="70" height="70" viewBox="0 0 70 70" fill="none" xmlns="http://www.w3.org/2000/svg">
<path fill-rule="evenodd" clip-rule="evenodd" d="M27.7274 13.7946C27.5399 12.6821 27.3986 11.5822 27.3074 10.4822C27.1699 8.83224 27.2549 7.16962 27.2061 5.51962C27.1849 4.81962 27.1011 2.99465 27.1349 2.73215C27.4411 0.444647 29.2874 0.0946039 29.8274 0.0321039C30.0886 -0.00539609 32.7711 -0.305262 33.3499 2.66974C34.0599 6.30724 34.2874 9.96969 34.0361 13.5572C34.6224 16.6072 35.6249 19.6446 36.9487 22.3946C42.2161 33.3321 52.2536 34.3946 63.1286 34.2946C64.8011 34.2696 66.1899 35.5821 66.2774 37.2446C66.3649 38.9196 65.1199 40.3696 63.4549 40.5196C57.3762 41.1071 46.5911 45.9822 42.8623 51.0572C42.0823 52.1197 41.6286 54.6822 41.0286 57.1947C40.1911 60.6822 39.1949 64.1322 38.0786 65.5822C37.9111 65.8072 35.8749 68.1072 35.2674 68.4447C33.8074 69.2447 32.6386 68.7821 31.9749 68.3571C31.3111 67.9321 30.5599 67.0947 30.2599 65.7072C29.9461 64.2571 30.2111 61.2821 30.1624 60.6446C29.9849 58.3321 29.5224 53.7946 28.5787 49.8946C28.0699 47.7946 27.5274 45.8571 26.6299 44.8946C23.3074 41.3321 17.9949 41.8572 13.5211 42.4447C13.0074 42.5072 12.4937 42.5822 11.9811 42.6447C10.1599 43.1822 8.2261 43.5821 6.18235 43.8196C3.0961 44.1821 2.58864 41.3446 2.56114 41.1571C2.50364 40.7446 2.28986 38.6197 4.61611 37.7697C4.86986 37.6822 6.74238 37.2696 7.46363 37.1071C8.46863 36.8821 9.48486 36.7072 10.5049 36.5447C21.0411 33.2697 26.7636 24.0696 27.7274 13.7946ZM31.3436 25.1572C35.3211 33.3822 41.3574 37.3572 48.5124 39.1572H48.5112C44.0436 41.4947 39.9799 44.4197 37.8261 47.3572C37.0086 48.4697 36.2586 50.7072 35.5824 53.2197C35.2161 50.8822 34.7212 48.3946 34.0674 46.2696C33.3237 43.8446 32.3224 41.8322 31.2049 40.6322C29.0474 38.3197 26.3398 37.0322 23.4286 36.3947C26.9136 33.3072 29.5561 29.4572 31.3436 25.1572Z" fill="#2454FF"/>
</svg>
