<svg width="654" height="764" viewBox="0 0 654 764" fill="none" xmlns="http://www.w3.org/2000/svg">
<g filter="url(#filter0_dddd_1833_76690)">
<rect x="187" y="35" width="280" height="76" rx="36" fill="white"/>
<path d="M231.74 67.16C231.367 67.16 231.08 67.0533 230.88 66.84C230.68 66.6267 230.58 66.3333 230.58 65.96V53.94C230.58 53.5533 230.687 53.26 230.9 53.06C231.113 52.8467 231.407 52.74 231.78 52.74C232.113 52.74 232.373 52.8067 232.56 52.94C232.76 53.06 232.94 53.2733 233.1 53.58L238.04 62.72H237.4L242.34 53.58C242.5 53.2733 242.673 53.06 242.86 52.94C243.047 52.8067 243.307 52.74 243.64 52.74C244.013 52.74 244.3 52.8467 244.5 53.06C244.7 53.26 244.8 53.5533 244.8 53.94V65.96C244.8 66.3333 244.7 66.6267 244.5 66.84C244.313 67.0533 244.027 67.16 243.64 67.16C243.267 67.16 242.98 67.0533 242.78 66.84C242.58 66.6267 242.48 66.3333 242.48 65.96V56.7H242.92L238.72 64.36C238.587 64.5867 238.447 64.7533 238.3 64.86C238.153 64.9667 237.953 65.02 237.7 65.02C237.447 65.02 237.24 64.9667 237.08 64.86C236.92 64.74 236.78 64.5733 236.66 64.36L232.42 56.68H232.9V65.96C232.9 66.3333 232.8 66.6267 232.6 66.84C232.413 67.0533 232.127 67.16 231.74 67.16ZM250.143 70.76C249.85 70.76 249.61 70.68 249.423 70.52C249.237 70.3733 249.123 70.1733 249.083 69.92C249.057 69.6667 249.103 69.4 249.223 69.12L250.583 66.1V67.14L246.943 58.72C246.823 58.4267 246.783 58.1533 246.823 57.9C246.863 57.6467 246.983 57.4467 247.183 57.3C247.397 57.14 247.683 57.06 248.043 57.06C248.35 57.06 248.597 57.1333 248.783 57.28C248.97 57.4133 249.137 57.6733 249.283 58.06L251.983 64.8H251.383L254.143 58.04C254.29 57.6667 254.463 57.4133 254.663 57.28C254.863 57.1333 255.13 57.06 255.463 57.06C255.757 57.06 255.99 57.14 256.163 57.3C256.337 57.4467 256.443 57.6467 256.483 57.9C256.523 58.14 256.477 58.4067 256.343 58.7L251.483 69.8C251.31 70.1733 251.123 70.4267 250.923 70.56C250.723 70.6933 250.463 70.76 250.143 70.76ZM265.14 67.16C264.727 67.16 264.407 67.0467 264.18 66.82C263.967 66.58 263.86 66.2533 263.86 65.84V54.06C263.86 53.6333 263.967 53.3067 264.18 53.08C264.407 52.8533 264.727 52.74 265.14 52.74C265.554 52.74 265.867 52.8533 266.08 53.08C266.307 53.3067 266.42 53.6333 266.42 54.06V65.84C266.42 66.2533 266.314 66.58 266.1 66.82C265.887 67.0467 265.567 67.16 265.14 67.16ZM270.505 67.16C270.105 67.16 269.798 67.0533 269.585 66.84C269.372 66.6133 269.265 66.2933 269.265 65.88V58.32C269.265 57.9067 269.372 57.5933 269.585 57.38C269.798 57.1667 270.098 57.06 270.485 57.06C270.872 57.06 271.172 57.1667 271.385 57.38C271.598 57.5933 271.705 57.9067 271.705 58.32V59.68L271.485 59.18C271.778 58.4733 272.232 57.94 272.845 57.58C273.472 57.2067 274.178 57.02 274.965 57.02C275.752 57.02 276.398 57.1667 276.905 57.46C277.412 57.7533 277.792 58.2 278.045 58.8C278.298 59.3867 278.425 60.1333 278.425 61.04V65.88C278.425 66.2933 278.318 66.6133 278.105 66.84C277.892 67.0533 277.585 67.16 277.185 67.16C276.785 67.16 276.472 67.0533 276.245 66.84C276.032 66.6133 275.925 66.2933 275.925 65.88V61.16C275.925 60.4 275.778 59.8467 275.485 59.5C275.205 59.1533 274.765 58.98 274.165 58.98C273.432 58.98 272.845 59.2133 272.405 59.68C271.978 60.1333 271.765 60.74 271.765 61.5V65.88C271.765 66.7333 271.345 67.16 270.505 67.16ZM285.444 67.2C284.577 67.2 283.851 67.0533 283.264 66.76C282.691 66.4667 282.264 66.04 281.984 65.48C281.704 64.9067 281.564 64.2 281.564 63.36V59.1H280.524C280.204 59.1 279.957 59.02 279.784 58.86C279.611 58.6867 279.524 58.4533 279.524 58.16C279.524 57.8533 279.611 57.62 279.784 57.46C279.957 57.3 280.204 57.22 280.524 57.22H281.564V55.4C281.564 54.9867 281.671 54.6733 281.884 54.46C282.111 54.2467 282.424 54.14 282.824 54.14C283.224 54.14 283.531 54.2467 283.744 54.46C283.957 54.6733 284.064 54.9867 284.064 55.4V57.22H286.184C286.504 57.22 286.751 57.3 286.924 57.46C287.097 57.62 287.184 57.8533 287.184 58.16C287.184 58.4533 287.097 58.6867 286.924 58.86C286.751 59.02 286.504 59.1 286.184 59.1H284.064V63.22C284.064 63.86 284.204 64.34 284.484 64.66C284.764 64.98 285.217 65.14 285.844 65.14C286.071 65.14 286.271 65.12 286.444 65.08C286.617 65.04 286.771 65.0133 286.904 65C287.064 64.9867 287.197 65.04 287.304 65.16C287.411 65.2667 287.464 65.4933 287.464 65.84C287.464 66.1067 287.417 66.3467 287.324 66.56C287.244 66.76 287.091 66.9 286.864 66.98C286.691 67.0333 286.464 67.08 286.184 67.12C285.904 67.1733 285.657 67.2 285.444 67.2ZM293.362 67.2C292.256 67.2 291.302 66.9933 290.502 66.58C289.702 66.1667 289.082 65.58 288.642 64.82C288.216 64.06 288.002 63.16 288.002 62.12C288.002 61.1067 288.209 60.22 288.622 59.46C289.049 58.7 289.629 58.1067 290.362 57.68C291.109 57.24 291.956 57.02 292.902 57.02C293.596 57.02 294.216 57.1333 294.762 57.36C295.322 57.5867 295.796 57.9133 296.182 58.34C296.582 58.7667 296.882 59.2867 297.082 59.9C297.296 60.5 297.402 61.18 297.402 61.94C297.402 62.18 297.316 62.3667 297.142 62.5C296.982 62.62 296.749 62.68 296.442 62.68H290.022V61.24H295.642L295.322 61.54C295.322 60.9267 295.229 60.4133 295.042 60C294.869 59.5867 294.609 59.2733 294.262 59.06C293.929 58.8333 293.509 58.72 293.002 58.72C292.442 58.72 291.962 58.8533 291.562 59.12C291.176 59.3733 290.876 59.74 290.662 60.22C290.462 60.6867 290.362 61.2467 290.362 61.9V62.04C290.362 63.1333 290.616 63.9533 291.122 64.5C291.642 65.0333 292.402 65.3 293.402 65.3C293.749 65.3 294.136 65.26 294.562 65.18C295.002 65.0867 295.416 64.9333 295.802 64.72C296.082 64.56 296.329 64.4933 296.542 64.52C296.756 64.5333 296.922 64.6067 297.042 64.74C297.176 64.8733 297.256 65.04 297.282 65.24C297.309 65.4267 297.269 65.62 297.162 65.82C297.069 66.02 296.902 66.1933 296.662 66.34C296.196 66.6333 295.656 66.8533 295.042 67C294.442 67.1333 293.882 67.2 293.362 67.2ZM300.662 67.16C300.249 67.16 299.929 67.0533 299.702 66.84C299.489 66.6133 299.382 66.2933 299.382 65.88V58.32C299.382 57.9067 299.489 57.5933 299.702 57.38C299.915 57.1667 300.215 57.06 300.602 57.06C300.989 57.06 301.289 57.1667 301.502 57.38C301.715 57.5933 301.822 57.9067 301.822 58.32V59.58H301.622C301.809 58.78 302.175 58.1733 302.722 57.76C303.269 57.3467 303.995 57.1 304.902 57.02C305.182 56.9933 305.402 57.0667 305.562 57.24C305.735 57.4 305.835 57.6533 305.862 58C305.889 58.3333 305.809 58.6067 305.622 58.82C305.449 59.02 305.182 59.14 304.822 59.18L304.382 59.22C303.569 59.3 302.955 59.5533 302.542 59.98C302.129 60.3933 301.922 60.98 301.922 61.74V65.88C301.922 66.2933 301.815 66.6133 301.602 66.84C301.389 67.0533 301.075 67.16 300.662 67.16ZM310.696 67.2C310.123 67.2 309.516 67.14 308.876 67.02C308.236 66.9 307.663 66.6933 307.156 66.4C306.943 66.2667 306.79 66.1133 306.696 65.94C306.616 65.7533 306.583 65.5733 306.596 65.4C306.623 65.2133 306.69 65.0533 306.796 64.92C306.916 64.7867 307.063 64.7 307.236 64.66C307.423 64.62 307.623 64.6533 307.836 64.76C308.37 65.0133 308.87 65.1933 309.336 65.3C309.803 65.3933 310.263 65.44 310.716 65.44C311.356 65.44 311.83 65.3333 312.136 65.12C312.456 64.8933 312.616 64.6 312.616 64.24C312.616 63.9333 312.51 63.7 312.296 63.54C312.096 63.3667 311.79 63.24 311.376 63.16L309.376 62.78C308.55 62.62 307.916 62.32 307.476 61.88C307.05 61.4267 306.836 60.8467 306.836 60.14C306.836 59.5 307.01 58.9467 307.356 58.48C307.716 58.0133 308.21 57.6533 308.836 57.4C309.463 57.1467 310.183 57.02 310.996 57.02C311.583 57.02 312.13 57.0867 312.636 57.22C313.156 57.34 313.656 57.5333 314.136 57.8C314.336 57.9067 314.47 58.0467 314.536 58.22C314.616 58.3933 314.636 58.5733 314.596 58.76C314.556 58.9333 314.476 59.0933 314.356 59.24C314.236 59.3733 314.083 59.46 313.896 59.5C313.723 59.5267 313.523 59.4867 313.296 59.38C312.883 59.1667 312.483 59.0133 312.096 58.92C311.723 58.8267 311.363 58.78 311.016 58.78C310.363 58.78 309.876 58.8933 309.556 59.12C309.25 59.3467 309.096 59.6467 309.096 60.02C309.096 60.3 309.19 60.5333 309.376 60.72C309.563 60.9067 309.85 61.0333 310.236 61.1L312.236 61.48C313.103 61.64 313.756 61.9333 314.196 62.36C314.65 62.7867 314.876 63.36 314.876 64.08C314.876 65.0533 314.496 65.82 313.736 66.38C312.976 66.9267 311.963 67.2 310.696 67.2ZM318.122 67.16C317.722 67.16 317.415 67.0533 317.202 66.84C316.989 66.6133 316.882 66.2933 316.882 65.88V54C316.882 53.5867 316.989 53.2733 317.202 53.06C317.415 52.8467 317.722 52.74 318.122 52.74C318.522 52.74 318.829 52.8467 319.042 53.06C319.269 53.2733 319.382 53.5867 319.382 54V59.18H319.102C319.395 58.4733 319.849 57.94 320.462 57.58C321.089 57.2067 321.795 57.02 322.582 57.02C323.369 57.02 324.015 57.1667 324.522 57.46C325.029 57.7533 325.409 58.2 325.662 58.8C325.915 59.3867 326.042 60.1333 326.042 61.04V65.88C326.042 66.2933 325.935 66.6133 325.722 66.84C325.509 67.0533 325.202 67.16 324.802 67.16C324.402 67.16 324.089 67.0533 323.862 66.84C323.649 66.6133 323.542 66.2933 323.542 65.88V61.16C323.542 60.4 323.395 59.8467 323.102 59.5C322.822 59.1533 322.382 58.98 321.782 58.98C321.049 58.98 320.462 59.2133 320.022 59.68C319.595 60.1333 319.382 60.74 319.382 61.5V65.88C319.382 66.7333 318.962 67.16 318.122 67.16ZM329.821 67.14C329.421 67.14 329.115 67.02 328.901 66.78C328.688 66.54 328.581 66.2067 328.581 65.78V58.44C328.581 58 328.688 57.6667 328.901 57.44C329.115 57.2 329.421 57.08 329.821 57.08C330.221 57.08 330.528 57.2 330.741 57.44C330.968 57.6667 331.081 58 331.081 58.44V65.78C331.081 66.2067 330.975 66.54 330.761 66.78C330.548 67.02 330.235 67.14 329.821 67.14ZM329.821 55.22C329.355 55.22 328.988 55.1067 328.721 54.88C328.468 54.64 328.341 54.3133 328.341 53.9C328.341 53.4733 328.468 53.1467 328.721 52.92C328.988 52.6933 329.355 52.58 329.821 52.58C330.301 52.58 330.668 52.6933 330.921 52.92C331.175 53.1467 331.301 53.4733 331.301 53.9C331.301 54.3133 331.175 54.64 330.921 54.88C330.668 55.1067 330.301 55.22 329.821 55.22ZM334.919 70.76C334.519 70.76 334.212 70.6533 333.999 70.44C333.786 70.2267 333.679 69.9133 333.679 69.5V58.32C333.679 57.9067 333.786 57.5933 333.999 57.38C334.212 57.1667 334.512 57.06 334.899 57.06C335.299 57.06 335.606 57.1667 335.819 57.38C336.032 57.5933 336.139 57.9067 336.139 58.32V59.88L335.919 59.28C336.119 58.6 336.526 58.0533 337.139 57.64C337.766 57.2267 338.492 57.02 339.319 57.02C340.172 57.02 340.919 57.2267 341.559 57.64C342.212 58.0533 342.719 58.64 343.079 59.4C343.439 60.1467 343.619 61.0467 343.619 62.1C343.619 63.14 343.439 64.0467 343.079 64.82C342.719 65.58 342.219 66.1667 341.579 66.58C340.939 66.9933 340.186 67.2 339.319 67.2C338.506 67.2 337.792 67 337.179 66.6C336.566 66.1867 336.152 65.6533 335.939 65H336.179V69.5C336.179 69.9133 336.066 70.2267 335.839 70.44C335.626 70.6533 335.319 70.76 334.919 70.76ZM338.619 65.3C339.112 65.3 339.546 65.18 339.919 64.94C340.292 64.7 340.579 64.3467 340.779 63.88C340.992 63.4 341.099 62.8067 341.099 62.1C341.099 61.0333 340.872 60.24 340.419 59.72C339.966 59.1867 339.366 58.92 338.619 58.92C338.126 58.92 337.692 59.04 337.319 59.28C336.946 59.5067 336.652 59.86 336.439 60.34C336.239 60.8067 336.139 61.3933 336.139 62.1C336.139 63.1533 336.366 63.9533 336.819 64.5C337.272 65.0333 337.872 65.3 338.619 65.3ZM349.251 67.2C348.678 67.2 348.071 67.14 347.431 67.02C346.791 66.9 346.218 66.6933 345.711 66.4C345.498 66.2667 345.344 66.1133 345.251 65.94C345.171 65.7533 345.138 65.5733 345.151 65.4C345.178 65.2133 345.244 65.0533 345.351 64.92C345.471 64.7867 345.618 64.7 345.791 64.66C345.978 64.62 346.178 64.6533 346.391 64.76C346.924 65.0133 347.424 65.1933 347.891 65.3C348.358 65.3933 348.818 65.44 349.271 65.44C349.911 65.44 350.384 65.3333 350.691 65.12C351.011 64.8933 351.171 64.6 351.171 64.24C351.171 63.9333 351.064 63.7 350.851 63.54C350.651 63.3667 350.344 63.24 349.931 63.16L347.931 62.78C347.104 62.62 346.471 62.32 346.031 61.88C345.604 61.4267 345.391 60.8467 345.391 60.14C345.391 59.5 345.564 58.9467 345.911 58.48C346.271 58.0133 346.764 57.6533 347.391 57.4C348.018 57.1467 348.738 57.02 349.551 57.02C350.138 57.02 350.684 57.0867 351.191 57.22C351.711 57.34 352.211 57.5333 352.691 57.8C352.891 57.9067 353.024 58.0467 353.091 58.22C353.171 58.3933 353.191 58.5733 353.151 58.76C353.111 58.9333 353.031 59.0933 352.911 59.24C352.791 59.3733 352.638 59.46 352.451 59.5C352.278 59.5267 352.078 59.4867 351.851 59.38C351.438 59.1667 351.038 59.0133 350.651 58.92C350.278 58.8267 349.918 58.78 349.571 58.78C348.918 58.78 348.431 58.8933 348.111 59.12C347.804 59.3467 347.651 59.6467 347.651 60.02C347.651 60.3 347.744 60.5333 347.931 60.72C348.118 60.9067 348.404 61.0333 348.791 61.1L350.791 61.48C351.658 61.64 352.311 61.9333 352.751 62.36C353.204 62.7867 353.431 63.36 353.431 64.08C353.431 65.0533 353.051 65.82 352.291 66.38C351.531 66.9267 350.518 67.2 349.251 67.2ZM362.226 67C361.8 67 361.486 66.9067 361.286 66.72C361.1 66.52 361.006 66.2333 361.006 65.86C361.006 65.6333 361.066 65.4133 361.186 65.2C361.306 64.9867 361.48 64.76 361.706 64.52L365.726 60.24C366.34 59.6 366.78 59.02 367.046 58.5C367.313 57.9667 367.446 57.4333 367.446 56.9C367.446 56.2333 367.233 55.7267 366.806 55.38C366.393 55.0333 365.786 54.86 364.986 54.86C364.533 54.86 364.08 54.9267 363.626 55.06C363.173 55.18 362.713 55.3933 362.246 55.7C362.006 55.86 361.78 55.9267 361.566 55.9C361.366 55.8733 361.186 55.7867 361.026 55.64C360.88 55.4933 360.78 55.3133 360.726 55.1C360.673 54.8867 360.68 54.6733 360.746 54.46C360.826 54.2333 360.986 54.04 361.226 53.88C361.8 53.4933 362.44 53.2 363.146 53C363.866 52.8 364.586 52.7 365.306 52.7C366.32 52.7 367.173 52.8533 367.866 53.16C368.56 53.4667 369.086 53.9133 369.446 54.5C369.806 55.0867 369.986 55.8 369.986 56.64C369.986 57.2 369.893 57.7467 369.706 58.28C369.533 58.8133 369.26 59.3533 368.886 59.9C368.526 60.4467 368.053 61.0267 367.466 61.64L363.706 65.56V64.88H369.586C369.946 64.88 370.22 64.9667 370.406 65.14C370.593 65.3133 370.686 65.5733 370.686 65.92C370.686 66.2667 370.593 66.5333 370.406 66.72C370.22 66.9067 369.946 67 369.586 67H362.226ZM377.559 67.2C375.892 67.2 374.619 66.5733 373.739 65.32C372.859 64.0533 372.419 62.2533 372.419 59.92C372.419 58.3467 372.612 57.0267 372.999 55.96C373.399 54.88 373.979 54.0667 374.739 53.52C375.512 52.9733 376.452 52.7 377.559 52.7C379.239 52.7 380.512 53.3133 381.379 54.54C382.259 55.7667 382.699 57.5533 382.699 59.9C382.699 61.46 382.499 62.7867 382.099 63.88C381.712 64.96 381.139 65.7867 380.379 66.36C379.619 66.92 378.679 67.2 377.559 67.2ZM377.559 65.1C378.465 65.1 379.132 64.68 379.559 63.84C379.999 63 380.219 61.6867 380.219 59.9C380.219 58.1133 379.999 56.82 379.559 56.02C379.132 55.2067 378.465 54.8 377.559 54.8C376.665 54.8 375.999 55.2067 375.559 56.02C375.119 56.82 374.899 58.1133 374.899 59.9C374.899 61.6867 375.119 63 375.559 63.84C375.999 64.68 376.665 65.1 377.559 65.1ZM386.211 67C385.784 67 385.471 66.9067 385.271 66.72C385.084 66.52 384.991 66.2333 384.991 65.86C384.991 65.6333 385.051 65.4133 385.171 65.2C385.291 64.9867 385.464 64.76 385.691 64.52L389.711 60.24C390.324 59.6 390.764 59.02 391.031 58.5C391.297 57.9667 391.431 57.4333 391.431 56.9C391.431 56.2333 391.217 55.7267 390.791 55.38C390.377 55.0333 389.771 54.86 388.971 54.86C388.517 54.86 388.064 54.9267 387.611 55.06C387.157 55.18 386.697 55.3933 386.231 55.7C385.991 55.86 385.764 55.9267 385.551 55.9C385.351 55.8733 385.171 55.7867 385.011 55.64C384.864 55.4933 384.764 55.3133 384.711 55.1C384.657 54.8867 384.664 54.6733 384.731 54.46C384.811 54.2333 384.971 54.04 385.211 53.88C385.784 53.4933 386.424 53.2 387.131 53C387.851 52.8 388.571 52.7 389.291 52.7C390.304 52.7 391.157 52.8533 391.851 53.16C392.544 53.4667 393.071 53.9133 393.431 54.5C393.791 55.0867 393.971 55.8 393.971 56.64C393.971 57.2 393.877 57.7467 393.691 58.28C393.517 58.8133 393.244 59.3533 392.871 59.9C392.511 60.4467 392.037 61.0267 391.451 61.64L387.691 65.56V64.88H393.571C393.931 64.88 394.204 64.9667 394.391 65.14C394.577 65.3133 394.671 65.5733 394.671 65.92C394.671 66.2667 394.577 66.5333 394.391 66.72C394.204 66.9067 393.931 67 393.571 67H386.211ZM401.263 67.2C400.543 67.2 399.796 67.1067 399.023 66.92C398.25 66.7333 397.576 66.4533 397.003 66.08C396.736 65.9067 396.556 65.7067 396.463 65.48C396.37 65.2533 396.343 65.04 396.383 64.84C396.436 64.6267 396.536 64.4467 396.683 64.3C396.843 64.1533 397.036 64.0667 397.263 64.04C397.503 64.0133 397.763 64.0733 398.043 64.22C398.59 64.5133 399.116 64.7267 399.623 64.86C400.13 64.98 400.65 65.04 401.183 65.04C401.77 65.04 402.263 64.96 402.663 64.8C403.063 64.64 403.363 64.4 403.563 64.08C403.776 63.76 403.883 63.3733 403.883 62.92C403.883 62.2533 403.656 61.76 403.203 61.44C402.763 61.1067 402.116 60.94 401.263 60.94H399.983C399.61 60.94 399.323 60.8467 399.123 60.66C398.936 60.4733 398.843 60.2133 398.843 59.88C398.843 59.5467 398.936 59.2867 399.123 59.1C399.323 58.9133 399.61 58.82 399.983 58.82H401.023C401.53 58.82 401.963 58.74 402.323 58.58C402.683 58.4067 402.963 58.1667 403.163 57.86C403.363 57.5533 403.463 57.18 403.463 56.74C403.463 56.1267 403.256 55.66 402.843 55.34C402.443 55.02 401.856 54.86 401.083 54.86C400.59 54.86 400.123 54.92 399.683 55.04C399.256 55.1467 398.783 55.3533 398.263 55.66C398.023 55.8067 397.79 55.8667 397.563 55.84C397.35 55.8133 397.17 55.7267 397.023 55.58C396.876 55.4333 396.776 55.26 396.723 55.06C396.67 54.8467 396.683 54.6333 396.763 54.42C396.843 54.1933 397.01 54 397.263 53.84C397.836 53.4667 398.47 53.1867 399.163 53C399.856 52.8 400.57 52.7 401.303 52.7C402.276 52.7 403.11 52.8533 403.803 53.16C404.496 53.4533 405.023 53.88 405.383 54.44C405.756 54.9867 405.943 55.6533 405.943 56.44C405.943 57 405.836 57.5133 405.623 57.98C405.41 58.4333 405.11 58.82 404.723 59.14C404.336 59.46 403.87 59.6867 403.323 59.82V59.58C404.283 59.74 405.03 60.14 405.563 60.78C406.096 61.4067 406.363 62.1933 406.363 63.14C406.363 63.9667 406.156 64.6867 405.743 65.3C405.33 65.9133 404.743 66.3867 403.983 66.72C403.223 67.04 402.316 67.2 401.263 67.2Z" fill="#4666FF"/>
<path d="M231.48 91C231.288 91 231.139 90.952 231.032 90.856C230.925 90.7493 230.872 90.6053 230.872 90.424C230.872 90.2427 230.925 90.1093 231.032 90.024C231.139 89.928 231.288 89.88 231.48 89.88H233.56V80.808H234.248L231.928 82.344C231.789 82.4187 231.656 82.4507 231.528 82.44C231.411 82.4293 231.309 82.3867 231.224 82.312C231.149 82.2267 231.096 82.1307 231.064 82.024C231.032 81.9067 231.037 81.7893 231.08 81.672C231.123 81.544 231.213 81.4373 231.352 81.352L233.56 79.896C233.699 79.8107 233.832 79.7413 233.96 79.688C234.088 79.6347 234.216 79.608 234.344 79.608C234.493 79.608 234.616 79.656 234.712 79.752C234.819 79.8373 234.872 79.976 234.872 80.168V89.88H236.792C236.984 89.88 237.133 89.928 237.24 90.024C237.347 90.1093 237.4 90.2427 237.4 90.424C237.4 90.616 237.347 90.76 237.24 90.856C237.133 90.952 236.984 91 236.792 91H231.48ZM240.658 91C240.423 91 240.247 90.9467 240.13 90.84C240.023 90.7227 239.97 90.568 239.97 90.376C239.97 90.2587 239.996 90.1467 240.05 90.04C240.114 89.9227 240.199 89.8053 240.306 89.688L243.89 85.848C244.434 85.2613 244.823 84.7227 245.058 84.232C245.303 83.7307 245.426 83.224 245.426 82.712C245.426 82.072 245.228 81.5867 244.834 81.256C244.45 80.9147 243.884 80.744 243.138 80.744C242.658 80.744 242.204 80.8187 241.778 80.968C241.351 81.1173 240.94 81.3467 240.546 81.656C240.407 81.7627 240.279 81.8107 240.162 81.8C240.055 81.7893 239.959 81.7467 239.874 81.672C239.788 81.5973 239.73 81.5013 239.698 81.384C239.666 81.2667 239.666 81.1493 239.698 81.032C239.74 80.9147 239.826 80.808 239.954 80.712C240.37 80.3707 240.871 80.0987 241.458 79.896C242.044 79.6827 242.642 79.576 243.25 79.576C244.007 79.576 244.647 79.6933 245.17 79.928C245.692 80.1627 246.087 80.5093 246.354 80.968C246.62 81.416 246.754 81.9653 246.754 82.616C246.754 83.064 246.679 83.5067 246.53 83.944C246.391 84.3707 246.172 84.808 245.874 85.256C245.586 85.704 245.207 86.168 244.738 86.648L241.33 90.248V89.88H246.722C246.924 89.88 247.074 89.928 247.17 90.024C247.276 90.1093 247.33 90.2427 247.33 90.424C247.33 90.616 247.276 90.76 247.17 90.856C247.074 90.952 246.924 91 246.722 91H240.658ZM254.876 91.112C254.673 91.112 254.513 91.0533 254.396 90.936C254.278 90.8187 254.22 90.6533 254.22 90.44V88.584H249.628C249.414 88.584 249.244 88.536 249.116 88.44C248.998 88.3333 248.94 88.184 248.94 87.992C248.94 87.8747 248.966 87.7573 249.02 87.64C249.073 87.512 249.169 87.352 249.308 87.16L254.188 80.056C254.284 79.9067 254.39 79.7947 254.508 79.72C254.625 79.6453 254.764 79.608 254.924 79.608C255.094 79.608 255.238 79.6613 255.356 79.768C255.484 79.8747 255.548 80.0453 255.548 80.28V87.464H256.716C256.918 87.464 257.073 87.512 257.18 87.608C257.286 87.704 257.34 87.8427 257.34 88.024C257.34 88.2053 257.286 88.344 257.18 88.44C257.073 88.536 256.918 88.584 256.716 88.584H255.548V90.44C255.548 90.6533 255.489 90.8187 255.372 90.936C255.254 91.0533 255.089 91.112 254.876 91.112ZM254.22 87.464V81.256H254.604L250.124 87.816V87.464H254.22ZM266.418 91.144C265.64 91.144 264.968 90.9733 264.402 90.632C263.837 90.2907 263.4 89.816 263.09 89.208C262.792 88.5893 262.642 87.8747 262.642 87.064C262.642 86.4453 262.728 85.8907 262.898 85.4C263.069 84.9093 263.32 84.4933 263.65 84.152C263.981 83.8 264.376 83.5333 264.834 83.352C265.304 83.1707 265.832 83.08 266.418 83.08C266.802 83.08 267.202 83.1387 267.618 83.256C268.034 83.3733 268.413 83.576 268.754 83.864C268.861 83.9387 268.93 84.0293 268.962 84.136C268.994 84.2427 268.994 84.3493 268.962 84.456C268.93 84.552 268.877 84.6373 268.802 84.712C268.728 84.776 268.632 84.8133 268.514 84.824C268.408 84.8347 268.296 84.7973 268.178 84.712C267.901 84.4987 267.618 84.3493 267.33 84.264C267.042 84.1787 266.765 84.136 266.498 84.136C266.082 84.136 265.72 84.2053 265.41 84.344C265.101 84.472 264.84 84.6587 264.626 84.904C264.413 85.1493 264.248 85.4533 264.13 85.816C264.024 86.1787 263.97 86.6 263.97 87.08C263.97 88.008 264.189 88.744 264.626 89.288C265.064 89.8213 265.688 90.088 266.498 90.088C266.765 90.088 267.037 90.0453 267.314 89.96C267.602 89.8747 267.89 89.7253 268.178 89.512C268.296 89.4267 268.408 89.3893 268.514 89.4C268.621 89.4107 268.712 89.4533 268.786 89.528C268.861 89.592 268.909 89.6773 268.93 89.784C268.962 89.8907 268.962 89.9973 268.93 90.104C268.898 90.2 268.829 90.2853 268.722 90.36C268.381 90.6373 268.008 90.84 267.602 90.968C267.197 91.0853 266.802 91.144 266.418 91.144ZM273.604 91.144C272.847 91.144 272.191 90.9787 271.636 90.648C271.082 90.3173 270.65 89.8533 270.34 89.256C270.042 88.648 269.892 87.9333 269.892 87.112C269.892 86.4933 269.978 85.9387 270.148 85.448C270.319 84.9467 270.57 84.52 270.9 84.168C271.231 83.816 271.62 83.5493 272.068 83.368C272.527 83.176 273.039 83.08 273.604 83.08C274.362 83.08 275.018 83.2453 275.572 83.576C276.127 83.9067 276.554 84.376 276.852 84.984C277.162 85.5813 277.316 86.2907 277.316 87.112C277.316 87.7307 277.231 88.2853 277.06 88.776C276.89 89.2667 276.639 89.6933 276.308 90.056C275.978 90.408 275.583 90.68 275.124 90.872C274.676 91.0533 274.17 91.144 273.604 91.144ZM273.604 90.104C274.084 90.104 274.506 89.9867 274.868 89.752C275.231 89.5173 275.508 89.176 275.7 88.728C275.903 88.28 276.004 87.7413 276.004 87.112C276.004 86.1413 275.786 85.4 275.348 84.888C274.922 84.376 274.34 84.12 273.604 84.12C273.114 84.12 272.687 84.2373 272.324 84.472C271.972 84.696 271.695 85.032 271.492 85.48C271.3 85.9173 271.204 86.4613 271.204 87.112C271.204 88.072 271.423 88.8133 271.86 89.336C272.298 89.848 272.879 90.104 273.604 90.104ZM279.935 91.112C279.722 91.112 279.562 91.0533 279.455 90.936C279.348 90.8187 279.295 90.6533 279.295 90.44V83.768C279.295 83.5547 279.348 83.3947 279.455 83.288C279.562 83.1707 279.716 83.112 279.919 83.112C280.122 83.112 280.276 83.1707 280.383 83.288C280.5 83.3947 280.559 83.5547 280.559 83.768V85.176L280.383 84.952C280.586 84.3547 280.911 83.896 281.359 83.576C281.818 83.2453 282.362 83.08 282.991 83.08C283.652 83.08 284.186 83.24 284.591 83.56C285.007 83.8693 285.284 84.3547 285.423 85.016H285.183C285.375 84.4187 285.716 83.9493 286.207 83.608C286.708 83.256 287.29 83.08 287.951 83.08C288.538 83.08 289.018 83.192 289.391 83.416C289.775 83.64 290.063 83.9813 290.255 84.44C290.447 84.888 290.543 85.4587 290.543 86.152V90.44C290.543 90.6533 290.484 90.8187 290.367 90.936C290.26 91.0533 290.1 91.112 289.887 91.112C289.684 91.112 289.524 91.0533 289.407 90.936C289.3 90.8187 289.247 90.6533 289.247 90.44V86.216C289.247 85.5013 289.124 84.9787 288.879 84.648C288.634 84.3067 288.218 84.136 287.631 84.136C286.991 84.136 286.484 84.36 286.111 84.808C285.748 85.2453 285.567 85.8427 285.567 86.6V90.44C285.567 90.6533 285.508 90.8187 285.391 90.936C285.284 91.0533 285.124 91.112 284.911 91.112C284.708 91.112 284.548 91.0533 284.431 90.936C284.324 90.8187 284.271 90.6533 284.271 90.44V86.216C284.271 85.5013 284.143 84.9787 283.887 84.648C283.642 84.3067 283.231 84.136 282.655 84.136C282.015 84.136 281.508 84.36 281.135 84.808C280.772 85.2453 280.591 85.8427 280.591 86.6V90.44C280.591 90.888 280.372 91.112 279.935 91.112ZM293.638 91.112C293.425 91.112 293.265 91.0533 293.158 90.936C293.051 90.8187 292.998 90.6533 292.998 90.44V83.768C292.998 83.5547 293.051 83.3947 293.158 83.288C293.265 83.1707 293.419 83.112 293.622 83.112C293.825 83.112 293.979 83.1707 294.086 83.288C294.203 83.3947 294.262 83.5547 294.262 83.768V85.176L294.086 84.952C294.289 84.3547 294.614 83.896 295.062 83.576C295.521 83.2453 296.065 83.08 296.694 83.08C297.355 83.08 297.889 83.24 298.294 83.56C298.71 83.8693 298.987 84.3547 299.126 85.016H298.886C299.078 84.4187 299.419 83.9493 299.91 83.608C300.411 83.256 300.993 83.08 301.654 83.08C302.241 83.08 302.721 83.192 303.094 83.416C303.478 83.64 303.766 83.9813 303.958 84.44C304.15 84.888 304.246 85.4587 304.246 86.152V90.44C304.246 90.6533 304.187 90.8187 304.07 90.936C303.963 91.0533 303.803 91.112 303.59 91.112C303.387 91.112 303.227 91.0533 303.11 90.936C303.003 90.8187 302.95 90.6533 302.95 90.44V86.216C302.95 85.5013 302.827 84.9787 302.582 84.648C302.337 84.3067 301.921 84.136 301.334 84.136C300.694 84.136 300.187 84.36 299.814 84.808C299.451 85.2453 299.27 85.8427 299.27 86.6V90.44C299.27 90.6533 299.211 90.8187 299.094 90.936C298.987 91.0533 298.827 91.112 298.614 91.112C298.411 91.112 298.251 91.0533 298.134 90.936C298.027 90.8187 297.974 90.6533 297.974 90.44V86.216C297.974 85.5013 297.846 84.9787 297.59 84.648C297.345 84.3067 296.934 84.136 296.358 84.136C295.718 84.136 295.211 84.36 294.838 84.808C294.475 85.2453 294.294 85.8427 294.294 86.6V90.44C294.294 90.888 294.075 91.112 293.638 91.112ZM310.173 91.144C309.352 91.144 308.642 90.984 308.045 90.664C307.458 90.3333 307 89.8693 306.669 89.272C306.349 88.6747 306.189 87.96 306.189 87.128C306.189 86.3173 306.349 85.6133 306.669 85.016C306.989 84.408 307.426 83.9333 307.981 83.592C308.546 83.2507 309.197 83.08 309.933 83.08C310.456 83.08 310.925 83.1707 311.341 83.352C311.757 83.5227 312.109 83.7733 312.397 84.104C312.696 84.4347 312.92 84.8347 313.069 85.304C313.229 85.7733 313.309 86.3013 313.309 86.888C313.309 87.0587 313.261 87.1867 313.165 87.272C313.069 87.3467 312.93 87.384 312.749 87.384H307.181V86.536H312.445L312.189 86.744C312.189 86.168 312.104 85.6827 311.933 85.288C311.762 84.8827 311.512 84.5733 311.181 84.36C310.861 84.1467 310.456 84.04 309.965 84.04C309.421 84.04 308.957 84.168 308.573 84.424C308.2 84.6693 307.917 85.016 307.725 85.464C307.533 85.9013 307.437 86.4133 307.437 87V87.096C307.437 88.0773 307.672 88.824 308.141 89.336C308.621 89.848 309.298 90.104 310.173 90.104C310.536 90.104 310.893 90.056 311.245 89.96C311.608 89.864 311.96 89.704 312.301 89.48C312.45 89.384 312.584 89.3413 312.701 89.352C312.829 89.352 312.93 89.3893 313.005 89.464C313.08 89.528 313.128 89.6133 313.149 89.72C313.181 89.816 313.17 89.9227 313.117 90.04C313.074 90.1573 312.984 90.2587 312.845 90.344C312.493 90.6 312.077 90.7973 311.597 90.936C311.117 91.0747 310.642 91.144 310.173 91.144ZM315.825 91.112C315.611 91.112 315.451 91.0533 315.345 90.936C315.238 90.8187 315.185 90.6533 315.185 90.44V83.768C315.185 83.5547 315.238 83.3947 315.345 83.288C315.451 83.1707 315.606 83.112 315.809 83.112C316.011 83.112 316.166 83.1707 316.273 83.288C316.39 83.3947 316.449 83.5547 316.449 83.768V85.144L316.273 84.952C316.497 84.3333 316.859 83.8693 317.361 83.56C317.873 83.24 318.459 83.08 319.121 83.08C319.739 83.08 320.251 83.192 320.657 83.416C321.073 83.64 321.382 83.9813 321.585 84.44C321.787 84.888 321.889 85.4587 321.889 86.152V90.44C321.889 90.6533 321.83 90.8187 321.713 90.936C321.606 91.0533 321.451 91.112 321.249 91.112C321.035 91.112 320.87 91.0533 320.753 90.936C320.646 90.8187 320.593 90.6533 320.593 90.44V86.232C320.593 85.5067 320.449 84.9787 320.161 84.648C319.883 84.3067 319.435 84.136 318.817 84.136C318.102 84.136 317.531 84.36 317.105 84.808C316.689 85.2453 316.481 85.832 316.481 86.568V90.44C316.481 90.888 316.262 91.112 315.825 91.112ZM327.399 91.144C326.791 91.144 326.279 91.0373 325.863 90.824C325.457 90.6 325.153 90.28 324.951 89.864C324.748 89.4373 324.647 88.92 324.647 88.312V84.232H323.575C323.393 84.232 323.255 84.1893 323.159 84.104C323.062 84.008 323.014 83.88 323.014 83.72C323.014 83.56 323.062 83.4373 323.159 83.352C323.255 83.2667 323.393 83.224 323.575 83.224H324.647V81.384C324.647 81.1707 324.705 81.0107 324.823 80.904C324.94 80.7867 325.1 80.728 325.303 80.728C325.505 80.728 325.66 80.7867 325.767 80.904C325.884 81.0107 325.943 81.1707 325.943 81.384V83.224H327.959C328.14 83.224 328.279 83.2667 328.375 83.352C328.471 83.4373 328.519 83.56 328.519 83.72C328.519 83.88 328.471 84.008 328.375 84.104C328.279 84.1893 328.14 84.232 327.959 84.232H325.943V88.184C325.943 88.792 326.071 89.256 326.327 89.576C326.583 89.8853 326.999 90.04 327.575 90.04C327.777 90.04 327.948 90.0187 328.087 89.976C328.236 89.9333 328.359 89.912 328.455 89.912C328.551 89.9013 328.631 89.9333 328.695 90.008C328.759 90.0827 328.791 90.2107 328.791 90.392C328.791 90.52 328.764 90.6373 328.711 90.744C328.668 90.8507 328.588 90.9253 328.471 90.968C328.343 91.0107 328.172 91.048 327.959 91.08C327.756 91.1227 327.569 91.144 327.399 91.144ZM332.496 91.144C332.016 91.144 331.531 91.0853 331.04 90.968C330.56 90.8507 330.112 90.648 329.696 90.36C329.59 90.2853 329.515 90.2 329.472 90.104C329.43 89.9973 329.414 89.896 329.424 89.8C329.446 89.6933 329.488 89.6027 329.552 89.528C329.627 89.4533 329.712 89.4107 329.808 89.4C329.915 89.3787 330.032 89.4 330.16 89.464C330.576 89.72 330.976 89.9013 331.36 90.008C331.755 90.104 332.144 90.152 332.528 90.152C333.136 90.152 333.595 90.04 333.904 89.816C334.214 89.592 334.368 89.288 334.368 88.904C334.368 88.6053 334.267 88.3707 334.064 88.2C333.862 88.0187 333.542 87.88 333.104 87.784L331.648 87.464C330.976 87.3253 330.475 87.0853 330.144 86.744C329.824 86.4027 329.664 85.96 329.664 85.416C329.664 84.936 329.787 84.5253 330.032 84.184C330.288 83.832 330.646 83.56 331.104 83.368C331.563 83.176 332.096 83.08 332.704 83.08C333.174 83.08 333.616 83.144 334.032 83.272C334.459 83.3893 334.843 83.5813 335.184 83.848C335.291 83.9227 335.36 84.0133 335.392 84.12C335.435 84.216 335.44 84.3173 335.408 84.424C335.387 84.52 335.339 84.6053 335.264 84.68C335.19 84.744 335.099 84.7813 334.992 84.792C334.886 84.8027 334.774 84.7707 334.656 84.696C334.336 84.4827 334.011 84.328 333.68 84.232C333.35 84.1253 333.024 84.072 332.704 84.072C332.107 84.072 331.654 84.1893 331.344 84.424C331.035 84.6587 330.88 84.968 330.88 85.352C330.88 85.6507 330.976 85.896 331.168 86.088C331.36 86.28 331.659 86.4187 332.064 86.504L333.52 86.808C334.214 86.9573 334.731 87.1973 335.072 87.528C335.424 87.848 335.6 88.2853 335.6 88.84C335.6 89.544 335.318 90.104 334.752 90.52C334.187 90.936 333.435 91.144 332.496 91.144Z" fill="#9CA3AF"/>
</g>
<defs>
<filter id="filter0_dddd_1833_76690" x="0" y="0" width="654" height="764" filterUnits="userSpaceOnUse" color-interpolation-filters="sRGB">
<feFlood flood-opacity="0" result="BackgroundImageFix"/>
<feColorMatrix in="SourceAlpha" type="matrix" values="0 0 0 0 0 0 0 0 0 0 0 0 0 0 0 0 0 0 127 0" result="hardAlpha"/>
<feOffset dy="29"/>
<feGaussianBlur stdDeviation="32"/>
<feColorMatrix type="matrix" values="0 0 0 0 0 0 0 0 0 0 0 0 0 0 0 0 0 0 0.1 0"/>
<feBlend mode="normal" in2="BackgroundImageFix" result="effect1_dropShadow_1833_76690"/>
<feColorMatrix in="SourceAlpha" type="matrix" values="0 0 0 0 0 0 0 0 0 0 0 0 0 0 0 0 0 0 127 0" result="hardAlpha"/>
<feOffset dy="117"/>
<feGaussianBlur stdDeviation="58.5"/>
<feColorMatrix type="matrix" values="0 0 0 0 0 0 0 0 0 0 0 0 0 0 0 0 0 0 0.09 0"/>
<feBlend mode="normal" in2="effect1_dropShadow_1833_76690" result="effect2_dropShadow_1833_76690"/>
<feColorMatrix in="SourceAlpha" type="matrix" values="0 0 0 0 0 0 0 0 0 0 0 0 0 0 0 0 0 0 127 0" result="hardAlpha"/>
<feOffset dy="262"/>
<feGaussianBlur stdDeviation="78.5"/>
<feColorMatrix type="matrix" values="0 0 0 0 0 0 0 0 0 0 0 0 0 0 0 0 0 0 0.05 0"/>
<feBlend mode="normal" in2="effect2_dropShadow_1833_76690" result="effect3_dropShadow_1833_76690"/>
<feColorMatrix in="SourceAlpha" type="matrix" values="0 0 0 0 0 0 0 0 0 0 0 0 0 0 0 0 0 0 127 0" result="hardAlpha"/>
<feOffset dy="466"/>
<feGaussianBlur stdDeviation="93.5"/>
<feColorMatrix type="matrix" values="0 0 0 0 0 0 0 0 0 0 0 0 0 0 0 0 0 0 0.01 0"/>
<feBlend mode="normal" in2="effect3_dropShadow_1833_76690" result="effect4_dropShadow_1833_76690"/>
<feBlend mode="normal" in="SourceGraphic" in2="effect4_dropShadow_1833_76690" result="shape"/>
</filter>
</defs>
</svg>
