<svg width="648" height="764" viewBox="0 0 648 764" fill="none" xmlns="http://www.w3.org/2000/svg">
<g filter="url(#filter0_dddd_1833_76686)">
<rect x="187" y="35" width="274" height="76" rx="36" fill="white"/>
<path d="M233.4 67.2C232.427 67.2 231.567 67.0733 230.82 66.82C230.087 66.5667 229.467 66.1933 228.96 65.7C228.453 65.1933 228.073 64.5667 227.82 63.82C227.567 63.0733 227.44 62.2067 227.44 61.22V54.04C227.44 53.6 227.547 53.2733 227.76 53.06C227.987 52.8467 228.307 52.74 228.72 52.74C229.133 52.74 229.447 52.8467 229.66 53.06C229.887 53.2733 230 53.6 230 54.04V61.2C230 62.4667 230.287 63.42 230.86 64.06C231.447 64.6867 232.293 65 233.4 65C234.507 65 235.347 64.6867 235.92 64.06C236.493 63.42 236.78 62.4667 236.78 61.2V54.04C236.78 53.6 236.887 53.2733 237.1 53.06C237.327 52.8467 237.647 52.74 238.06 52.74C238.46 52.74 238.767 52.8467 238.98 53.06C239.207 53.2733 239.32 53.6 239.32 54.04V61.22C239.32 62.5267 239.093 63.6267 238.64 64.52C238.2 65.4133 237.54 66.0867 236.66 66.54C235.78 66.98 234.693 67.2 233.4 67.2ZM243.586 67.16C243.172 67.16 242.852 67.0467 242.626 66.82C242.412 66.58 242.306 66.2533 242.306 65.84V54.06C242.306 53.6333 242.412 53.3067 242.626 53.08C242.852 52.8533 243.172 52.74 243.586 52.74C243.999 52.74 244.312 52.8533 244.526 53.08C244.752 53.3067 244.866 53.6333 244.866 54.06V65.84C244.866 66.2533 244.759 66.58 244.546 66.82C244.332 67.0467 244.012 67.16 243.586 67.16ZM259.24 67.2C258.267 67.2 257.407 67.0733 256.66 66.82C255.927 66.5667 255.307 66.1933 254.8 65.7C254.293 65.1933 253.913 64.5667 253.66 63.82C253.407 63.0733 253.28 62.2067 253.28 61.22V54.04C253.28 53.6 253.387 53.2733 253.6 53.06C253.827 52.8467 254.147 52.74 254.56 52.74C254.973 52.74 255.287 52.8467 255.5 53.06C255.727 53.2733 255.84 53.6 255.84 54.04V61.2C255.84 62.4667 256.127 63.42 256.7 64.06C257.287 64.6867 258.133 65 259.24 65C260.347 65 261.187 64.6867 261.76 64.06C262.333 63.42 262.62 62.4667 262.62 61.2V54.04C262.62 53.6 262.727 53.2733 262.94 53.06C263.167 52.8467 263.487 52.74 263.9 52.74C264.3 52.74 264.607 52.8467 264.82 53.06C265.047 53.2733 265.16 53.6 265.16 54.04V61.22C265.16 62.5267 264.933 63.6267 264.48 64.52C264.04 65.4133 263.38 66.0867 262.5 66.54C261.62 66.98 260.533 67.2 259.24 67.2ZM268.469 67.16C268.136 67.16 267.863 67.0733 267.649 66.9C267.436 66.7133 267.309 66.4867 267.269 66.22C267.243 65.94 267.336 65.66 267.549 65.38L272.129 59.28V60.38L267.769 54.54C267.556 54.2467 267.463 53.9667 267.489 53.7C267.516 53.42 267.636 53.1933 267.849 53.02C268.063 52.8333 268.329 52.74 268.649 52.74C268.916 52.74 269.149 52.8067 269.349 52.94C269.563 53.06 269.776 53.2667 269.989 53.56L273.589 58.52H272.769L276.349 53.56C276.563 53.2667 276.769 53.06 276.969 52.94C277.183 52.8067 277.429 52.74 277.709 52.74C278.043 52.74 278.316 52.8267 278.529 53C278.743 53.1733 278.863 53.4 278.889 53.68C278.916 53.9467 278.816 54.2333 278.589 54.54L274.229 60.38V59.28L278.789 65.38C279.003 65.66 279.096 65.94 279.069 66.22C279.043 66.4867 278.923 66.7133 278.709 66.9C278.496 67.0733 278.216 67.16 277.869 67.16C277.616 67.16 277.383 67.0933 277.169 66.96C276.969 66.8267 276.756 66.6133 276.529 66.32L272.729 61.12H273.609L269.829 66.32C269.616 66.6133 269.403 66.8267 269.189 66.96C268.976 67.0933 268.736 67.16 268.469 67.16ZM288.216 67C287.776 67 287.436 66.8867 287.196 66.66C286.97 66.42 286.856 66.08 286.856 65.64V54.26C286.856 53.82 286.97 53.4867 287.196 53.26C287.436 53.02 287.776 52.9 288.216 52.9H293.016C294.003 52.9 294.843 53.0467 295.536 53.34C296.23 53.6333 296.756 54.0533 297.116 54.6C297.49 55.1467 297.676 55.8 297.676 56.56C297.676 57.4133 297.43 58.1333 296.936 58.72C296.443 59.3067 295.77 59.7 294.916 59.9V59.6C295.903 59.7467 296.67 60.12 297.216 60.72C297.763 61.32 298.036 62.1 298.036 63.06C298.036 64.3133 297.61 65.2867 296.756 65.98C295.916 66.66 294.743 67 293.236 67H288.216ZM289.316 65.06H292.916C293.823 65.06 294.49 64.8867 294.916 64.54C295.343 64.18 295.556 63.6467 295.556 62.94C295.556 62.22 295.343 61.6867 294.916 61.34C294.49 60.9933 293.823 60.82 292.916 60.82H289.316V65.06ZM289.316 58.88H292.576C293.456 58.88 294.11 58.7133 294.536 58.38C294.976 58.0333 295.196 57.5267 295.196 56.86C295.196 56.1933 294.976 55.6933 294.536 55.36C294.11 55.0133 293.456 54.84 292.576 54.84H289.316V58.88ZM305.206 67.2C304.099 67.2 303.146 66.9933 302.346 66.58C301.546 66.1667 300.926 65.58 300.486 64.82C300.059 64.06 299.846 63.16 299.846 62.12C299.846 61.1067 300.053 60.22 300.466 59.46C300.893 58.7 301.473 58.1067 302.206 57.68C302.953 57.24 303.799 57.02 304.746 57.02C305.439 57.02 306.059 57.1333 306.606 57.36C307.166 57.5867 307.639 57.9133 308.026 58.34C308.426 58.7667 308.726 59.2867 308.926 59.9C309.139 60.5 309.246 61.18 309.246 61.94C309.246 62.18 309.159 62.3667 308.986 62.5C308.826 62.62 308.593 62.68 308.286 62.68H301.866V61.24H307.486L307.166 61.54C307.166 60.9267 307.073 60.4133 306.886 60C306.713 59.5867 306.453 59.2733 306.106 59.06C305.773 58.8333 305.353 58.72 304.846 58.72C304.286 58.72 303.806 58.8533 303.406 59.12C303.019 59.3733 302.719 59.74 302.506 60.22C302.306 60.6867 302.206 61.2467 302.206 61.9V62.04C302.206 63.1333 302.459 63.9533 302.966 64.5C303.486 65.0333 304.246 65.3 305.246 65.3C305.593 65.3 305.979 65.26 306.406 65.18C306.846 65.0867 307.259 64.9333 307.646 64.72C307.926 64.56 308.173 64.4933 308.386 64.52C308.599 64.5333 308.766 64.6067 308.886 64.74C309.019 64.8733 309.099 65.04 309.126 65.24C309.153 65.4267 309.113 65.62 309.006 65.82C308.913 66.02 308.746 66.1933 308.506 66.34C308.039 66.6333 307.499 66.8533 306.886 67C306.286 67.1333 305.726 67.2 305.206 67.2ZM314.806 67.2C314.232 67.2 313.626 67.14 312.986 67.02C312.346 66.9 311.772 66.6933 311.266 66.4C311.052 66.2667 310.899 66.1133 310.806 65.94C310.726 65.7533 310.692 65.5733 310.706 65.4C310.732 65.2133 310.799 65.0533 310.906 64.92C311.026 64.7867 311.172 64.7 311.346 64.66C311.532 64.62 311.732 64.6533 311.946 64.76C312.479 65.0133 312.979 65.1933 313.446 65.3C313.912 65.3933 314.372 65.44 314.826 65.44C315.466 65.44 315.939 65.3333 316.246 65.12C316.566 64.8933 316.726 64.6 316.726 64.24C316.726 63.9333 316.619 63.7 316.406 63.54C316.206 63.3667 315.899 63.24 315.486 63.16L313.486 62.78C312.659 62.62 312.026 62.32 311.586 61.88C311.159 61.4267 310.946 60.8467 310.946 60.14C310.946 59.5 311.119 58.9467 311.466 58.48C311.826 58.0133 312.319 57.6533 312.946 57.4C313.572 57.1467 314.292 57.02 315.106 57.02C315.692 57.02 316.239 57.0867 316.746 57.22C317.266 57.34 317.766 57.5333 318.246 57.8C318.446 57.9067 318.579 58.0467 318.646 58.22C318.726 58.3933 318.746 58.5733 318.706 58.76C318.666 58.9333 318.586 59.0933 318.466 59.24C318.346 59.3733 318.192 59.46 318.006 59.5C317.832 59.5267 317.632 59.4867 317.406 59.38C316.992 59.1667 316.592 59.0133 316.206 58.92C315.832 58.8267 315.472 58.78 315.126 58.78C314.472 58.78 313.986 58.8933 313.666 59.12C313.359 59.3467 313.206 59.6467 313.206 60.02C313.206 60.3 313.299 60.5333 313.486 60.72C313.672 60.9067 313.959 61.0333 314.346 61.1L316.346 61.48C317.212 61.64 317.866 61.9333 318.306 62.36C318.759 62.7867 318.986 63.36 318.986 64.08C318.986 65.0533 318.606 65.82 317.846 66.38C317.086 66.9267 316.072 67.2 314.806 67.2ZM325.374 67.2C324.507 67.2 323.78 67.0533 323.194 66.76C322.62 66.4667 322.194 66.04 321.914 65.48C321.634 64.9067 321.494 64.2 321.494 63.36V59.1H320.454C320.134 59.1 319.887 59.02 319.714 58.86C319.54 58.6867 319.454 58.4533 319.454 58.16C319.454 57.8533 319.54 57.62 319.714 57.46C319.887 57.3 320.134 57.22 320.454 57.22H321.494V55.4C321.494 54.9867 321.6 54.6733 321.814 54.46C322.04 54.2467 322.354 54.14 322.754 54.14C323.154 54.14 323.46 54.2467 323.674 54.46C323.887 54.6733 323.994 54.9867 323.994 55.4V57.22H326.114C326.434 57.22 326.68 57.3 326.854 57.46C327.027 57.62 327.114 57.8533 327.114 58.16C327.114 58.4533 327.027 58.6867 326.854 58.86C326.68 59.02 326.434 59.1 326.114 59.1H323.994V63.22C323.994 63.86 324.134 64.34 324.414 64.66C324.694 64.98 325.147 65.14 325.774 65.14C326 65.14 326.2 65.12 326.374 65.08C326.547 65.04 326.7 65.0133 326.834 65C326.994 64.9867 327.127 65.04 327.234 65.16C327.34 65.2667 327.394 65.4933 327.394 65.84C327.394 66.1067 327.347 66.3467 327.254 66.56C327.174 66.76 327.02 66.9 326.794 66.98C326.62 67.0333 326.394 67.08 326.114 67.12C325.834 67.1733 325.587 67.2 325.374 67.2ZM335.239 70.76C334.839 70.76 334.533 70.6533 334.319 70.44C334.106 70.2267 333.999 69.9133 333.999 69.5V58.32C333.999 57.9067 334.106 57.5933 334.319 57.38C334.533 57.1667 334.833 57.06 335.219 57.06C335.619 57.06 335.926 57.1667 336.139 57.38C336.353 57.5933 336.459 57.9067 336.459 58.32V59.88L336.239 59.28C336.439 58.6 336.846 58.0533 337.459 57.64C338.086 57.2267 338.813 57.02 339.639 57.02C340.493 57.02 341.239 57.2267 341.879 57.64C342.533 58.0533 343.039 58.64 343.399 59.4C343.759 60.1467 343.939 61.0467 343.939 62.1C343.939 63.14 343.759 64.0467 343.399 64.82C343.039 65.58 342.539 66.1667 341.899 66.58C341.259 66.9933 340.506 67.2 339.639 67.2C338.826 67.2 338.113 67 337.499 66.6C336.886 66.1867 336.473 65.6533 336.259 65H336.499V69.5C336.499 69.9133 336.386 70.2267 336.159 70.44C335.946 70.6533 335.639 70.76 335.239 70.76ZM338.939 65.3C339.433 65.3 339.866 65.18 340.239 64.94C340.613 64.7 340.899 64.3467 341.099 63.88C341.313 63.4 341.419 62.8067 341.419 62.1C341.419 61.0333 341.193 60.24 340.739 59.72C340.286 59.1867 339.686 58.92 338.939 58.92C338.446 58.92 338.013 59.04 337.639 59.28C337.266 59.5067 336.973 59.86 336.759 60.34C336.559 60.8067 336.459 61.3933 336.459 62.1C336.459 63.1533 336.686 63.9533 337.139 64.5C337.593 65.0333 338.193 65.3 338.939 65.3ZM347.271 67.16C346.858 67.16 346.538 67.0533 346.311 66.84C346.098 66.6133 345.991 66.2933 345.991 65.88V58.32C345.991 57.9067 346.098 57.5933 346.311 57.38C346.525 57.1667 346.825 57.06 347.211 57.06C347.598 57.06 347.898 57.1667 348.111 57.38C348.325 57.5933 348.431 57.9067 348.431 58.32V59.58H348.231C348.418 58.78 348.785 58.1733 349.331 57.76C349.878 57.3467 350.605 57.1 351.511 57.02C351.791 56.9933 352.011 57.0667 352.171 57.24C352.345 57.4 352.445 57.6533 352.471 58C352.498 58.3333 352.418 58.6067 352.231 58.82C352.058 59.02 351.791 59.14 351.431 59.18L350.991 59.22C350.178 59.3 349.565 59.5533 349.151 59.98C348.738 60.3933 348.531 60.98 348.531 61.74V65.88C348.531 66.2933 348.425 66.6133 348.211 66.84C347.998 67.0533 347.685 67.16 347.271 67.16ZM356.946 67.2C356.239 67.2 355.606 67.0667 355.046 66.8C354.499 66.52 354.066 66.1467 353.746 65.68C353.439 65.2133 353.286 64.6867 353.286 64.1C353.286 63.38 353.472 62.8133 353.846 62.4C354.219 61.9733 354.826 61.6667 355.666 61.48C356.506 61.2933 357.632 61.2 359.046 61.2H360.046V62.64H359.066C358.239 62.64 357.579 62.68 357.086 62.76C356.592 62.84 356.239 62.98 356.026 63.18C355.826 63.3667 355.726 63.6333 355.726 63.98C355.726 64.42 355.879 64.78 356.186 65.06C356.492 65.34 356.919 65.48 357.466 65.48C357.906 65.48 358.292 65.38 358.626 65.18C358.972 64.9667 359.246 64.68 359.446 64.32C359.646 63.96 359.746 63.5467 359.746 63.08V60.78C359.746 60.1133 359.599 59.6333 359.306 59.34C359.012 59.0467 358.519 58.9 357.826 58.9C357.439 58.9 357.019 58.9467 356.566 59.04C356.126 59.1333 355.659 59.2933 355.166 59.52C354.912 59.64 354.686 59.6733 354.486 59.62C354.299 59.5667 354.152 59.46 354.046 59.3C353.939 59.1267 353.886 58.94 353.886 58.74C353.886 58.54 353.939 58.3467 354.046 58.16C354.152 57.96 354.332 57.8133 354.586 57.72C355.199 57.4667 355.786 57.2867 356.346 57.18C356.919 57.0733 357.439 57.02 357.906 57.02C358.866 57.02 359.652 57.1667 360.266 57.46C360.892 57.7533 361.359 58.2 361.666 58.8C361.972 59.3867 362.126 60.1467 362.126 61.08V65.88C362.126 66.2933 362.026 66.6133 361.826 66.84C361.626 67.0533 361.339 67.16 360.966 67.16C360.592 67.16 360.299 67.0533 360.086 66.84C359.886 66.6133 359.786 66.2933 359.786 65.88V64.92H359.946C359.852 65.3867 359.666 65.7933 359.386 66.14C359.119 66.4733 358.779 66.7333 358.366 66.92C357.952 67.1067 357.479 67.2 356.946 67.2ZM369.183 67.2C368.157 67.2 367.263 66.9933 366.503 66.58C365.743 66.1533 365.157 65.5533 364.743 64.78C364.33 64.0067 364.123 63.1 364.123 62.06C364.123 61.2733 364.237 60.5733 364.463 59.96C364.703 59.3333 365.043 58.8067 365.483 58.38C365.923 57.94 366.457 57.6067 367.083 57.38C367.71 57.14 368.41 57.02 369.183 57.02C369.623 57.02 370.097 57.08 370.603 57.2C371.123 57.32 371.61 57.52 372.063 57.8C372.277 57.9333 372.417 58.0933 372.483 58.28C372.55 58.4667 372.563 58.66 372.523 58.86C372.483 59.0467 372.397 59.2133 372.263 59.36C372.143 59.4933 371.99 59.58 371.803 59.62C371.617 59.6467 371.41 59.6 371.183 59.48C370.89 59.3067 370.59 59.18 370.283 59.1C369.977 59.0067 369.683 58.96 369.403 58.96C368.963 58.96 368.577 59.0333 368.243 59.18C367.91 59.3133 367.623 59.5133 367.383 59.78C367.157 60.0333 366.983 60.3533 366.863 60.74C366.743 61.1267 366.683 61.5733 366.683 62.08C366.683 63.0667 366.917 63.8467 367.383 64.42C367.863 64.98 368.537 65.26 369.403 65.26C369.683 65.26 369.97 65.22 370.263 65.14C370.57 65.06 370.877 64.9333 371.183 64.76C371.41 64.64 371.61 64.6 371.783 64.64C371.97 64.68 372.123 64.7733 372.243 64.92C372.363 65.0533 372.437 65.22 372.463 65.42C372.49 65.6067 372.463 65.7933 372.383 65.98C372.317 66.1667 372.183 66.32 371.983 66.44C371.543 66.7067 371.077 66.9 370.583 67.02C370.09 67.14 369.623 67.2 369.183 67.2ZM378.616 67.2C377.749 67.2 377.023 67.0533 376.436 66.76C375.863 66.4667 375.436 66.04 375.156 65.48C374.876 64.9067 374.736 64.2 374.736 63.36V59.1H373.696C373.376 59.1 373.129 59.02 372.956 58.86C372.783 58.6867 372.696 58.4533 372.696 58.16C372.696 57.8533 372.783 57.62 372.956 57.46C373.129 57.3 373.376 57.22 373.696 57.22H374.736V55.4C374.736 54.9867 374.843 54.6733 375.056 54.46C375.283 54.2467 375.596 54.14 375.996 54.14C376.396 54.14 376.703 54.2467 376.916 54.46C377.129 54.6733 377.236 54.9867 377.236 55.4V57.22H379.356C379.676 57.22 379.923 57.3 380.096 57.46C380.269 57.62 380.356 57.8533 380.356 58.16C380.356 58.4533 380.269 58.6867 380.096 58.86C379.923 59.02 379.676 59.1 379.356 59.1H377.236V63.22C377.236 63.86 377.376 64.34 377.656 64.66C377.936 64.98 378.389 65.14 379.016 65.14C379.243 65.14 379.443 65.12 379.616 65.08C379.789 65.04 379.943 65.0133 380.076 65C380.236 64.9867 380.369 65.04 380.476 65.16C380.583 65.2667 380.636 65.4933 380.636 65.84C380.636 66.1067 380.589 66.3467 380.496 66.56C380.416 66.76 380.263 66.9 380.036 66.98C379.863 67.0333 379.636 67.08 379.356 67.12C379.076 67.1733 378.829 67.2 378.616 67.2ZM383.306 67.14C382.906 67.14 382.599 67.02 382.386 66.78C382.172 66.54 382.066 66.2067 382.066 65.78V58.44C382.066 58 382.172 57.6667 382.386 57.44C382.599 57.2 382.906 57.08 383.306 57.08C383.706 57.08 384.012 57.2 384.226 57.44C384.452 57.6667 384.566 58 384.566 58.44V65.78C384.566 66.2067 384.459 66.54 384.246 66.78C384.032 67.02 383.719 67.14 383.306 67.14ZM383.306 55.22C382.839 55.22 382.472 55.1067 382.206 54.88C381.952 54.64 381.826 54.3133 381.826 53.9C381.826 53.4733 381.952 53.1467 382.206 52.92C382.472 52.6933 382.839 52.58 383.306 52.58C383.786 52.58 384.152 52.6933 384.406 52.92C384.659 53.1467 384.786 53.4733 384.786 53.9C384.786 54.3133 384.659 54.64 384.406 54.88C384.152 55.1067 383.786 55.22 383.306 55.22ZM391.683 67.2C390.657 67.2 389.763 66.9933 389.003 66.58C388.243 66.1533 387.657 65.5533 387.243 64.78C386.83 64.0067 386.623 63.1 386.623 62.06C386.623 61.2733 386.737 60.5733 386.963 59.96C387.203 59.3333 387.543 58.8067 387.983 58.38C388.423 57.94 388.957 57.6067 389.583 57.38C390.21 57.14 390.91 57.02 391.683 57.02C392.123 57.02 392.597 57.08 393.103 57.2C393.623 57.32 394.11 57.52 394.563 57.8C394.777 57.9333 394.917 58.0933 394.983 58.28C395.05 58.4667 395.063 58.66 395.023 58.86C394.983 59.0467 394.897 59.2133 394.763 59.36C394.643 59.4933 394.49 59.58 394.303 59.62C394.117 59.6467 393.91 59.6 393.683 59.48C393.39 59.3067 393.09 59.18 392.783 59.1C392.477 59.0067 392.183 58.96 391.903 58.96C391.463 58.96 391.077 59.0333 390.743 59.18C390.41 59.3133 390.123 59.5133 389.883 59.78C389.657 60.0333 389.483 60.3533 389.363 60.74C389.243 61.1267 389.183 61.5733 389.183 62.08C389.183 63.0667 389.417 63.8467 389.883 64.42C390.363 64.98 391.037 65.26 391.903 65.26C392.183 65.26 392.47 65.22 392.763 65.14C393.07 65.06 393.377 64.9333 393.683 64.76C393.91 64.64 394.11 64.6 394.283 64.64C394.47 64.68 394.623 64.7733 394.743 64.92C394.863 65.0533 394.937 65.22 394.963 65.42C394.99 65.6067 394.963 65.7933 394.883 65.98C394.817 66.1667 394.683 66.32 394.483 66.44C394.043 66.7067 393.577 66.9 393.083 67.02C392.59 67.14 392.123 67.2 391.683 67.2ZM401.222 67.2C400.115 67.2 399.162 66.9933 398.362 66.58C397.562 66.1667 396.942 65.58 396.502 64.82C396.075 64.06 395.862 63.16 395.862 62.12C395.862 61.1067 396.068 60.22 396.482 59.46C396.908 58.7 397.488 58.1067 398.222 57.68C398.968 57.24 399.815 57.02 400.762 57.02C401.455 57.02 402.075 57.1333 402.622 57.36C403.182 57.5867 403.655 57.9133 404.042 58.34C404.442 58.7667 404.742 59.2867 404.942 59.9C405.155 60.5 405.262 61.18 405.262 61.94C405.262 62.18 405.175 62.3667 405.002 62.5C404.842 62.62 404.608 62.68 404.302 62.68H397.882V61.24H403.502L403.182 61.54C403.182 60.9267 403.088 60.4133 402.902 60C402.728 59.5867 402.468 59.2733 402.122 59.06C401.788 58.8333 401.368 58.72 400.862 58.72C400.302 58.72 399.822 58.8533 399.422 59.12C399.035 59.3733 398.735 59.74 398.522 60.22C398.322 60.6867 398.222 61.2467 398.222 61.9V62.04C398.222 63.1333 398.475 63.9533 398.982 64.5C399.502 65.0333 400.262 65.3 401.262 65.3C401.608 65.3 401.995 65.26 402.422 65.18C402.862 65.0867 403.275 64.9333 403.662 64.72C403.942 64.56 404.188 64.4933 404.402 64.52C404.615 64.5333 404.782 64.6067 404.902 64.74C405.035 64.8733 405.115 65.04 405.142 65.24C405.168 65.4267 405.128 65.62 405.022 65.82C404.928 66.02 404.762 66.1933 404.522 66.34C404.055 66.6333 403.515 66.8533 402.902 67C402.302 67.1333 401.742 67.2 401.222 67.2ZM410.821 67.2C410.248 67.2 409.641 67.14 409.001 67.02C408.361 66.9 407.788 66.6933 407.281 66.4C407.068 66.2667 406.915 66.1133 406.821 65.94C406.741 65.7533 406.708 65.5733 406.721 65.4C406.748 65.2133 406.815 65.0533 406.921 64.92C407.041 64.7867 407.188 64.7 407.361 64.66C407.548 64.62 407.748 64.6533 407.961 64.76C408.495 65.0133 408.995 65.1933 409.461 65.3C409.928 65.3933 410.388 65.44 410.841 65.44C411.481 65.44 411.955 65.3333 412.261 65.12C412.581 64.8933 412.741 64.6 412.741 64.24C412.741 63.9333 412.635 63.7 412.421 63.54C412.221 63.3667 411.915 63.24 411.501 63.16L409.501 62.78C408.675 62.62 408.041 62.32 407.601 61.88C407.175 61.4267 406.961 60.8467 406.961 60.14C406.961 59.5 407.135 58.9467 407.481 58.48C407.841 58.0133 408.335 57.6533 408.961 57.4C409.588 57.1467 410.308 57.02 411.121 57.02C411.708 57.02 412.255 57.0867 412.761 57.22C413.281 57.34 413.781 57.5333 414.261 57.8C414.461 57.9067 414.595 58.0467 414.661 58.22C414.741 58.3933 414.761 58.5733 414.721 58.76C414.681 58.9333 414.601 59.0933 414.481 59.24C414.361 59.3733 414.208 59.46 414.021 59.5C413.848 59.5267 413.648 59.4867 413.421 59.38C413.008 59.1667 412.608 59.0133 412.221 58.92C411.848 58.8267 411.488 58.78 411.141 58.78C410.488 58.78 410.001 58.8933 409.681 59.12C409.375 59.3467 409.221 59.6467 409.221 60.02C409.221 60.3 409.315 60.5333 409.501 60.72C409.688 60.9067 409.975 61.0333 410.361 61.1L412.361 61.48C413.228 61.64 413.881 61.9333 414.321 62.36C414.775 62.7867 415.001 63.36 415.001 64.08C415.001 65.0533 414.621 65.82 413.861 66.38C413.101 66.9267 412.088 67.2 410.821 67.2Z" fill="#4666FF"/>
<path d="M228.064 91C227.829 91 227.653 90.9467 227.536 90.84C227.429 90.7227 227.376 90.568 227.376 90.376C227.376 90.2587 227.403 90.1467 227.456 90.04C227.52 89.9227 227.605 89.8053 227.712 89.688L231.296 85.848C231.84 85.2613 232.229 84.7227 232.464 84.232C232.709 83.7307 232.832 83.224 232.832 82.712C232.832 82.072 232.635 81.5867 232.24 81.256C231.856 80.9147 231.291 80.744 230.544 80.744C230.064 80.744 229.611 80.8187 229.184 80.968C228.757 81.1173 228.347 81.3467 227.952 81.656C227.813 81.7627 227.685 81.8107 227.568 81.8C227.461 81.7893 227.365 81.7467 227.28 81.672C227.195 81.5973 227.136 81.5013 227.104 81.384C227.072 81.2667 227.072 81.1493 227.104 81.032C227.147 80.9147 227.232 80.808 227.36 80.712C227.776 80.3707 228.277 80.0987 228.864 79.896C229.451 79.6827 230.048 79.576 230.656 79.576C231.413 79.576 232.053 79.6933 232.576 79.928C233.099 80.1627 233.493 80.5093 233.76 80.968C234.027 81.416 234.16 81.9653 234.16 82.616C234.16 83.064 234.085 83.5067 233.936 83.944C233.797 84.3707 233.579 84.808 233.28 85.256C232.992 85.704 232.613 86.168 232.144 86.648L228.736 90.248V89.88H234.128C234.331 89.88 234.48 89.928 234.576 90.024C234.683 90.1093 234.736 90.2427 234.736 90.424C234.736 90.616 234.683 90.76 234.576 90.856C234.48 90.952 234.331 91 234.128 91H228.064ZM237.578 92.52C237.471 92.6587 237.359 92.7387 237.242 92.76C237.124 92.7813 237.023 92.76 236.938 92.696C236.852 92.632 236.804 92.5413 236.794 92.424C236.794 92.3067 236.847 92.1787 236.954 92.04C237.124 91.816 237.242 91.5867 237.306 91.352C237.37 91.128 237.402 90.92 237.402 90.728L237.466 91.064C237.188 91.064 236.964 90.984 236.794 90.824C236.634 90.6533 236.554 90.44 236.554 90.184C236.554 89.928 236.628 89.72 236.778 89.56C236.938 89.3893 237.146 89.304 237.402 89.304C237.679 89.304 237.898 89.4 238.058 89.592C238.218 89.7733 238.298 90.04 238.298 90.392C238.298 90.616 238.276 90.8453 238.234 91.08C238.191 91.3253 238.116 91.5707 238.01 91.816C237.903 92.0613 237.759 92.296 237.578 92.52ZM241.922 91.112C241.773 91.112 241.645 91.0747 241.538 91C241.432 90.9253 241.362 90.824 241.33 90.696C241.309 90.5573 241.341 90.408 241.426 90.248L246.562 80.28V80.856H240.802C240.61 80.856 240.461 80.808 240.354 80.712C240.248 80.6053 240.194 80.4613 240.194 80.28C240.194 80.0987 240.248 79.96 240.354 79.864C240.461 79.768 240.61 79.72 240.802 79.72H247.154C247.346 79.72 247.501 79.768 247.618 79.864C247.736 79.96 247.794 80.0987 247.794 80.28C247.794 80.4293 247.773 80.5627 247.73 80.68C247.698 80.7867 247.65 80.9093 247.586 81.048L242.658 90.664C242.584 90.8133 242.488 90.9253 242.37 91C242.253 91.0747 242.104 91.112 241.922 91.112ZM250.876 91.112C250.663 91.112 250.497 91.0533 250.38 90.936C250.273 90.808 250.22 90.6373 250.22 90.424V80.28C250.22 80.056 250.273 79.8907 250.38 79.784C250.497 79.6667 250.663 79.608 250.876 79.608C251.089 79.608 251.249 79.6667 251.356 79.784C251.473 79.8907 251.532 80.056 251.532 80.28V84.84H251.564L256.78 79.976C256.908 79.848 257.036 79.7573 257.164 79.704C257.292 79.64 257.431 79.608 257.58 79.608C257.783 79.608 257.927 79.656 258.012 79.752C258.108 79.848 258.145 79.9653 258.124 80.104C258.103 80.2427 258.028 80.376 257.9 80.504L252.444 85.56L252.46 84.856L258.156 90.12C258.316 90.2693 258.401 90.424 258.412 90.584C258.423 90.7333 258.375 90.8613 258.268 90.968C258.172 91.064 258.023 91.112 257.82 91.112C257.66 91.112 257.521 91.0747 257.404 91C257.297 90.936 257.175 90.8347 257.036 90.696L251.564 85.688H251.532V90.424C251.532 90.6373 251.479 90.808 251.372 90.936C251.265 91.0533 251.1 91.112 250.876 91.112ZM267.465 91.144C266.686 91.144 266.014 90.9733 265.449 90.632C264.884 90.2907 264.446 89.816 264.137 89.208C263.838 88.5893 263.689 87.8747 263.689 87.064C263.689 86.4453 263.774 85.8907 263.945 85.4C264.116 84.9093 264.366 84.4933 264.697 84.152C265.028 83.8 265.422 83.5333 265.881 83.352C266.35 83.1707 266.878 83.08 267.465 83.08C267.849 83.08 268.249 83.1387 268.665 83.256C269.081 83.3733 269.46 83.576 269.801 83.864C269.908 83.9387 269.977 84.0293 270.009 84.136C270.041 84.2427 270.041 84.3493 270.009 84.456C269.977 84.552 269.924 84.6373 269.849 84.712C269.774 84.776 269.678 84.8133 269.561 84.824C269.454 84.8347 269.342 84.7973 269.225 84.712C268.948 84.4987 268.665 84.3493 268.377 84.264C268.089 84.1787 267.812 84.136 267.545 84.136C267.129 84.136 266.766 84.2053 266.457 84.344C266.148 84.472 265.886 84.6587 265.673 84.904C265.46 85.1493 265.294 85.4533 265.177 85.816C265.07 86.1787 265.017 86.6 265.017 87.08C265.017 88.008 265.236 88.744 265.673 89.288C266.11 89.8213 266.734 90.088 267.545 90.088C267.812 90.088 268.084 90.0453 268.361 89.96C268.649 89.8747 268.937 89.7253 269.225 89.512C269.342 89.4267 269.454 89.3893 269.561 89.4C269.668 89.4107 269.758 89.4533 269.833 89.528C269.908 89.592 269.956 89.6773 269.977 89.784C270.009 89.8907 270.009 89.9973 269.977 90.104C269.945 90.2 269.876 90.2853 269.769 90.36C269.428 90.6373 269.054 90.84 268.649 90.968C268.244 91.0853 267.849 91.144 267.465 91.144ZM274.651 91.144C273.894 91.144 273.238 90.9787 272.683 90.648C272.128 90.3173 271.696 89.8533 271.387 89.256C271.088 88.648 270.939 87.9333 270.939 87.112C270.939 86.4933 271.024 85.9387 271.195 85.448C271.366 84.9467 271.616 84.52 271.947 84.168C272.278 83.816 272.667 83.5493 273.115 83.368C273.574 83.176 274.086 83.08 274.651 83.08C275.408 83.08 276.064 83.2453 276.619 83.576C277.174 83.9067 277.6 84.376 277.899 84.984C278.208 85.5813 278.363 86.2907 278.363 87.112C278.363 87.7307 278.278 88.2853 278.107 88.776C277.936 89.2667 277.686 89.6933 277.355 90.056C277.024 90.408 276.63 90.68 276.171 90.872C275.723 91.0533 275.216 91.144 274.651 91.144ZM274.651 90.104C275.131 90.104 275.552 89.9867 275.915 89.752C276.278 89.5173 276.555 89.176 276.747 88.728C276.95 88.28 277.051 87.7413 277.051 87.112C277.051 86.1413 276.832 85.4 276.395 84.888C275.968 84.376 275.387 84.12 274.651 84.12C274.16 84.12 273.734 84.2373 273.371 84.472C273.019 84.696 272.742 85.032 272.539 85.48C272.347 85.9173 272.251 86.4613 272.251 87.112C272.251 88.072 272.47 88.8133 272.907 89.336C273.344 89.848 273.926 90.104 274.651 90.104ZM280.982 91.112C280.768 91.112 280.608 91.0533 280.502 90.936C280.395 90.8187 280.342 90.6533 280.342 90.44V83.768C280.342 83.5547 280.395 83.3947 280.502 83.288C280.608 83.1707 280.763 83.112 280.966 83.112C281.168 83.112 281.323 83.1707 281.43 83.288C281.547 83.3947 281.606 83.5547 281.606 83.768V85.176L281.43 84.952C281.632 84.3547 281.958 83.896 282.406 83.576C282.864 83.2453 283.408 83.08 284.038 83.08C284.699 83.08 285.232 83.24 285.638 83.56C286.054 83.8693 286.331 84.3547 286.47 85.016H286.23C286.422 84.4187 286.763 83.9493 287.254 83.608C287.755 83.256 288.336 83.08 288.998 83.08C289.584 83.08 290.064 83.192 290.438 83.416C290.822 83.64 291.11 83.9813 291.302 84.44C291.494 84.888 291.59 85.4587 291.59 86.152V90.44C291.59 90.6533 291.531 90.8187 291.414 90.936C291.307 91.0533 291.147 91.112 290.934 91.112C290.731 91.112 290.571 91.0533 290.454 90.936C290.347 90.8187 290.294 90.6533 290.294 90.44V86.216C290.294 85.5013 290.171 84.9787 289.926 84.648C289.68 84.3067 289.264 84.136 288.678 84.136C288.038 84.136 287.531 84.36 287.158 84.808C286.795 85.2453 286.614 85.8427 286.614 86.6V90.44C286.614 90.6533 286.555 90.8187 286.438 90.936C286.331 91.0533 286.171 91.112 285.958 91.112C285.755 91.112 285.595 91.0533 285.478 90.936C285.371 90.8187 285.318 90.6533 285.318 90.44V86.216C285.318 85.5013 285.19 84.9787 284.934 84.648C284.688 84.3067 284.278 84.136 283.702 84.136C283.062 84.136 282.555 84.36 282.182 84.808C281.819 85.2453 281.638 85.8427 281.638 86.6V90.44C281.638 90.888 281.419 91.112 280.982 91.112ZM294.685 91.112C294.472 91.112 294.312 91.0533 294.205 90.936C294.098 90.8187 294.045 90.6533 294.045 90.44V83.768C294.045 83.5547 294.098 83.3947 294.205 83.288C294.312 83.1707 294.466 83.112 294.669 83.112C294.872 83.112 295.026 83.1707 295.133 83.288C295.25 83.3947 295.309 83.5547 295.309 83.768V85.176L295.133 84.952C295.336 84.3547 295.661 83.896 296.109 83.576C296.568 83.2453 297.112 83.08 297.741 83.08C298.402 83.08 298.936 83.24 299.341 83.56C299.757 83.8693 300.034 84.3547 300.173 85.016H299.933C300.125 84.4187 300.466 83.9493 300.957 83.608C301.458 83.256 302.04 83.08 302.701 83.08C303.288 83.08 303.768 83.192 304.141 83.416C304.525 83.64 304.813 83.9813 305.005 84.44C305.197 84.888 305.293 85.4587 305.293 86.152V90.44C305.293 90.6533 305.234 90.8187 305.117 90.936C305.01 91.0533 304.85 91.112 304.637 91.112C304.434 91.112 304.274 91.0533 304.157 90.936C304.05 90.8187 303.997 90.6533 303.997 90.44V86.216C303.997 85.5013 303.874 84.9787 303.629 84.648C303.384 84.3067 302.968 84.136 302.381 84.136C301.741 84.136 301.234 84.36 300.861 84.808C300.498 85.2453 300.317 85.8427 300.317 86.6V90.44C300.317 90.6533 300.258 90.8187 300.141 90.936C300.034 91.0533 299.874 91.112 299.661 91.112C299.458 91.112 299.298 91.0533 299.181 90.936C299.074 90.8187 299.021 90.6533 299.021 90.44V86.216C299.021 85.5013 298.893 84.9787 298.637 84.648C298.392 84.3067 297.981 84.136 297.405 84.136C296.765 84.136 296.258 84.36 295.885 84.808C295.522 85.2453 295.341 85.8427 295.341 86.6V90.44C295.341 90.888 295.122 91.112 294.685 91.112ZM311.22 91.144C310.399 91.144 309.689 90.984 309.092 90.664C308.505 90.3333 308.047 89.8693 307.716 89.272C307.396 88.6747 307.236 87.96 307.236 87.128C307.236 86.3173 307.396 85.6133 307.716 85.016C308.036 84.408 308.473 83.9333 309.028 83.592C309.593 83.2507 310.244 83.08 310.98 83.08C311.503 83.08 311.972 83.1707 312.388 83.352C312.804 83.5227 313.156 83.7733 313.444 84.104C313.743 84.4347 313.967 84.8347 314.116 85.304C314.276 85.7733 314.356 86.3013 314.356 86.888C314.356 87.0587 314.308 87.1867 314.212 87.272C314.116 87.3467 313.977 87.384 313.796 87.384H308.228V86.536H313.492L313.236 86.744C313.236 86.168 313.151 85.6827 312.98 85.288C312.809 84.8827 312.559 84.5733 312.228 84.36C311.908 84.1467 311.503 84.04 311.012 84.04C310.468 84.04 310.004 84.168 309.62 84.424C309.247 84.6693 308.964 85.016 308.772 85.464C308.58 85.9013 308.484 86.4133 308.484 87V87.096C308.484 88.0773 308.719 88.824 309.188 89.336C309.668 89.848 310.345 90.104 311.22 90.104C311.583 90.104 311.94 90.056 312.292 89.96C312.655 89.864 313.007 89.704 313.348 89.48C313.497 89.384 313.631 89.3413 313.748 89.352C313.876 89.352 313.977 89.3893 314.052 89.464C314.127 89.528 314.175 89.6133 314.196 89.72C314.228 89.816 314.217 89.9227 314.164 90.04C314.121 90.1573 314.031 90.2587 313.892 90.344C313.54 90.6 313.124 90.7973 312.644 90.936C312.164 91.0747 311.689 91.144 311.22 91.144ZM316.872 91.112C316.658 91.112 316.498 91.0533 316.392 90.936C316.285 90.8187 316.232 90.6533 316.232 90.44V83.768C316.232 83.5547 316.285 83.3947 316.392 83.288C316.498 83.1707 316.653 83.112 316.856 83.112C317.058 83.112 317.213 83.1707 317.32 83.288C317.437 83.3947 317.496 83.5547 317.496 83.768V85.144L317.32 84.952C317.544 84.3333 317.906 83.8693 318.408 83.56C318.92 83.24 319.506 83.08 320.168 83.08C320.786 83.08 321.298 83.192 321.704 83.416C322.12 83.64 322.429 83.9813 322.632 84.44C322.834 84.888 322.936 85.4587 322.936 86.152V90.44C322.936 90.6533 322.877 90.8187 322.76 90.936C322.653 91.0533 322.498 91.112 322.296 91.112C322.082 91.112 321.917 91.0533 321.8 90.936C321.693 90.8187 321.64 90.6533 321.64 90.44V86.232C321.64 85.5067 321.496 84.9787 321.208 84.648C320.93 84.3067 320.482 84.136 319.864 84.136C319.149 84.136 318.578 84.36 318.152 84.808C317.736 85.2453 317.528 85.832 317.528 86.568V90.44C317.528 90.888 317.309 91.112 316.872 91.112ZM328.445 91.144C327.837 91.144 327.325 91.0373 326.909 90.824C326.504 90.6 326.2 90.28 325.997 89.864C325.795 89.4373 325.693 88.92 325.693 88.312V84.232H324.621C324.44 84.232 324.301 84.1893 324.205 84.104C324.109 84.008 324.061 83.88 324.061 83.72C324.061 83.56 324.109 83.4373 324.205 83.352C324.301 83.2667 324.44 83.224 324.621 83.224H325.693V81.384C325.693 81.1707 325.752 81.0107 325.869 80.904C325.987 80.7867 326.147 80.728 326.349 80.728C326.552 80.728 326.707 80.7867 326.813 80.904C326.931 81.0107 326.989 81.1707 326.989 81.384V83.224H329.005C329.187 83.224 329.325 83.2667 329.421 83.352C329.517 83.4373 329.565 83.56 329.565 83.72C329.565 83.88 329.517 84.008 329.421 84.104C329.325 84.1893 329.187 84.232 329.005 84.232H326.989V88.184C326.989 88.792 327.117 89.256 327.373 89.576C327.629 89.8853 328.045 90.04 328.621 90.04C328.824 90.04 328.995 90.0187 329.133 89.976C329.283 89.9333 329.405 89.912 329.501 89.912C329.597 89.9013 329.677 89.9333 329.741 90.008C329.805 90.0827 329.837 90.2107 329.837 90.392C329.837 90.52 329.811 90.6373 329.757 90.744C329.715 90.8507 329.635 90.9253 329.517 90.968C329.389 91.0107 329.219 91.048 329.005 91.08C328.803 91.1227 328.616 91.144 328.445 91.144ZM333.543 91.144C333.063 91.144 332.578 91.0853 332.087 90.968C331.607 90.8507 331.159 90.648 330.743 90.36C330.636 90.2853 330.562 90.2 330.519 90.104C330.476 89.9973 330.46 89.896 330.471 89.8C330.492 89.6933 330.535 89.6027 330.599 89.528C330.674 89.4533 330.759 89.4107 330.855 89.4C330.962 89.3787 331.079 89.4 331.207 89.464C331.623 89.72 332.023 89.9013 332.407 90.008C332.802 90.104 333.191 90.152 333.575 90.152C334.183 90.152 334.642 90.04 334.951 89.816C335.26 89.592 335.415 89.288 335.415 88.904C335.415 88.6053 335.314 88.3707 335.111 88.2C334.908 88.0187 334.588 87.88 334.151 87.784L332.695 87.464C332.023 87.3253 331.522 87.0853 331.191 86.744C330.871 86.4027 330.711 85.96 330.711 85.416C330.711 84.936 330.834 84.5253 331.079 84.184C331.335 83.832 331.692 83.56 332.151 83.368C332.61 83.176 333.143 83.08 333.751 83.08C334.22 83.08 334.663 83.144 335.079 83.272C335.506 83.3893 335.89 83.5813 336.231 83.848C336.338 83.9227 336.407 84.0133 336.439 84.12C336.482 84.216 336.487 84.3173 336.455 84.424C336.434 84.52 336.386 84.6053 336.311 84.68C336.236 84.744 336.146 84.7813 336.039 84.792C335.932 84.8027 335.82 84.7707 335.703 84.696C335.383 84.4827 335.058 84.328 334.727 84.232C334.396 84.1253 334.071 84.072 333.751 84.072C333.154 84.072 332.7 84.1893 332.391 84.424C332.082 84.6587 331.927 84.968 331.927 85.352C331.927 85.6507 332.023 85.896 332.215 86.088C332.407 86.28 332.706 86.4187 333.111 86.504L334.567 86.808C335.26 86.9573 335.778 87.1973 336.119 87.528C336.471 87.848 336.647 88.2853 336.647 88.84C336.647 89.544 336.364 90.104 335.799 90.52C335.234 90.936 334.482 91.144 333.543 91.144Z" fill="#9CA3AF"/>
</g>
<defs>
<filter id="filter0_dddd_1833_76686" x="0" y="0" width="648" height="764" filterUnits="userSpaceOnUse" color-interpolation-filters="sRGB">
<feFlood flood-opacity="0" result="BackgroundImageFix"/>
<feColorMatrix in="SourceAlpha" type="matrix" values="0 0 0 0 0 0 0 0 0 0 0 0 0 0 0 0 0 0 127 0" result="hardAlpha"/>
<feOffset dy="29"/>
<feGaussianBlur stdDeviation="32"/>
<feColorMatrix type="matrix" values="0 0 0 0 0 0 0 0 0 0 0 0 0 0 0 0 0 0 0.1 0"/>
<feBlend mode="normal" in2="BackgroundImageFix" result="effect1_dropShadow_1833_76686"/>
<feColorMatrix in="SourceAlpha" type="matrix" values="0 0 0 0 0 0 0 0 0 0 0 0 0 0 0 0 0 0 127 0" result="hardAlpha"/>
<feOffset dy="117"/>
<feGaussianBlur stdDeviation="58.5"/>
<feColorMatrix type="matrix" values="0 0 0 0 0 0 0 0 0 0 0 0 0 0 0 0 0 0 0.09 0"/>
<feBlend mode="normal" in2="effect1_dropShadow_1833_76686" result="effect2_dropShadow_1833_76686"/>
<feColorMatrix in="SourceAlpha" type="matrix" values="0 0 0 0 0 0 0 0 0 0 0 0 0 0 0 0 0 0 127 0" result="hardAlpha"/>
<feOffset dy="262"/>
<feGaussianBlur stdDeviation="78.5"/>
<feColorMatrix type="matrix" values="0 0 0 0 0 0 0 0 0 0 0 0 0 0 0 0 0 0 0.05 0"/>
<feBlend mode="normal" in2="effect2_dropShadow_1833_76686" result="effect3_dropShadow_1833_76686"/>
<feColorMatrix in="SourceAlpha" type="matrix" values="0 0 0 0 0 0 0 0 0 0 0 0 0 0 0 0 0 0 127 0" result="hardAlpha"/>
<feOffset dy="466"/>
<feGaussianBlur stdDeviation="93.5"/>
<feColorMatrix type="matrix" values="0 0 0 0 0 0 0 0 0 0 0 0 0 0 0 0 0 0 0.01 0"/>
<feBlend mode="normal" in2="effect3_dropShadow_1833_76686" result="effect4_dropShadow_1833_76686"/>
<feBlend mode="normal" in="SourceGraphic" in2="effect4_dropShadow_1833_76686" result="shape"/>
</filter>
</defs>
</svg>
