<svg width="120" height="120" viewBox="0 0 120 120" fill="none" xmlns="http://www.w3.org/2000/svg">
<g clip-path="url(#clip0_344_15297)">
<path d="M28.9412 120C29.1547 120 29.3683 119.918 29.5321 119.755L44.6408 104.648C44.7971 104.492 44.8849 104.28 44.8849 104.058C44.8849 103.837 44.7971 103.625 44.6408 103.468L30.7236 89.5519L45.2502 75.0248C45.5737 74.7019 45.5737 74.1708 45.2502 73.8449L31.3879 59.9867L45.9845 45.3902C46.1407 45.2335 46.2285 45.0213 46.2285 44.8001C46.2285 44.5788 46.1407 44.3666 45.9845 44.21L32.0692 30.2932L46.5957 15.7669C46.7518 15.6102 46.8395 15.398 46.8395 15.1768C46.8395 14.9556 46.7518 14.7434 46.5957 14.5867L32.253 0.244555C32.1755 0.167017 32.0836 0.105504 31.9823 0.0635348C31.8811 0.0215656 31.7726 -3.6695e-05 31.663 -3.6695e-05C31.5534 -3.6695e-05 31.4449 0.0215656 31.3437 0.0635348C31.2425 0.105504 31.1505 0.167017 31.0731 0.244555C30.9168 0.40114 30.8291 0.613304 30.8291 0.8345C30.8291 1.0557 30.9168 1.26786 31.0731 1.42445L44.8251 15.1759L30.3069 29.6933C30.151 29.85 30.0634 30.0621 30.0634 30.2832C30.0634 30.5043 30.151 30.7164 30.3069 30.8732C30.3307 30.897 30.359 30.905 30.3835 30.9238C30.4121 30.9637 30.4291 31.0087 30.4642 31.0435L44.216 44.7971L29.6984 59.3144C29.491 59.5215 29.4309 59.8068 29.4854 60.0725C29.4823 60.1849 29.502 60.2967 29.5434 60.4012C29.5848 60.5057 29.6469 60.6007 29.7261 60.6805L43.4781 74.4374L28.9599 88.9508C28.6367 89.2773 28.6367 89.8084 28.9599 90.1313C28.9838 90.1572 29.0106 90.1653 29.0356 90.1802C29.0636 90.2192 29.0788 90.2647 29.1169 90.3008L42.8687 104.051L28.3528 118.566C28.0276 118.892 28.0276 119.425 28.3528 119.746C28.5116 119.921 28.7276 120 28.9412 120ZM51.4678 120C51.5775 120 51.6861 119.978 51.7874 119.936C51.8887 119.894 51.9807 119.833 52.0582 119.755L67.1659 104.648C67.3209 104.491 67.4078 104.279 67.4078 104.058C67.4078 103.837 67.3209 103.625 67.1659 103.468L53.2515 89.5519L67.7792 75.0248C68.1003 74.7019 68.1003 74.1708 67.7792 73.8449L53.9158 59.9867L68.5138 45.3902C68.6695 45.2332 68.7568 45.0211 68.7568 44.8001C68.7568 44.579 68.6695 44.3669 68.5138 44.21L54.5985 30.295L69.1256 15.7684C69.282 15.6119 69.3699 15.3997 69.3699 15.1785C69.3699 14.9572 69.282 14.745 69.1256 14.5885L54.782 0.247832C54.7045 0.170359 54.6125 0.108904 54.5113 0.0669764C54.4101 0.0250485 54.3016 0.00346843 54.192 0.00346843C54.0825 0.00346843 53.974 0.0250485 53.8728 0.0669764C53.7715 0.108904 53.6796 0.170359 53.6021 0.247832C53.5246 0.325304 53.4632 0.417278 53.4212 0.518501C53.3793 0.619724 53.3577 0.728214 53.3577 0.837777C53.3577 0.94734 53.3793 1.05583 53.4212 1.15705C53.4632 1.25828 53.5246 1.35025 53.6021 1.42772L67.3536 15.1792L52.8377 29.6968C52.6815 29.8534 52.5938 30.0656 52.5938 30.2868C52.5938 30.508 52.6815 30.7201 52.8377 30.8767C52.8598 30.8988 52.8857 30.9068 52.911 30.9256C52.9396 30.9655 52.9545 31.012 52.9926 31.0471L66.7459 44.801L52.2289 59.3183C52.0236 59.5238 51.9632 59.8077 52.0165 60.0731C52.0128 60.1863 52.0322 60.2991 52.0735 60.4046C52.1148 60.5101 52.1771 60.6061 52.2566 60.6868L66.0137 74.4421L51.4875 88.955C51.3321 89.1121 51.245 89.3241 51.245 89.5451C51.245 89.766 51.3321 89.978 51.4875 90.1352C51.5113 90.1578 51.5381 90.1694 51.5613 90.1807C51.5914 90.2198 51.6066 90.2686 51.6447 90.3014L65.3959 104.056L50.8792 118.57C50.8017 118.648 50.7401 118.74 50.6982 118.841C50.6562 118.942 50.6346 119.051 50.6346 119.16C50.6346 119.27 50.6562 119.378 50.6982 119.479C50.7401 119.581 50.8017 119.673 50.8792 119.75C51.038 119.921 51.2515 120 51.4678 120ZM73.9953 120C74.1051 120.001 74.2139 119.979 74.3154 119.937C74.4168 119.895 74.5088 119.833 74.586 119.755L89.6961 104.648C89.8525 104.492 89.9403 104.28 89.9403 104.058C89.9403 103.837 89.8525 103.625 89.6961 103.468L75.7793 89.5519L90.3053 75.0248C90.3828 74.9473 90.4443 74.8553 90.4862 74.7541C90.5282 74.6529 90.5498 74.5444 90.5498 74.4348C90.5498 74.3252 90.5282 74.2168 90.4862 74.1155C90.4443 74.0143 90.3828 73.9223 90.3053 73.8449L76.4445 59.9867L91.0425 45.3902C91.1959 45.232 91.2816 45.0204 91.2816 44.8001C91.2816 44.5798 91.1959 44.3682 91.0425 44.21L77.1222 30.2932L91.6493 15.7669C91.8049 15.6099 91.8922 15.3979 91.8922 15.1768C91.8922 14.9558 91.8049 14.7437 91.6493 14.5867L77.3041 0.244555C76.9783 -0.0816201 76.4454 -0.0816201 76.1243 0.244555C75.9679 0.401063 75.88 0.613256 75.88 0.8345C75.88 1.05575 75.9679 1.26794 76.1243 1.42445L89.8728 15.1759L75.3578 29.6933C75.2803 29.7707 75.2188 29.8627 75.1769 29.9639C75.1349 30.0651 75.1134 30.1736 75.1134 30.2832C75.1134 30.3928 75.1349 30.5013 75.1769 30.6025C75.2188 30.7037 75.2803 30.7957 75.3578 30.8732C75.3814 30.897 75.4052 30.905 75.4362 30.9238C75.4686 30.9637 75.4776 31.0087 75.5151 31.0435L89.269 44.7971L74.7487 59.3144C74.5431 59.5215 74.4877 59.8068 74.5372 60.0725C74.5341 60.1851 74.5542 60.2972 74.5961 60.4017C74.638 60.5063 74.7009 60.6012 74.7808 60.6805L88.5347 74.4374L74.0156 88.9508C73.693 89.2773 73.693 89.8084 74.0156 90.1313C74.0379 90.1572 74.0644 90.1653 74.0898 90.1802C74.1201 90.2192 74.1297 90.2647 74.1714 90.3008L87.9253 104.051L73.4094 118.566C73.0826 118.892 73.0826 119.425 73.4094 119.746C73.4836 119.828 73.5742 119.892 73.6752 119.936C73.7762 119.98 73.8853 120.002 73.9953 120Z" fill="#4666FF"/>
</g>
<defs>
<clipPath id="clip0_344_15297">
<rect width="120" height="120" fill="white"/>
</clipPath>
</defs>
</svg>
