<svg width="25" height="24" viewBox="0 0 25 24" fill="none" xmlns="http://www.w3.org/2000/svg">
<g clip-path="url(#clip0_625_895)">
<path d="M12.7406 9.88636V14.4716H19.2733C18.421 17.25 16.0985 19.2401 12.7406 19.2401C8.74343 19.2401 5.50053 15.9972 5.50053 12C5.50053 8.00284 8.73917 4.75994 12.7406 4.75994C14.5389 4.75994 16.1795 5.42045 17.4451 6.5071L20.8201 3.12784C18.6895 1.18466 15.8514 0 12.7406 0C6.10991 0 0.736328 5.37358 0.736328 12C0.736328 18.6264 6.10991 24 12.7406 24C22.8145 24 25.0389 14.5781 24.0502 9.90341L12.7406 9.88636Z" fill="#2454FF"/>
</g>
<defs>
<clipPath id="clip0_625_895">
<rect width="23.5275" height="24" fill="white" transform="translate(0.736328)"/>
</clipPath>
</defs>
</svg>
