<svg width="227" height="79" viewBox="0 0 227 79" fill="none" xmlns="http://www.w3.org/2000/svg">
<rect width="227" height="78.2115" rx="11.3077" fill="#1C1B1E"/>
<path d="M67.72 49.1556C67.0533 51.2925 66.002 53.4294 64.566 55.5662C62.3607 58.9169 60.164 60.5922 57.9759 60.5922C57.1382 60.5922 55.9415 60.3187 54.3859 59.7716C52.9157 59.2246 51.6251 58.9511 50.5139 58.9511C49.4711 58.9511 48.2573 59.2331 46.8726 59.7973C45.488 60.3785 44.3597 60.6691 43.4878 60.6691C40.8894 60.6691 38.3166 58.4553 35.7694 54.0277C33.2565 49.5659 32 45.2665 32 41.1295C32 37.2319 32.9659 34.0351 34.8976 31.5392C36.8293 29.0776 39.2568 27.8467 42.1801 27.8467C43.4109 27.8467 44.9238 28.1031 46.7188 28.616C48.4967 29.1288 49.6762 29.3853 50.2575 29.3853C51.0267 29.3853 52.249 29.0947 53.9243 28.5134C55.668 27.9322 57.1467 27.6416 58.3605 27.6416C60.3948 27.6416 62.2154 28.1972 63.8223 29.3083C64.7113 29.9238 65.6002 30.7785 66.4892 31.8726C65.1387 33.018 64.1642 34.0266 63.5659 34.8984C62.4547 36.5053 61.8992 38.2747 61.8992 40.2064C61.8992 42.3262 62.4889 44.2323 63.6685 45.9247C64.848 47.6171 66.1985 48.6941 67.72 49.1556ZM58.0784 19.077C58.0784 20.1198 57.8305 21.2822 57.3348 22.5644C56.8219 23.8465 56.027 25.026 54.95 26.103C54.0269 27.0262 53.1038 27.6416 52.1806 27.9493C51.5481 28.1373 50.6592 28.2826 49.5138 28.3852C49.5651 25.8381 50.2318 23.6413 51.5139 21.7951C52.779 19.9659 54.9158 18.7009 57.9246 18C57.9417 18.0513 57.963 18.1453 57.9887 18.2821C58.0143 18.4188 58.0357 18.5128 58.0528 18.5641C58.0528 18.6325 58.0571 18.718 58.0656 18.8206C58.0741 18.9231 58.0784 19.0086 58.0784 19.077Z" fill="#DDDDDD"/>
<path d="M88.6025 33H85.9094V24.2727H88.7219C89.5684 24.2727 90.2929 24.4474 90.8952 24.7969C91.4974 25.1435 91.9591 25.642 92.2801 26.2926C92.6011 26.9403 92.7616 27.7159 92.7616 28.6193C92.7616 29.5284 92.5997 30.3111 92.2758 30.9673C91.952 31.6207 91.4804 32.1236 90.8611 32.4759C90.2417 32.8253 89.4889 33 88.6025 33ZM86.9662 32.0625H88.5344C89.2559 32.0625 89.854 31.9233 90.3284 31.6449C90.8028 31.3665 91.1565 30.9702 91.3895 30.456C91.6224 29.9418 91.7389 29.3295 91.7389 28.6193C91.7389 27.9148 91.6238 27.3082 91.3937 26.7997C91.1636 26.2884 90.8199 25.8963 90.3625 25.6236C89.9051 25.348 89.3355 25.2102 88.6537 25.2102H86.9662V32.0625ZM97.0571 33.1364C96.4662 33.1364 95.9477 32.9957 95.5017 32.7145C95.0585 32.4332 94.7119 32.0398 94.4619 31.5341C94.2148 31.0284 94.0912 30.4375 94.0912 29.7614C94.0912 29.0795 94.2148 28.4844 94.4619 27.9759C94.7119 27.4673 95.0585 27.0724 95.5017 26.7912C95.9477 26.5099 96.4662 26.3693 97.0571 26.3693C97.648 26.3693 98.165 26.5099 98.6082 26.7912C99.0542 27.0724 99.4008 27.4673 99.648 27.9759C99.898 28.4844 100.023 29.0795 100.023 29.7614C100.023 30.4375 99.898 31.0284 99.648 31.5341C99.4008 32.0398 99.0542 32.4332 98.6082 32.7145C98.165 32.9957 97.648 33.1364 97.0571 33.1364ZM97.0571 32.233C97.5059 32.233 97.8753 32.1179 98.165 31.8878C98.4548 31.6577 98.6693 31.3551 98.8085 30.9801C98.9477 30.6051 99.0173 30.1989 99.0173 29.7614C99.0173 29.3239 98.9477 28.9162 98.8085 28.5384C98.6693 28.1605 98.4548 27.8551 98.165 27.6222C97.8753 27.3892 97.5059 27.2727 97.0571 27.2727C96.6082 27.2727 96.2389 27.3892 95.9491 27.6222C95.6594 27.8551 95.4449 28.1605 95.3057 28.5384C95.1665 28.9162 95.0969 29.3239 95.0969 29.7614C95.0969 30.1989 95.1665 30.6051 95.3057 30.9801C95.4449 31.3551 95.6594 31.6577 95.9491 31.8878C96.2389 32.1179 96.6082 32.233 97.0571 32.233ZM102.818 33L100.824 26.4545H101.881L103.296 31.4659H103.364L104.762 26.4545H105.835L107.216 31.4489H107.284L108.699 26.4545H109.756L107.762 33H106.773L105.341 27.9716H105.239L103.807 33H102.818ZM112.091 29.0625V33H111.085V26.4545H112.057V27.4773H112.142C112.296 27.1449 112.529 26.8778 112.841 26.6761C113.154 26.4716 113.557 26.3693 114.051 26.3693C114.495 26.3693 114.882 26.4602 115.215 26.642C115.547 26.821 115.806 27.0938 115.99 27.4602C116.175 27.8239 116.267 28.2841 116.267 28.8409V33H115.262V28.9091C115.262 28.3949 115.128 27.9943 114.861 27.7074C114.594 27.4176 114.228 27.2727 113.762 27.2727C113.441 27.2727 113.154 27.3423 112.901 27.4815C112.651 27.6207 112.453 27.8239 112.309 28.0909C112.164 28.358 112.091 28.6818 112.091 29.0625ZM119.111 24.2727V33H118.105V24.2727H119.111ZM123.612 33.1364C123.021 33.1364 122.502 32.9957 122.056 32.7145C121.613 32.4332 121.267 32.0398 121.017 31.5341C120.769 31.0284 120.646 30.4375 120.646 29.7614C120.646 29.0795 120.769 28.4844 121.017 27.9759C121.267 27.4673 121.613 27.0724 122.056 26.7912C122.502 26.5099 123.021 26.3693 123.612 26.3693C124.203 26.3693 124.72 26.5099 125.163 26.7912C125.609 27.0724 125.956 27.4673 126.203 27.9759C126.453 28.4844 126.578 29.0795 126.578 29.7614C126.578 30.4375 126.453 31.0284 126.203 31.5341C125.956 32.0398 125.609 32.4332 125.163 32.7145C124.72 32.9957 124.203 33.1364 123.612 33.1364ZM123.612 32.233C124.061 32.233 124.43 32.1179 124.72 31.8878C125.009 31.6577 125.224 31.3551 125.363 30.9801C125.502 30.6051 125.572 30.1989 125.572 29.7614C125.572 29.3239 125.502 28.9162 125.363 28.5384C125.224 28.1605 125.009 27.8551 124.72 27.6222C124.43 27.3892 124.061 27.2727 123.612 27.2727C123.163 27.2727 122.794 27.3892 122.504 27.6222C122.214 27.8551 122 28.1605 121.86 28.5384C121.721 28.9162 121.652 29.3239 121.652 29.7614C121.652 30.1989 121.721 30.6051 121.86 30.9801C122 31.3551 122.214 31.6577 122.504 31.8878C122.794 32.1179 123.163 32.233 123.612 32.233ZM130.039 33.1534C129.624 33.1534 129.248 33.0753 128.91 32.919C128.572 32.7599 128.303 32.5312 128.104 32.233C127.905 31.9318 127.806 31.5682 127.806 31.142C127.806 30.767 127.88 30.4631 128.028 30.2301C128.175 29.9943 128.373 29.8097 128.62 29.6761C128.867 29.5426 129.14 29.4432 129.438 29.3778C129.739 29.3097 130.042 29.2557 130.346 29.2159C130.744 29.1648 131.066 29.1264 131.313 29.1009C131.563 29.0724 131.745 29.0256 131.859 28.9602C131.975 28.8949 132.033 28.7812 132.033 28.6193V28.5852C132.033 28.1648 131.918 27.8381 131.688 27.6051C131.461 27.3722 131.116 27.2557 130.653 27.2557C130.172 27.2557 129.796 27.3608 129.523 27.571C129.251 27.7812 129.059 28.0057 128.948 28.2443L127.994 27.9034C128.164 27.5057 128.391 27.196 128.675 26.9744C128.962 26.75 129.275 26.5937 129.613 26.5057C129.954 26.4148 130.289 26.3693 130.619 26.3693C130.829 26.3693 131.07 26.3949 131.343 26.446C131.619 26.4943 131.884 26.5952 132.14 26.7486C132.398 26.902 132.613 27.1335 132.783 27.4432C132.954 27.7528 133.039 28.1676 133.039 28.6875V33H132.033V32.1136H131.982C131.914 32.2557 131.8 32.4077 131.641 32.5696C131.482 32.7315 131.271 32.8693 131.006 32.983C130.742 33.0966 130.42 33.1534 130.039 33.1534ZM130.192 32.25C130.59 32.25 130.925 32.1719 131.198 32.0156C131.474 31.8594 131.681 31.6577 131.82 31.4105C131.962 31.1634 132.033 30.9034 132.033 30.6307V29.7102C131.991 29.7614 131.897 29.8082 131.752 29.8509C131.61 29.8906 131.445 29.9261 131.258 29.9574C131.073 29.9858 130.893 30.0114 130.717 30.0341C130.543 30.054 130.403 30.071 130.295 30.0852C130.033 30.1193 129.789 30.1747 129.562 30.2514C129.337 30.3253 129.155 30.4375 129.016 30.5881C128.88 30.7358 128.812 30.9375 128.812 31.1932C128.812 31.5426 128.941 31.8068 129.199 31.9858C129.461 32.1619 129.792 32.25 130.192 32.25ZM137.346 33.1364C136.801 33.1364 136.319 32.9986 135.902 32.723C135.484 32.4446 135.157 32.0526 134.921 31.5469C134.686 31.0384 134.568 30.4375 134.568 29.7443C134.568 29.0568 134.686 28.4602 134.921 27.9545C135.157 27.4489 135.485 27.0582 135.906 26.7827C136.326 26.5071 136.812 26.3693 137.363 26.3693C137.789 26.3693 138.126 26.4403 138.373 26.5824C138.623 26.7216 138.813 26.8807 138.944 27.0597C139.078 27.2358 139.181 27.3807 139.255 27.4943H139.34V24.2727H140.346V33H139.375V31.9943H139.255C139.181 32.1136 139.076 32.2642 138.94 32.446C138.804 32.625 138.609 32.7855 138.356 32.9276C138.103 33.0668 137.767 33.1364 137.346 33.1364ZM137.483 32.233C137.886 32.233 138.227 32.1278 138.505 31.9176C138.784 31.7045 138.995 31.4105 139.14 31.0355C139.285 30.6577 139.358 30.2216 139.358 29.7273C139.358 29.2386 139.286 28.8111 139.144 28.4446C139.002 28.0753 138.792 27.7884 138.514 27.5838C138.235 27.3764 137.892 27.2727 137.483 27.2727C137.056 27.2727 136.701 27.3821 136.417 27.6009C136.136 27.8168 135.924 28.1108 135.782 28.483C135.643 28.8523 135.573 29.267 135.573 29.7273C135.573 30.1932 135.644 30.6165 135.786 30.9972C135.931 31.375 136.144 31.6761 136.426 31.9006C136.71 32.1222 137.062 32.233 137.483 32.233ZM148.362 33.1364C147.771 33.1364 147.252 32.9957 146.806 32.7145C146.363 32.4332 146.017 32.0398 145.767 31.5341C145.519 31.0284 145.396 30.4375 145.396 29.7614C145.396 29.0795 145.519 28.4844 145.767 27.9759C146.017 27.4673 146.363 27.0724 146.806 26.7912C147.252 26.5099 147.771 26.3693 148.362 26.3693C148.953 26.3693 149.47 26.5099 149.913 26.7912C150.359 27.0724 150.706 27.4673 150.953 27.9759C151.203 28.4844 151.328 29.0795 151.328 29.7614C151.328 30.4375 151.203 31.0284 150.953 31.5341C150.706 32.0398 150.359 32.4332 149.913 32.7145C149.47 32.9957 148.953 33.1364 148.362 33.1364ZM148.362 32.233C148.811 32.233 149.18 32.1179 149.47 31.8878C149.759 31.6577 149.974 31.3551 150.113 30.9801C150.252 30.6051 150.322 30.1989 150.322 29.7614C150.322 29.3239 150.252 28.9162 150.113 28.5384C149.974 28.1605 149.759 27.8551 149.47 27.6222C149.18 27.3892 148.811 27.2727 148.362 27.2727C147.913 27.2727 147.544 27.3892 147.254 27.6222C146.964 27.8551 146.75 28.1605 146.61 28.5384C146.471 28.9162 146.402 29.3239 146.402 29.7614C146.402 30.1989 146.471 30.6051 146.61 30.9801C146.75 31.3551 146.964 31.6577 147.254 31.8878C147.544 32.1179 147.913 32.233 148.362 32.233ZM153.869 29.0625V33H152.863V26.4545H153.834V27.4773H153.92C154.073 27.1449 154.306 26.8778 154.619 26.6761C154.931 26.4716 155.334 26.3693 155.829 26.3693C156.272 26.3693 156.66 26.4602 156.992 26.642C157.324 26.821 157.583 27.0938 157.768 27.4602C157.952 27.8239 158.045 28.2841 158.045 28.8409V33H157.039V28.9091C157.039 28.3949 156.905 27.9943 156.638 27.7074C156.371 27.4176 156.005 27.2727 155.539 27.2727C155.218 27.2727 154.931 27.3423 154.678 27.4815C154.428 27.6207 154.231 27.8239 154.086 28.0909C153.941 28.358 153.869 28.6818 153.869 29.0625ZM166.104 26.4545V27.3068H162.712V26.4545H166.104ZM163.701 24.8864H164.706V31.125C164.706 31.4091 164.747 31.6222 164.83 31.7642C164.915 31.9034 165.023 31.9972 165.154 32.0455C165.287 32.0909 165.428 32.1136 165.576 32.1136C165.686 32.1136 165.777 32.108 165.848 32.0966C165.919 32.0824 165.976 32.071 166.019 32.0625L166.223 32.9659C166.155 32.9915 166.06 33.017 165.938 33.0426C165.816 33.071 165.661 33.0852 165.473 33.0852C165.189 33.0852 164.911 33.0241 164.638 32.902C164.368 32.7798 164.144 32.5938 163.965 32.3438C163.789 32.0938 163.701 31.7784 163.701 31.3977V24.8864ZM168.763 29.0625V33H167.757V24.2727H168.763V27.4773H168.848C169.002 27.1392 169.232 26.8707 169.539 26.6719C169.848 26.4702 170.26 26.3693 170.774 26.3693C171.22 26.3693 171.611 26.4588 171.946 26.6378C172.282 26.8139 172.541 27.0852 172.726 27.4517C172.914 27.8153 173.007 28.2784 173.007 28.8409V33H172.002V28.9091C172.002 28.3892 171.867 27.9872 171.597 27.7031C171.33 27.4162 170.959 27.2727 170.485 27.2727C170.155 27.2727 169.86 27.3423 169.598 27.4815C169.34 27.6207 169.135 27.8239 168.985 28.0909C168.837 28.358 168.763 28.6818 168.763 29.0625ZM177.592 33.1364C176.961 33.1364 176.417 32.9972 175.959 32.7188C175.505 32.4375 175.154 32.0455 174.907 31.5426C174.663 31.0369 174.54 30.4489 174.54 29.7784C174.54 29.108 174.663 28.517 174.907 28.0057C175.154 27.4915 175.498 27.0909 175.938 26.804C176.381 26.5142 176.898 26.3693 177.489 26.3693C177.83 26.3693 178.167 26.4261 178.499 26.5398C178.832 26.6534 179.134 26.8381 179.407 27.0938C179.68 27.3466 179.897 27.6818 180.059 28.0994C180.221 28.517 180.302 29.0312 180.302 29.642V30.0682H175.256V29.1989H179.279C179.279 28.8295 179.205 28.5 179.057 28.2102C178.913 27.9205 178.705 27.6918 178.435 27.5241C178.168 27.3565 177.853 27.2727 177.489 27.2727C177.089 27.2727 176.742 27.3722 176.449 27.571C176.16 27.767 175.937 28.0227 175.78 28.3381C175.624 28.6534 175.546 28.9915 175.546 29.3523V29.9318C175.546 30.4261 175.631 30.8452 175.802 31.1889C175.975 31.5298 176.215 31.7898 176.522 31.9688C176.829 32.1449 177.185 32.233 177.592 32.233C177.856 32.233 178.094 32.196 178.307 32.1222C178.523 32.0455 178.709 31.9318 178.866 31.7812C179.022 31.6278 179.143 31.4375 179.228 31.2102L180.199 31.483C180.097 31.8125 179.925 32.1023 179.684 32.3523C179.442 32.5994 179.144 32.7926 178.789 32.9318C178.434 33.0682 178.035 33.1364 177.592 33.1364Z" fill="white"/>
<path d="M87.2105 56H85.3639L90.7048 41.4545H92.523L97.8639 56H96.0173L91.6707 43.7557H91.5571L87.2105 56ZM87.8923 50.3182H95.3355V51.8807H87.8923V50.3182ZM99.9023 60.0909V45.0909H101.522V46.8239H101.72C101.844 46.6345 102.014 46.393 102.232 46.0994C102.454 45.8011 102.772 45.536 103.184 45.304C103.6 45.0672 104.164 44.9489 104.874 44.9489C105.792 44.9489 106.602 45.1785 107.303 45.6378C108.004 46.0971 108.55 46.7481 108.943 47.5909C109.336 48.4337 109.533 49.428 109.533 50.5739C109.533 51.7292 109.336 52.7306 108.943 53.5781C108.55 54.4209 108.006 55.0743 107.31 55.5384C106.614 55.9976 105.811 56.2273 104.902 56.2273C104.201 56.2273 103.64 56.1113 103.219 55.8793C102.798 55.6425 102.473 55.375 102.246 55.0767C102.019 54.7737 101.844 54.5227 101.72 54.3239H101.578V60.0909H99.9023ZM101.55 50.5455C101.55 51.3693 101.671 52.0961 101.912 52.7259C102.154 53.3509 102.506 53.8409 102.97 54.196C103.434 54.5464 104.003 54.7216 104.675 54.7216C105.376 54.7216 105.96 54.5369 106.429 54.1676C106.903 53.7936 107.258 53.2917 107.495 52.6619C107.736 52.0275 107.857 51.322 107.857 50.5455C107.857 49.7784 107.738 49.0871 107.502 48.4716C107.27 47.8513 106.917 47.3613 106.443 47.0014C105.975 46.6368 105.385 46.4545 104.675 46.4545C103.993 46.4545 103.42 46.6274 102.956 46.973C102.492 47.3139 102.142 47.7921 101.905 48.4077C101.668 49.0185 101.55 49.7311 101.55 50.5455ZM112.09 60.0909V45.0909H113.709V46.8239H113.908C114.031 46.6345 114.201 46.393 114.419 46.0994C114.642 45.8011 114.959 45.536 115.371 45.304C115.788 45.0672 116.351 44.9489 117.061 44.9489C117.98 44.9489 118.79 45.1785 119.49 45.6378C120.191 46.0971 120.738 46.7481 121.131 47.5909C121.524 48.4337 121.72 49.428 121.72 50.5739C121.72 51.7292 121.524 52.7306 121.131 53.5781C120.738 54.4209 120.193 55.0743 119.497 55.5384C118.801 55.9976 117.999 56.2273 117.09 56.2273C116.389 56.2273 115.828 56.1113 115.407 55.8793C114.985 55.6425 114.661 55.375 114.434 55.0767C114.206 54.7737 114.031 54.5227 113.908 54.3239H113.766V60.0909H112.09ZM113.737 50.5455C113.737 51.3693 113.858 52.0961 114.1 52.7259C114.341 53.3509 114.694 53.8409 115.158 54.196C115.622 54.5464 116.19 54.7216 116.862 54.7216C117.563 54.7216 118.148 54.5369 118.617 54.1676C119.09 53.7936 119.445 53.2917 119.682 52.6619C119.924 52.0275 120.044 51.322 120.044 50.5455C120.044 49.7784 119.926 49.0871 119.689 48.4716C119.457 47.8513 119.104 47.3613 118.631 47.0014C118.162 46.6368 117.573 46.4545 116.862 46.4545C116.181 46.4545 115.608 46.6274 115.144 46.973C114.68 47.3139 114.329 47.7921 114.093 48.4077C113.856 49.0185 113.737 49.7311 113.737 50.5455ZM125.953 41.4545V56H124.277V41.4545H125.953ZM133.597 56.2273C132.546 56.2273 131.639 55.9953 130.877 55.5312C130.119 55.0625 129.535 54.4091 129.123 53.571C128.716 52.7282 128.512 51.7481 128.512 50.6307C128.512 49.5133 128.716 48.5284 129.123 47.6761C129.535 46.8191 130.108 46.1515 130.842 45.6733C131.58 45.1903 132.442 44.9489 133.427 44.9489C133.995 44.9489 134.556 45.0436 135.11 45.233C135.664 45.4223 136.168 45.7301 136.623 46.1562C137.077 46.5777 137.44 47.1364 137.709 47.8324C137.979 48.5284 138.114 49.3854 138.114 50.4034V51.1136H129.705V49.6648H136.41C136.41 49.0492 136.287 48.5 136.04 48.017C135.799 47.5341 135.453 47.1529 135.003 46.8736C134.558 46.5942 134.033 46.4545 133.427 46.4545C132.759 46.4545 132.181 46.6203 131.694 46.9517C131.211 47.2784 130.839 47.7045 130.579 48.2301C130.318 48.7557 130.188 49.3191 130.188 49.9205V50.8864C130.188 51.7102 130.33 52.4086 130.614 52.9815C130.903 53.5497 131.303 53.983 131.815 54.2812C132.326 54.5748 132.92 54.7216 133.597 54.7216C134.038 54.7216 134.435 54.66 134.79 54.5369C135.15 54.4091 135.46 54.2197 135.721 53.9688C135.981 53.7131 136.182 53.3958 136.324 53.017L137.944 53.4716C137.773 54.0208 137.487 54.5038 137.084 54.9205C136.682 55.3324 136.185 55.6544 135.593 55.8864C135.001 56.1136 134.336 56.2273 133.597 56.2273ZM154.471 45.0909C154.386 44.3712 154.04 43.8125 153.434 43.4148C152.828 43.017 152.084 42.8182 151.204 42.8182C150.56 42.8182 149.996 42.9223 149.513 43.1307C149.035 43.339 148.661 43.6255 148.391 43.9901C148.126 44.3546 147.994 44.7689 147.994 45.233C147.994 45.6212 148.086 45.955 148.271 46.2344C148.46 46.509 148.701 46.7386 148.995 46.9233C149.289 47.1032 149.596 47.2524 149.918 47.3707C150.24 47.4844 150.536 47.5767 150.806 47.6477L152.283 48.0455C152.662 48.1449 153.083 48.2822 153.547 48.4574C154.016 48.6326 154.464 48.8717 154.89 49.1747C155.321 49.473 155.676 49.8565 155.955 50.3253C156.235 50.794 156.374 51.3693 156.374 52.0511C156.374 52.8371 156.168 53.5473 155.756 54.1818C155.349 54.8163 154.753 55.3205 153.967 55.6946C153.185 56.0687 152.236 56.2557 151.119 56.2557C150.077 56.2557 149.175 56.0876 148.413 55.7514C147.655 55.4152 147.058 54.9465 146.623 54.3452C146.192 53.7438 145.948 53.0455 145.891 52.25H147.709C147.757 52.7992 147.941 53.2538 148.263 53.6136C148.59 53.9687 149.002 54.2339 149.499 54.4091C150.001 54.5795 150.541 54.6648 151.119 54.6648C151.791 54.6648 152.395 54.5559 152.93 54.3381C153.465 54.1155 153.888 53.8078 154.201 53.4148C154.513 53.017 154.67 52.553 154.67 52.0227C154.67 51.5398 154.535 51.1468 154.265 50.8438C153.995 50.5407 153.64 50.2945 153.199 50.1051C152.759 49.9157 152.283 49.75 151.772 49.608L149.982 49.0966C148.846 48.7699 147.946 48.3035 147.283 47.6974C146.62 47.0914 146.289 46.2983 146.289 45.3182C146.289 44.5038 146.509 43.7936 146.949 43.1875C147.395 42.5767 147.991 42.1032 148.739 41.767C149.492 41.4261 150.333 41.2557 151.261 41.2557C152.198 41.2557 153.031 41.4238 153.761 41.7599C154.49 42.0914 155.067 42.5459 155.494 43.1236C155.924 43.7012 156.152 44.357 156.175 45.0909H154.471ZM163.787 45.0909V46.5114H158.134V45.0909H163.787ZM159.782 42.4773H161.458V52.875C161.458 53.3485 161.526 53.7036 161.664 53.9403C161.806 54.1723 161.986 54.3286 162.203 54.4091C162.426 54.4848 162.66 54.5227 162.907 54.5227C163.091 54.5227 163.243 54.5133 163.361 54.4943C163.479 54.4706 163.574 54.4517 163.645 54.4375L163.986 55.9432C163.872 55.9858 163.714 56.0284 163.51 56.071C163.307 56.1184 163.049 56.142 162.736 56.142C162.263 56.142 161.799 56.0402 161.344 55.8366C160.894 55.633 160.52 55.3229 160.222 54.9062C159.928 54.4896 159.782 53.964 159.782 53.3295V42.4773ZM170.623 56.2273C169.638 56.2273 168.774 55.9929 168.031 55.5241C167.292 55.0554 166.715 54.3996 166.298 53.5568C165.886 52.714 165.68 51.7292 165.68 50.6023C165.68 49.4659 165.886 48.474 166.298 47.6264C166.715 46.7789 167.292 46.1207 168.031 45.652C168.774 45.1832 169.638 44.9489 170.623 44.9489C171.608 44.9489 172.47 45.1832 173.208 45.652C173.952 46.1207 174.529 46.7789 174.941 47.6264C175.358 48.474 175.566 49.4659 175.566 50.6023C175.566 51.7292 175.358 52.714 174.941 53.5568C174.529 54.3996 173.952 55.0554 173.208 55.5241C172.47 55.9929 171.608 56.2273 170.623 56.2273ZM170.623 54.7216C171.371 54.7216 171.987 54.5298 172.47 54.1463C172.953 53.7628 173.31 53.2585 173.542 52.6335C173.774 52.0085 173.89 51.3314 173.89 50.6023C173.89 49.8731 173.774 49.1937 173.542 48.5639C173.31 47.9342 172.953 47.4252 172.47 47.0369C171.987 46.6487 171.371 46.4545 170.623 46.4545C169.875 46.4545 169.259 46.6487 168.777 47.0369C168.294 47.4252 167.936 47.9342 167.704 48.5639C167.472 49.1937 167.356 49.8731 167.356 50.6023C167.356 51.3314 167.472 52.0085 167.704 52.6335C167.936 53.2585 168.294 53.7628 168.777 54.1463C169.259 54.5298 169.875 54.7216 170.623 54.7216ZM178.125 56V45.0909H179.744V46.7386H179.858C180.057 46.1989 180.417 45.7609 180.937 45.4247C181.458 45.0885 182.045 44.9205 182.699 44.9205C182.822 44.9205 182.976 44.9228 183.16 44.9276C183.345 44.9323 183.485 44.9394 183.579 44.9489V46.6534C183.523 46.6392 183.392 46.6179 183.189 46.5895C182.99 46.5563 182.779 46.5398 182.557 46.5398C182.026 46.5398 181.553 46.651 181.136 46.8736C180.724 47.0914 180.398 47.3944 180.156 47.7827C179.919 48.1662 179.801 48.6042 179.801 49.0966V56H178.125ZM189.808 56.2273C188.757 56.2273 187.85 55.9953 187.088 55.5312C186.33 55.0625 185.746 54.4091 185.334 53.571C184.927 52.7282 184.723 51.7481 184.723 50.6307C184.723 49.5133 184.927 48.5284 185.334 47.6761C185.746 46.8191 186.319 46.1515 187.052 45.6733C187.791 45.1903 188.653 44.9489 189.638 44.9489C190.206 44.9489 190.767 45.0436 191.321 45.233C191.875 45.4223 192.379 45.7301 192.834 46.1562C193.288 46.5777 193.65 47.1364 193.92 47.8324C194.19 48.5284 194.325 49.3854 194.325 50.4034V51.1136H185.916V49.6648H192.621C192.621 49.0492 192.498 48.5 192.251 48.017C192.01 47.5341 191.664 47.1529 191.214 46.8736C190.769 46.5942 190.244 46.4545 189.638 46.4545C188.97 46.4545 188.392 46.6203 187.905 46.9517C187.422 47.2784 187.05 47.7045 186.79 48.2301C186.529 48.7557 186.399 49.3191 186.399 49.9205V50.8864C186.399 51.7102 186.541 52.4086 186.825 52.9815C187.114 53.5497 187.514 53.983 188.025 54.2812C188.537 54.5748 189.131 54.7216 189.808 54.7216C190.248 54.7216 190.646 54.66 191.001 54.5369C191.361 54.4091 191.671 54.2197 191.932 53.9688C192.192 53.7131 192.393 53.3958 192.535 53.017L194.155 53.4716C193.984 54.0208 193.698 54.5038 193.295 54.9205C192.893 55.3324 192.396 55.6544 191.804 55.8864C191.212 56.1136 190.547 56.2273 189.808 56.2273Z" fill="white"/>
</svg>
