<svg width="227" height="78" viewBox="0 0 227 78" fill="none" xmlns="http://www.w3.org/2000/svg">
<rect width="227" height="78" rx="11.3077" fill="#1C1B1E"/>
<path d="M30 56.8391V20.5411C30.0002 20.4623 30.0237 20.3854 30.0675 20.32C30.1113 20.2545 30.1734 20.2034 30.2461 20.1732C30.3188 20.1429 30.3989 20.1347 30.4762 20.1497C30.5535 20.1647 30.6246 20.2023 30.6807 20.2575L49.5806 38.6892L30.6807 57.1227C30.6246 57.178 30.5535 57.2155 30.4762 57.2305C30.3989 57.2455 30.3188 57.2374 30.2461 57.2071C30.1734 57.1768 30.1113 57.1257 30.0675 57.0603C30.0237 56.9948 30.0002 56.9179 30 56.8391ZM57.5052 46.2628L33.8071 59.319L33.7924 59.3273C33.3841 59.549 32.9962 58.9967 33.3306 58.6753L51.9072 40.9123L57.5052 46.2628ZM33.3324 18.7031C32.9962 18.3817 33.3841 17.8294 33.7942 18.051L33.809 18.0593L57.5052 31.1156L51.9072 36.4679L33.3324 18.7031ZM67.072 40.9982L60.4543 44.6428L54.2319 38.6892L60.4543 32.7383L67.072 36.3802C68.8721 37.3749 68.8721 40.0035 67.072 40.9982Z" fill="white"/>
<path d="M90.1599 24.3784C90.0662 24.0915 89.9426 23.8344 89.7892 23.6071C89.6386 23.377 89.4582 23.181 89.248 23.019C89.0406 22.8571 88.8048 22.7335 88.5406 22.6483C88.2764 22.5631 87.9866 22.5205 87.6713 22.5205C87.1543 22.5205 86.6841 22.654 86.2608 22.921C85.8375 23.1881 85.5008 23.5815 85.2508 24.1014C85.0008 24.6213 84.8758 25.2591 84.8758 26.0148C84.8758 26.7705 85.0023 27.4082 85.2551 27.9281C85.5079 28.448 85.8503 28.8415 86.2821 29.1085C86.7139 29.3756 87.1997 29.5091 87.7395 29.5091C88.2395 29.5091 88.6798 29.4026 89.0605 29.1895C89.444 28.9736 89.7423 28.6696 89.9554 28.2776C90.1713 27.8827 90.2793 27.4182 90.2793 26.8841L90.6031 26.9523H87.9781V26.0148H91.302V26.9523C91.302 27.671 91.1486 28.296 90.8418 28.8273C90.5378 29.3585 90.1173 29.7705 89.5804 30.0631C89.0463 30.3528 88.4327 30.4977 87.7395 30.4977C86.9668 30.4977 86.2878 30.3159 85.7025 29.9523C85.1202 29.5886 84.6656 29.0716 84.3389 28.4011C84.015 27.7307 83.8531 26.9352 83.8531 26.0148C83.8531 25.3244 83.9454 24.7037 84.1301 24.1526C84.3176 23.5986 84.5818 23.127 84.9227 22.7378C85.2636 22.3486 85.667 22.0503 86.1329 21.8429C86.5989 21.6355 87.1116 21.5318 87.6713 21.5318C88.1315 21.5318 88.5605 21.6014 88.9582 21.7406C89.3588 21.877 89.7153 22.0716 90.0278 22.3244C90.3432 22.5744 90.606 22.8742 90.8162 23.2236C91.0264 23.5702 91.1713 23.9551 91.2508 24.3784H90.1599ZM95.7199 30.5148C95.0893 30.5148 94.5452 30.3756 94.0878 30.0972C93.6333 29.8159 93.2824 29.4239 93.0353 28.921C92.791 28.4153 92.6688 27.8273 92.6688 27.1568C92.6688 26.4864 92.791 25.8955 93.0353 25.3841C93.2824 24.8699 93.6262 24.4693 94.0665 24.1824C94.5097 23.8926 95.0268 23.7477 95.6177 23.7477C95.9586 23.7477 96.2952 23.8046 96.6276 23.9182C96.96 24.0318 97.2626 24.2165 97.5353 24.4722C97.808 24.725 98.0253 25.0602 98.1873 25.4778C98.3492 25.8955 98.4302 26.4097 98.4302 27.0205V27.4466H93.3847V26.5773H97.4074C97.4074 26.208 97.3336 25.8784 97.1859 25.5886C97.041 25.2989 96.8336 25.0702 96.5637 24.9026C96.2967 24.735 95.9813 24.6511 95.6177 24.6511C95.2171 24.6511 94.8705 24.7506 94.5779 24.9494C94.2881 25.1455 94.0651 25.4011 93.9089 25.7165C93.7526 26.0318 93.6745 26.3699 93.6745 26.7307V27.3102C93.6745 27.8046 93.7597 28.2236 93.9302 28.5673C94.1035 28.9082 94.3435 29.1682 94.6503 29.3472C94.9572 29.5233 95.3137 29.6114 95.7199 29.6114C95.9842 29.6114 96.2228 29.5744 96.4359 29.5006C96.6518 29.4239 96.8378 29.3102 96.9941 29.1597C97.1503 29.0063 97.2711 28.8159 97.3563 28.5886L98.3279 28.8614C98.2256 29.1909 98.0538 29.4807 97.8123 29.7307C97.5708 29.9778 97.2725 30.171 96.9174 30.3102C96.5623 30.4466 96.1631 30.5148 95.7199 30.5148ZM102.807 23.833V24.6852H99.4146V23.833H102.807ZM100.403 22.2648H101.409V28.5034C101.409 28.7875 101.45 29.0006 101.532 29.1426C101.618 29.2818 101.726 29.3756 101.856 29.4239C101.99 29.4693 102.13 29.4921 102.278 29.4921C102.389 29.4921 102.48 29.4864 102.551 29.475C102.622 29.4608 102.679 29.4494 102.721 29.4409L102.926 30.3443C102.858 30.3699 102.763 30.3955 102.64 30.421C102.518 30.4494 102.363 30.4636 102.176 30.4636C101.892 30.4636 101.613 30.4026 101.341 30.2804C101.071 30.1582 100.846 29.9722 100.667 29.7222C100.491 29.4722 100.403 29.1568 100.403 28.7761V22.2648ZM107.694 30.3784V23.833H108.7V30.3784H107.694ZM108.206 22.7421C108.01 22.7421 107.841 22.6753 107.699 22.5418C107.559 22.4082 107.49 22.2477 107.49 22.0602C107.49 21.8727 107.559 21.7122 107.699 21.5787C107.841 21.4452 108.01 21.3784 108.206 21.3784C108.402 21.3784 108.569 21.4452 108.709 21.5787C108.851 21.7122 108.922 21.8727 108.922 22.0602C108.922 22.2477 108.851 22.4082 108.709 22.5418C108.569 22.6753 108.402 22.7421 108.206 22.7421ZM113.389 23.833V24.6852H109.997V23.833H113.389ZM110.985 22.2648H111.991V28.5034C111.991 28.7875 112.032 29.0006 112.114 29.1426C112.2 29.2818 112.308 29.3756 112.438 29.4239C112.572 29.4693 112.712 29.4921 112.86 29.4921C112.971 29.4921 113.062 29.4864 113.133 29.475C113.204 29.4608 113.261 29.4494 113.303 29.4409L113.508 30.3443C113.44 30.3699 113.345 30.3955 113.222 30.421C113.1 30.4494 112.945 30.4636 112.758 30.4636C112.474 30.4636 112.195 30.4026 111.923 30.2804C111.653 30.1582 111.428 29.9722 111.249 29.7222C111.073 29.4722 110.985 29.1568 110.985 28.7761V22.2648ZM120.936 30.5148C120.345 30.5148 119.826 30.3742 119.38 30.0929C118.937 29.8117 118.59 29.4182 118.34 28.9125C118.093 28.4068 117.97 27.8159 117.97 27.1398C117.97 26.458 118.093 25.8628 118.34 25.3543C118.59 24.8457 118.937 24.4509 119.38 24.1696C119.826 23.8884 120.345 23.7477 120.936 23.7477C121.526 23.7477 122.043 23.8884 122.487 24.1696C122.933 24.4509 123.279 24.8457 123.526 25.3543C123.776 25.8628 123.901 26.458 123.901 27.1398C123.901 27.8159 123.776 28.4068 123.526 28.9125C123.279 29.4182 122.933 29.8117 122.487 30.0929C122.043 30.3742 121.526 30.5148 120.936 30.5148ZM120.936 29.6114C121.384 29.6114 121.754 29.4963 122.043 29.2662C122.333 29.0361 122.548 28.7335 122.687 28.3585C122.826 27.9835 122.896 27.5773 122.896 27.1398C122.896 26.7023 122.826 26.2946 122.687 25.9168C122.548 25.5389 122.333 25.2335 122.043 25.0006C121.754 24.7676 121.384 24.6511 120.936 24.6511C120.487 24.6511 120.117 24.7676 119.828 25.0006C119.538 25.2335 119.323 25.5389 119.184 25.9168C119.045 26.2946 118.975 26.7023 118.975 27.1398C118.975 27.5773 119.045 27.9835 119.184 28.3585C119.323 28.7335 119.538 29.0361 119.828 29.2662C120.117 29.4963 120.487 29.6114 120.936 29.6114ZM126.442 26.4409V30.3784H125.437V23.833H126.408V24.8557H126.493C126.647 24.5233 126.88 24.2563 127.192 24.0546C127.505 23.85 127.908 23.7477 128.402 23.7477C128.846 23.7477 129.233 23.8386 129.566 24.0205C129.898 24.1994 130.157 24.4722 130.341 24.8386C130.526 25.2023 130.618 25.6625 130.618 26.2193V30.3784H129.613V26.2875C129.613 25.7733 129.479 25.3727 129.212 25.0858C128.945 24.796 128.579 24.6511 128.113 24.6511C127.792 24.6511 127.505 24.7207 127.252 24.86C127.002 24.9992 126.804 25.2023 126.66 25.4693C126.515 25.7364 126.442 26.0602 126.442 26.4409Z" fill="white"/>
<path d="M94.8418 43.3784C94.6855 42.9002 94.4795 42.4717 94.2239 42.0929C93.9729 41.7094 93.6722 41.3827 93.3219 41.1128C92.9762 40.8429 92.5832 40.6369 92.1429 40.4949C91.7025 40.3528 91.2196 40.2818 90.694 40.2818C89.8323 40.2818 89.0487 40.5044 88.3432 40.9494C87.6377 41.3945 87.0766 42.0503 86.6599 42.9168C86.2433 43.7832 86.0349 44.8462 86.0349 46.1057C86.0349 47.3652 86.2456 48.4281 86.667 49.2946C87.0884 50.1611 87.659 50.8169 88.3787 51.2619C89.0984 51.707 89.908 51.9296 90.8077 51.9296C91.641 51.9296 92.3749 51.752 93.0094 51.3969C93.6486 51.037 94.1457 50.5304 94.5008 49.877C94.8607 49.2189 95.0406 48.4447 95.0406 47.5546L95.5804 47.6682H91.2054V46.1057H96.7452V47.6682C96.7452 48.8661 96.4895 49.9078 95.9781 50.7932C95.4715 51.6786 94.7707 52.3652 93.8758 52.8528C92.9857 53.3358 91.963 53.5773 90.8077 53.5773C89.5198 53.5773 88.3882 53.2743 87.4128 52.6682C86.4421 52.0621 85.6846 51.2004 85.14 50.083C84.6003 48.9655 84.3304 47.6398 84.3304 46.1057C84.3304 44.9551 84.4843 43.9206 84.792 43.002C85.1045 42.0787 85.5449 41.2927 86.1131 40.644C86.6812 39.9954 87.3536 39.4982 88.1301 39.1526C88.9066 38.8069 89.7613 38.6341 90.694 38.6341C91.4611 38.6341 92.176 38.7501 92.8389 38.9821C93.5065 39.2094 94.1007 39.5337 94.6216 39.9551C95.1472 40.3718 95.5851 40.8713 95.9355 41.4537C96.2859 42.0314 96.5274 42.6729 96.6599 43.3784H94.8418ZM103.966 53.6057C102.982 53.6057 102.117 53.3713 101.374 52.9026C100.635 52.4338 100.058 51.778 99.6411 50.9352C99.2292 50.0924 99.0232 49.1076 99.0232 47.9807C99.0232 46.8443 99.2292 45.8524 99.6411 45.0048C100.058 44.1573 100.635 43.4992 101.374 43.0304C102.117 42.5617 102.982 42.3273 103.966 42.3273C104.951 42.3273 105.813 42.5617 106.552 43.0304C107.295 43.4992 107.873 44.1573 108.285 45.0048C108.701 45.8524 108.91 46.8443 108.91 47.9807C108.91 49.1076 108.701 50.0924 108.285 50.9352C107.873 51.778 107.295 52.4338 106.552 52.9026C105.813 53.3713 104.951 53.6057 103.966 53.6057ZM103.966 52.1C104.715 52.1 105.33 51.9082 105.813 51.5247C106.296 51.1412 106.653 50.6369 106.885 50.0119C107.117 49.3869 107.233 48.7099 107.233 47.9807C107.233 47.2515 107.117 46.5721 106.885 45.9423C106.653 45.3126 106.296 44.8036 105.813 44.4153C105.33 44.0271 104.715 43.833 103.966 43.833C103.218 43.833 102.603 44.0271 102.12 44.4153C101.637 44.8036 101.279 45.3126 101.047 45.9423C100.815 46.5721 100.699 47.2515 100.699 47.9807C100.699 48.7099 100.815 49.3869 101.047 50.0119C101.279 50.6369 101.637 51.1412 102.12 51.5247C102.603 51.9082 103.218 52.1 103.966 52.1ZM115.9 53.6057C114.915 53.6057 114.051 53.3713 113.308 52.9026C112.569 52.4338 111.991 51.778 111.575 50.9352C111.163 50.0924 110.957 49.1076 110.957 47.9807C110.957 46.8443 111.163 45.8524 111.575 45.0048C111.991 44.1573 112.569 43.4992 113.308 43.0304C114.051 42.5617 114.915 42.3273 115.9 42.3273C116.885 42.3273 117.747 42.5617 118.485 43.0304C119.229 43.4992 119.806 44.1573 120.218 45.0048C120.635 45.8524 120.843 46.8443 120.843 47.9807C120.843 49.1076 120.635 50.0924 120.218 50.9352C119.806 51.778 119.229 52.4338 118.485 52.9026C117.747 53.3713 116.885 53.6057 115.9 53.6057ZM115.9 52.1C116.648 52.1 117.264 51.9082 117.747 51.5247C118.23 51.1412 118.587 50.6369 118.819 50.0119C119.051 49.3869 119.167 48.7099 119.167 47.9807C119.167 47.2515 119.051 46.5721 118.819 45.9423C118.587 45.3126 118.23 44.8036 117.747 44.4153C117.264 44.0271 116.648 43.833 115.9 43.833C115.152 43.833 114.536 44.0271 114.053 44.4153C113.57 44.8036 113.213 45.3126 112.981 45.9423C112.749 46.5721 112.633 47.2515 112.633 47.9807C112.633 48.7099 112.749 49.3869 112.981 50.0119C113.213 50.6369 113.57 51.1412 114.053 51.5247C114.536 51.9082 115.152 52.1 115.9 52.1ZM127.805 57.6966C126.996 57.6966 126.299 57.5924 125.717 57.3841C125.135 57.1805 124.649 56.9106 124.261 56.5744C123.878 56.243 123.572 55.8879 123.345 55.5091L124.68 54.5716C124.832 54.7705 125.023 54.9977 125.255 55.2534C125.487 55.5138 125.805 55.7387 126.207 55.9281C126.614 56.1223 127.147 56.2193 127.805 56.2193C128.686 56.2193 129.413 56.0063 129.986 55.5801C130.558 55.154 130.845 54.4864 130.845 53.5773V51.3614H130.703C130.58 51.5602 130.405 51.8064 130.177 52.1C129.955 52.3888 129.633 52.6469 129.211 52.8742C128.795 53.0967 128.231 53.208 127.521 53.208C126.64 53.208 125.85 52.9996 125.149 52.583C124.453 52.1663 123.901 51.5602 123.494 50.7648C123.092 49.9693 122.89 49.0034 122.89 47.8671C122.89 46.7496 123.087 45.7766 123.48 44.948C123.873 44.1147 124.42 43.4707 125.121 43.0162C125.821 42.5569 126.631 42.3273 127.549 42.3273C128.26 42.3273 128.823 42.4457 129.24 42.6824C129.661 42.9144 129.983 43.1796 130.206 43.4778C130.433 43.7714 130.608 44.0129 130.731 44.2023H130.902V42.4693H132.521V53.6909C132.521 54.6284 132.308 55.3907 131.882 55.9778C131.46 56.5697 130.892 57.0029 130.177 57.2776C129.467 57.5569 128.676 57.6966 127.805 57.6966ZM127.748 51.7023C128.421 51.7023 128.989 51.5484 129.453 51.2406C129.917 50.9329 130.27 50.4902 130.511 49.9125C130.753 49.3349 130.873 48.6436 130.873 47.8386C130.873 47.0527 130.755 46.359 130.518 45.7577C130.282 45.1564 129.931 44.6852 129.467 44.3443C129.003 44.0034 128.43 43.833 127.748 43.833C127.038 43.833 126.446 44.0129 125.973 44.3727C125.504 44.7326 125.151 45.2155 124.915 45.8216C124.683 46.4277 124.567 47.1 124.567 47.8386C124.567 48.5962 124.685 49.2662 124.922 49.8486C125.163 50.4262 125.518 50.8808 125.987 51.2122C126.46 51.5389 127.048 51.7023 127.748 51.7023ZM137.265 38.833V53.3784H135.589V38.833H137.265ZM144.909 53.6057C143.858 53.6057 142.951 53.3737 142.189 52.9097C141.431 52.4409 140.847 51.7875 140.435 50.9494C140.028 50.1066 139.824 49.1265 139.824 48.0091C139.824 46.8917 140.028 45.9068 140.435 45.0546C140.847 44.1975 141.42 43.5299 142.154 43.0517C142.892 42.5688 143.754 42.3273 144.739 42.3273C145.307 42.3273 145.868 42.422 146.422 42.6114C146.976 42.8008 147.48 43.1085 147.935 43.5347C148.389 43.9561 148.752 44.5148 149.021 45.2108C149.291 45.9068 149.426 46.7638 149.426 47.7818V48.4921H141.017V47.0432H147.722C147.722 46.4277 147.599 45.8784 147.352 45.3955C147.111 44.9125 146.765 44.5314 146.315 44.252C145.87 43.9726 145.345 43.833 144.739 43.833C144.071 43.833 143.494 43.9987 143.006 44.3301C142.523 44.6568 142.151 45.083 141.891 45.6085C141.63 46.1341 141.5 46.6975 141.5 47.2989V48.2648C141.5 49.0886 141.642 49.787 141.926 50.36C142.215 50.9281 142.615 51.3614 143.127 51.6597C143.638 51.9532 144.232 52.1 144.909 52.1C145.35 52.1 145.747 52.0385 146.102 51.9153C146.462 51.7875 146.772 51.5981 147.033 51.3472C147.293 51.0915 147.494 50.7743 147.636 50.3955L149.256 50.85C149.085 51.3993 148.799 51.8822 148.396 52.2989C147.994 52.7108 147.497 53.0328 146.905 53.2648C146.313 53.4921 145.648 53.6057 144.909 53.6057ZM157.828 53.3784V38.833H162.743C163.884 38.833 164.817 39.0389 165.541 39.4509C166.27 39.8581 166.81 40.4097 167.161 41.1057C167.511 41.8017 167.686 42.5782 167.686 43.4352C167.686 44.2922 167.511 45.0711 167.161 45.7719C166.815 46.4726 166.28 47.0314 165.556 47.448C164.831 47.86 163.903 48.0659 162.771 48.0659H159.249V46.5034H162.715C163.496 46.5034 164.123 46.3685 164.597 46.0986C165.07 45.8287 165.413 45.4641 165.627 45.0048C165.844 44.5408 165.953 44.0176 165.953 43.4352C165.953 42.8528 165.844 42.332 165.627 41.8727C165.413 41.4135 165.068 41.0536 164.59 40.7932C164.111 40.528 163.477 40.3955 162.686 40.3955H159.59V53.3784H157.828ZM171.972 38.833V53.3784H170.296V38.833H171.972ZM178.253 53.6341C177.561 53.6341 176.934 53.5039 176.371 53.2435C175.807 52.9783 175.36 52.5972 175.028 52.1C174.697 51.5981 174.531 50.9921 174.531 50.2818C174.531 49.6568 174.654 49.1502 174.9 48.7619C175.147 48.3689 175.476 48.0612 175.888 47.8386C176.299 47.6161 176.754 47.4504 177.251 47.3415C177.753 47.2278 178.257 47.1379 178.764 47.0716C179.427 46.9864 179.964 46.9225 180.376 46.8798C180.793 46.8325 181.096 46.7544 181.285 46.6455C181.479 46.5366 181.576 46.3472 181.576 46.0773V46.0205C181.576 45.3197 181.385 44.7752 181.001 44.3869C180.622 43.9987 180.047 43.8046 179.275 43.8046C178.475 43.8046 177.848 43.9797 177.393 44.3301C176.939 44.6805 176.619 45.0546 176.434 45.4523L174.844 44.8841C175.128 44.2212 175.506 43.7051 175.98 43.3358C176.458 42.9618 176.979 42.7013 177.542 42.5546C178.111 42.403 178.669 42.3273 179.219 42.3273C179.569 42.3273 179.971 42.3699 180.426 42.4551C180.885 42.5356 181.328 42.7037 181.754 42.9594C182.185 43.2151 182.542 43.601 182.826 44.1171C183.111 44.6332 183.253 45.3244 183.253 46.1909V53.3784H181.576V51.9011H181.491C181.378 52.1379 181.188 52.3912 180.923 52.6611C180.658 52.931 180.305 53.1606 179.865 53.35C179.424 53.5394 178.887 53.6341 178.253 53.6341ZM178.508 52.1284C179.171 52.1284 179.73 51.9982 180.184 51.7378C180.644 51.4774 180.989 51.1412 181.221 50.7293C181.458 50.3173 181.576 49.8841 181.576 49.4296V47.8955C181.505 47.9807 181.349 48.0588 181.108 48.1298C180.871 48.1961 180.596 48.2553 180.284 48.3074C179.976 48.3547 179.675 48.3974 179.382 48.4352C179.093 48.4684 178.859 48.4968 178.679 48.5205C178.243 48.5773 177.836 48.6696 177.457 48.7975C177.083 48.9206 176.78 49.1076 176.548 49.3585C176.321 49.6047 176.207 49.9409 176.207 50.3671C176.207 50.9494 176.423 51.3898 176.853 51.6881C177.289 51.9816 177.841 52.1284 178.508 52.1284ZM187.001 57.4693C186.717 57.4693 186.463 57.4457 186.241 57.3983C186.018 57.3557 185.864 57.3131 185.779 57.2705L186.205 55.7932C186.613 55.8974 186.972 55.9352 187.285 55.9068C187.597 55.8784 187.874 55.7387 188.116 55.4878C188.362 55.2416 188.587 54.8415 188.791 54.2875L189.103 53.4352L185.069 42.4693H186.887L189.899 51.1625H190.012L193.024 42.4693H194.842L190.211 54.9693C190.003 55.5328 189.745 55.9992 189.437 56.3685C189.129 56.7425 188.772 57.0195 188.364 57.1994C187.962 57.3794 187.507 57.4693 187.001 57.4693Z" fill="white"/>
</svg>
