<svg xmlns="http://www.w3.org/2000/svg" width="62" height="69" viewBox="0 0 62 69" fill="none">
<path fill-rule="evenodd" clip-rule="evenodd" d="M24.3352 13.9127C24.1541 12.8002 24.0177 11.7003 23.9296 10.6003C23.7968 8.95033 23.8789 7.28772 23.8318 5.63772C23.8113 4.93772 23.7304 3.11274 23.763 2.85024C24.0588 0.562742 25.8418 0.212699 26.3633 0.150199C26.6156 0.112699 29.2062 -0.187167 29.7651 2.78783C30.4508 6.42533 30.6706 10.0878 30.4279 13.6753C30.9941 16.7253 31.9623 19.7627 33.2407 22.5127C38.3278 33.4502 48.0215 34.5127 58.524 34.4127C60.1393 34.3877 61.4805 35.7002 61.565 37.3627C61.6495 39.0377 60.4471 40.4877 58.8392 40.6377C52.9686 41.2252 42.5529 46.1003 38.9518 51.1753C38.1986 52.2378 37.7604 54.8003 37.1809 57.3128C36.3721 60.8003 35.41 64.2503 34.332 65.7003C34.1702 65.9253 32.2037 68.2253 31.617 68.5628C30.207 69.3628 29.0783 68.9002 28.4373 68.4752C27.7962 68.0502 27.0707 67.2127 26.781 65.8252C26.478 64.3752 26.7339 61.4002 26.6868 60.7627C26.5154 58.4502 26.0688 53.9127 25.1574 50.0127C24.666 47.9127 24.1421 45.9752 23.2753 45.0127C20.0666 41.4502 14.9361 41.9753 10.6155 42.5628C10.1194 42.6253 9.62321 42.7003 9.12827 42.7628C7.36939 43.3003 5.50182 43.7002 3.52806 43.9377C0.547511 44.3002 0.0574254 41.4627 0.0308672 41.2752C-0.0246636 40.8627 -0.231115 38.7378 2.01547 37.8878C2.26053 37.8003 4.06891 37.3877 4.76546 37.2252C5.73604 37.0002 6.71747 36.8253 7.70254 36.6628C17.8779 33.3878 23.4045 24.1877 24.3352 13.9127ZM27.8276 25.2753C31.6689 33.5003 37.4984 37.4753 44.4084 39.2753H44.4072C40.0927 41.6128 36.1681 44.5378 34.0881 47.4753C33.2986 48.5878 32.5743 50.8253 31.9212 53.3378C31.5675 51.0003 31.0895 48.5127 30.4581 46.3877C29.7398 43.9627 28.7728 41.9503 27.6936 40.7503C25.61 38.4378 22.9952 37.1503 20.1837 36.5128C23.5493 33.4253 26.1013 29.5753 27.8276 25.2753Z" fill="#2454FF"/>
</svg>