<svg width="648" height="764" viewBox="0 0 648 764" fill="none" xmlns="http://www.w3.org/2000/svg">
<g filter="url(#filter0_dddd_1833_76694)">
<rect x="187" y="35" width="274" height="76" rx="36" fill="white"/>
<path d="M228.74 67.16C228.367 67.16 228.08 67.0533 227.88 66.84C227.68 66.6267 227.58 66.3333 227.58 65.96V53.94C227.58 53.5533 227.687 53.26 227.9 53.06C228.113 52.8467 228.407 52.74 228.78 52.74C229.113 52.74 229.373 52.8067 229.56 52.94C229.76 53.06 229.94 53.2733 230.1 53.58L235.04 62.72H234.4L239.34 53.58C239.5 53.2733 239.673 53.06 239.86 52.94C240.047 52.8067 240.307 52.74 240.64 52.74C241.013 52.74 241.3 52.8467 241.5 53.06C241.7 53.26 241.8 53.5533 241.8 53.94V65.96C241.8 66.3333 241.7 66.6267 241.5 66.84C241.313 67.0533 241.027 67.16 240.64 67.16C240.267 67.16 239.98 67.0533 239.78 66.84C239.58 66.6267 239.48 66.3333 239.48 65.96V56.7H239.92L235.72 64.36C235.587 64.5867 235.447 64.7533 235.3 64.86C235.153 64.9667 234.953 65.02 234.7 65.02C234.447 65.02 234.24 64.9667 234.08 64.86C233.92 64.74 233.78 64.5733 233.66 64.36L229.42 56.68H229.9V65.96C229.9 66.3333 229.8 66.6267 229.6 66.84C229.413 67.0533 229.127 67.16 228.74 67.16ZM247.143 70.76C246.85 70.76 246.61 70.68 246.423 70.52C246.237 70.3733 246.123 70.1733 246.083 69.92C246.057 69.6667 246.103 69.4 246.223 69.12L247.583 66.1V67.14L243.943 58.72C243.823 58.4267 243.783 58.1533 243.823 57.9C243.863 57.6467 243.983 57.4467 244.183 57.3C244.397 57.14 244.683 57.06 245.043 57.06C245.35 57.06 245.597 57.1333 245.783 57.28C245.97 57.4133 246.137 57.6733 246.283 58.06L248.983 64.8H248.383L251.143 58.04C251.29 57.6667 251.463 57.4133 251.663 57.28C251.863 57.1333 252.13 57.06 252.463 57.06C252.757 57.06 252.99 57.14 253.163 57.3C253.337 57.4467 253.443 57.6467 253.483 57.9C253.523 58.14 253.477 58.4067 253.343 58.7L248.483 69.8C248.31 70.1733 248.123 70.4267 247.923 70.56C247.723 70.6933 247.463 70.76 247.143 70.76ZM265.44 67.2C264.334 67.2 263.38 66.9933 262.58 66.58C261.78 66.1667 261.16 65.58 260.72 64.82C260.294 64.06 260.08 63.16 260.08 62.12C260.08 61.1067 260.287 60.22 260.7 59.46C261.127 58.7 261.707 58.1067 262.44 57.68C263.187 57.24 264.034 57.02 264.98 57.02C265.674 57.02 266.294 57.1333 266.84 57.36C267.4 57.5867 267.874 57.9133 268.26 58.34C268.66 58.7667 268.96 59.2867 269.16 59.9C269.374 60.5 269.48 61.18 269.48 61.94C269.48 62.18 269.394 62.3667 269.22 62.5C269.06 62.62 268.827 62.68 268.52 62.68H262.1V61.24H267.72L267.4 61.54C267.4 60.9267 267.307 60.4133 267.12 60C266.947 59.5867 266.687 59.2733 266.34 59.06C266.007 58.8333 265.587 58.72 265.08 58.72C264.52 58.72 264.04 58.8533 263.64 59.12C263.254 59.3733 262.954 59.74 262.74 60.22C262.54 60.6867 262.44 61.2467 262.44 61.9V62.04C262.44 63.1333 262.694 63.9533 263.2 64.5C263.72 65.0333 264.48 65.3 265.48 65.3C265.827 65.3 266.214 65.26 266.64 65.18C267.08 65.0867 267.494 64.9333 267.88 64.72C268.16 64.56 268.407 64.4933 268.62 64.52C268.834 64.5333 269 64.6067 269.12 64.74C269.254 64.8733 269.334 65.04 269.36 65.24C269.387 65.4267 269.347 65.62 269.24 65.82C269.147 66.02 268.98 66.1933 268.74 66.34C268.274 66.6333 267.734 66.8533 267.12 67C266.52 67.1333 265.96 67.2 265.44 67.2ZM272.082 67.1C271.788 67.1 271.542 67.02 271.342 66.86C271.155 66.6867 271.055 66.4667 271.042 66.2C271.042 65.9333 271.155 65.6533 271.382 65.36L274.622 61.36V62.54L271.582 58.8C271.342 58.5067 271.228 58.2267 271.242 57.96C271.255 57.6933 271.355 57.48 271.542 57.32C271.742 57.1467 271.988 57.06 272.282 57.06C272.588 57.06 272.842 57.1133 273.042 57.22C273.255 57.3267 273.448 57.4933 273.622 57.72L276.022 60.8H275.142L277.562 57.72C277.748 57.4933 277.942 57.3267 278.142 57.22C278.342 57.1133 278.588 57.06 278.882 57.06C279.188 57.06 279.435 57.1467 279.622 57.32C279.808 57.4933 279.902 57.7133 279.902 57.98C279.915 58.2467 279.802 58.5267 279.562 58.82L276.542 62.52V61.4L279.782 65.36C280.022 65.64 280.135 65.9133 280.122 66.18C280.108 66.4467 280.002 66.6667 279.802 66.84C279.615 67.0133 279.368 67.1 279.062 67.1C278.768 67.1 278.522 67.0467 278.322 66.94C278.122 66.8333 277.928 66.6667 277.742 66.44L275.142 63.16H275.982L273.402 66.44C273.228 66.6533 273.042 66.82 272.842 66.94C272.642 67.0467 272.388 67.1 272.082 67.1ZM283.56 70.76C283.16 70.76 282.853 70.6533 282.64 70.44C282.426 70.2267 282.32 69.9133 282.32 69.5V58.32C282.32 57.9067 282.426 57.5933 282.64 57.38C282.853 57.1667 283.153 57.06 283.54 57.06C283.94 57.06 284.246 57.1667 284.46 57.38C284.673 57.5933 284.78 57.9067 284.78 58.32V59.88L284.56 59.28C284.76 58.6 285.166 58.0533 285.78 57.64C286.406 57.2267 287.133 57.02 287.96 57.02C288.813 57.02 289.56 57.2267 290.2 57.64C290.853 58.0533 291.36 58.64 291.72 59.4C292.08 60.1467 292.26 61.0467 292.26 62.1C292.26 63.14 292.08 64.0467 291.72 64.82C291.36 65.58 290.86 66.1667 290.22 66.58C289.58 66.9933 288.826 67.2 287.96 67.2C287.146 67.2 286.433 67 285.82 66.6C285.206 66.1867 284.793 65.6533 284.58 65H284.82V69.5C284.82 69.9133 284.706 70.2267 284.48 70.44C284.266 70.6533 283.96 70.76 283.56 70.76ZM287.26 65.3C287.753 65.3 288.186 65.18 288.56 64.94C288.933 64.7 289.22 64.3467 289.42 63.88C289.633 63.4 289.74 62.8067 289.74 62.1C289.74 61.0333 289.513 60.24 289.06 59.72C288.606 59.1867 288.006 58.92 287.26 58.92C286.766 58.92 286.333 59.04 285.96 59.28C285.586 59.5067 285.293 59.86 285.08 60.34C284.88 60.8067 284.78 61.3933 284.78 62.1C284.78 63.1533 285.006 63.9533 285.46 64.5C285.913 65.0333 286.513 65.3 287.26 65.3ZM299.132 67.2C298.025 67.2 297.072 66.9933 296.272 66.58C295.472 66.1667 294.852 65.58 294.412 64.82C293.985 64.06 293.772 63.16 293.772 62.12C293.772 61.1067 293.978 60.22 294.392 59.46C294.818 58.7 295.398 58.1067 296.132 57.68C296.878 57.24 297.725 57.02 298.672 57.02C299.365 57.02 299.985 57.1333 300.532 57.36C301.092 57.5867 301.565 57.9133 301.952 58.34C302.352 58.7667 302.652 59.2867 302.852 59.9C303.065 60.5 303.172 61.18 303.172 61.94C303.172 62.18 303.085 62.3667 302.912 62.5C302.752 62.62 302.518 62.68 302.212 62.68H295.792V61.24H301.412L301.092 61.54C301.092 60.9267 300.998 60.4133 300.812 60C300.638 59.5867 300.378 59.2733 300.032 59.06C299.698 58.8333 299.278 58.72 298.772 58.72C298.212 58.72 297.732 58.8533 297.332 59.12C296.945 59.3733 296.645 59.74 296.432 60.22C296.232 60.6867 296.132 61.2467 296.132 61.9V62.04C296.132 63.1333 296.385 63.9533 296.892 64.5C297.412 65.0333 298.172 65.3 299.172 65.3C299.518 65.3 299.905 65.26 300.332 65.18C300.772 65.0867 301.185 64.9333 301.572 64.72C301.852 64.56 302.098 64.4933 302.312 64.52C302.525 64.5333 302.692 64.6067 302.812 64.74C302.945 64.8733 303.025 65.04 303.052 65.24C303.078 65.4267 303.038 65.62 302.932 65.82C302.838 66.02 302.672 66.1933 302.432 66.34C301.965 66.6333 301.425 66.8533 300.812 67C300.212 67.1333 299.652 67.2 299.132 67.2ZM306.432 67.16C306.018 67.16 305.698 67.0533 305.472 66.84C305.258 66.6133 305.152 66.2933 305.152 65.88V58.32C305.152 57.9067 305.258 57.5933 305.472 57.38C305.685 57.1667 305.985 57.06 306.372 57.06C306.758 57.06 307.058 57.1667 307.272 57.38C307.485 57.5933 307.592 57.9067 307.592 58.32V59.58H307.392C307.578 58.78 307.945 58.1733 308.492 57.76C309.038 57.3467 309.765 57.1 310.672 57.02C310.952 56.9933 311.172 57.0667 311.332 57.24C311.505 57.4 311.605 57.6533 311.632 58C311.658 58.3333 311.578 58.6067 311.392 58.82C311.218 59.02 310.952 59.14 310.592 59.18L310.152 59.22C309.338 59.3 308.725 59.5533 308.312 59.98C307.898 60.3933 307.692 60.98 307.692 61.74V65.88C307.692 66.2933 307.585 66.6133 307.372 66.84C307.158 67.0533 306.845 67.16 306.432 67.16ZM314.224 67.14C313.824 67.14 313.517 67.02 313.304 66.78C313.09 66.54 312.984 66.2067 312.984 65.78V58.44C312.984 58 313.09 57.6667 313.304 57.44C313.517 57.2 313.824 57.08 314.224 57.08C314.624 57.08 314.93 57.2 315.144 57.44C315.37 57.6667 315.484 58 315.484 58.44V65.78C315.484 66.2067 315.377 66.54 315.164 66.78C314.95 67.02 314.637 67.14 314.224 67.14ZM314.224 55.22C313.757 55.22 313.39 55.1067 313.124 54.88C312.87 54.64 312.744 54.3133 312.744 53.9C312.744 53.4733 312.87 53.1467 313.124 52.92C313.39 52.6933 313.757 52.58 314.224 52.58C314.704 52.58 315.07 52.6933 315.324 52.92C315.577 53.1467 315.704 53.4733 315.704 53.9C315.704 54.3133 315.577 54.64 315.324 54.88C315.07 55.1067 314.704 55.22 314.224 55.22ZM322.901 67.2C321.795 67.2 320.841 66.9933 320.041 66.58C319.241 66.1667 318.621 65.58 318.181 64.82C317.755 64.06 317.541 63.16 317.541 62.12C317.541 61.1067 317.748 60.22 318.161 59.46C318.588 58.7 319.168 58.1067 319.901 57.68C320.648 57.24 321.495 57.02 322.441 57.02C323.135 57.02 323.755 57.1333 324.301 57.36C324.861 57.5867 325.335 57.9133 325.721 58.34C326.121 58.7667 326.421 59.2867 326.621 59.9C326.835 60.5 326.941 61.18 326.941 61.94C326.941 62.18 326.855 62.3667 326.681 62.5C326.521 62.62 326.288 62.68 325.981 62.68H319.561V61.24H325.181L324.861 61.54C324.861 60.9267 324.768 60.4133 324.581 60C324.408 59.5867 324.148 59.2733 323.801 59.06C323.468 58.8333 323.048 58.72 322.541 58.72C321.981 58.72 321.501 58.8533 321.101 59.12C320.715 59.3733 320.415 59.74 320.201 60.22C320.001 60.6867 319.901 61.2467 319.901 61.9V62.04C319.901 63.1333 320.155 63.9533 320.661 64.5C321.181 65.0333 321.941 65.3 322.941 65.3C323.288 65.3 323.675 65.26 324.101 65.18C324.541 65.0867 324.955 64.9333 325.341 64.72C325.621 64.56 325.868 64.4933 326.081 64.52C326.295 64.5333 326.461 64.6067 326.581 64.74C326.715 64.8733 326.795 65.04 326.821 65.24C326.848 65.4267 326.808 65.62 326.701 65.82C326.608 66.02 326.441 66.1933 326.201 66.34C325.735 66.6333 325.195 66.8533 324.581 67C323.981 67.1333 323.421 67.2 322.901 67.2ZM330.161 67.16C329.761 67.16 329.454 67.0533 329.241 66.84C329.028 66.6133 328.921 66.2933 328.921 65.88V58.32C328.921 57.9067 329.028 57.5933 329.241 57.38C329.454 57.1667 329.754 57.06 330.141 57.06C330.528 57.06 330.828 57.1667 331.041 57.38C331.254 57.5933 331.361 57.9067 331.361 58.32V59.68L331.141 59.18C331.434 58.4733 331.888 57.94 332.501 57.58C333.128 57.2067 333.834 57.02 334.621 57.02C335.408 57.02 336.054 57.1667 336.561 57.46C337.068 57.7533 337.448 58.2 337.701 58.8C337.954 59.3867 338.081 60.1333 338.081 61.04V65.88C338.081 66.2933 337.974 66.6133 337.761 66.84C337.548 67.0533 337.241 67.16 336.841 67.16C336.441 67.16 336.128 67.0533 335.901 66.84C335.688 66.6133 335.581 66.2933 335.581 65.88V61.16C335.581 60.4 335.434 59.8467 335.141 59.5C334.861 59.1533 334.421 58.98 333.821 58.98C333.088 58.98 332.501 59.2133 332.061 59.68C331.634 60.1333 331.421 60.74 331.421 61.5V65.88C331.421 66.7333 331.001 67.16 330.161 67.16ZM345.14 67.2C344.114 67.2 343.22 66.9933 342.46 66.58C341.7 66.1533 341.114 65.5533 340.7 64.78C340.287 64.0067 340.08 63.1 340.08 62.06C340.08 61.2733 340.194 60.5733 340.42 59.96C340.66 59.3333 341 58.8067 341.44 58.38C341.88 57.94 342.414 57.6067 343.04 57.38C343.667 57.14 344.367 57.02 345.14 57.02C345.58 57.02 346.054 57.08 346.56 57.2C347.08 57.32 347.567 57.52 348.02 57.8C348.234 57.9333 348.374 58.0933 348.44 58.28C348.507 58.4667 348.52 58.66 348.48 58.86C348.44 59.0467 348.354 59.2133 348.22 59.36C348.1 59.4933 347.947 59.58 347.76 59.62C347.574 59.6467 347.367 59.6 347.14 59.48C346.847 59.3067 346.547 59.18 346.24 59.1C345.934 59.0067 345.64 58.96 345.36 58.96C344.92 58.96 344.534 59.0333 344.2 59.18C343.867 59.3133 343.58 59.5133 343.34 59.78C343.114 60.0333 342.94 60.3533 342.82 60.74C342.7 61.1267 342.64 61.5733 342.64 62.08C342.64 63.0667 342.874 63.8467 343.34 64.42C343.82 64.98 344.494 65.26 345.36 65.26C345.64 65.26 345.927 65.22 346.22 65.14C346.527 65.06 346.834 64.9333 347.14 64.76C347.367 64.64 347.567 64.6 347.74 64.64C347.927 64.68 348.08 64.7733 348.2 64.92C348.32 65.0533 348.394 65.22 348.42 65.42C348.447 65.6067 348.42 65.7933 348.34 65.98C348.274 66.1667 348.14 66.32 347.94 66.44C347.5 66.7067 347.034 66.9 346.54 67.02C346.047 67.14 345.58 67.2 345.14 67.2ZM354.679 67.2C353.572 67.2 352.619 66.9933 351.819 66.58C351.019 66.1667 350.399 65.58 349.959 64.82C349.532 64.06 349.319 63.16 349.319 62.12C349.319 61.1067 349.525 60.22 349.939 59.46C350.365 58.7 350.945 58.1067 351.679 57.68C352.425 57.24 353.272 57.02 354.219 57.02C354.912 57.02 355.532 57.1333 356.079 57.36C356.639 57.5867 357.112 57.9133 357.499 58.34C357.899 58.7667 358.199 59.2867 358.399 59.9C358.612 60.5 358.719 61.18 358.719 61.94C358.719 62.18 358.632 62.3667 358.459 62.5C358.299 62.62 358.065 62.68 357.759 62.68H351.339V61.24H356.959L356.639 61.54C356.639 60.9267 356.545 60.4133 356.359 60C356.185 59.5867 355.925 59.2733 355.579 59.06C355.245 58.8333 354.825 58.72 354.319 58.72C353.759 58.72 353.279 58.8533 352.879 59.12C352.492 59.3733 352.192 59.74 351.979 60.22C351.779 60.6867 351.679 61.2467 351.679 61.9V62.04C351.679 63.1333 351.932 63.9533 352.439 64.5C352.959 65.0333 353.719 65.3 354.719 65.3C355.065 65.3 355.452 65.26 355.879 65.18C356.319 65.0867 356.732 64.9333 357.119 64.72C357.399 64.56 357.645 64.4933 357.859 64.52C358.072 64.5333 358.239 64.6067 358.359 64.74C358.492 64.8733 358.572 65.04 358.599 65.24C358.625 65.4267 358.585 65.62 358.479 65.82C358.385 66.02 358.219 66.1933 357.979 66.34C357.512 66.6333 356.972 66.8533 356.359 67C355.759 67.1333 355.199 67.2 354.679 67.2ZM367.368 67.14C366.968 67.14 366.661 67.02 366.448 66.78C366.235 66.54 366.128 66.2067 366.128 65.78V58.44C366.128 58 366.235 57.6667 366.448 57.44C366.661 57.2 366.968 57.08 367.368 57.08C367.768 57.08 368.075 57.2 368.288 57.44C368.515 57.6667 368.628 58 368.628 58.44V65.78C368.628 66.2067 368.521 66.54 368.308 66.78C368.095 67.02 367.781 67.14 367.368 67.14ZM367.368 55.22C366.901 55.22 366.535 55.1067 366.268 54.88C366.015 54.64 365.888 54.3133 365.888 53.9C365.888 53.4733 366.015 53.1467 366.268 52.92C366.535 52.6933 366.901 52.58 367.368 52.58C367.848 52.58 368.215 52.6933 368.468 52.92C368.721 53.1467 368.848 53.4733 368.848 53.9C368.848 54.3133 368.721 54.64 368.468 54.88C368.215 55.1067 367.848 55.22 367.368 55.22ZM372.466 67.16C372.066 67.16 371.759 67.0533 371.546 66.84C371.332 66.6133 371.226 66.2933 371.226 65.88V58.32C371.226 57.9067 371.332 57.5933 371.546 57.38C371.759 57.1667 372.059 57.06 372.446 57.06C372.832 57.06 373.132 57.1667 373.346 57.38C373.559 57.5933 373.666 57.9067 373.666 58.32V59.68L373.446 59.18C373.739 58.4733 374.192 57.94 374.806 57.58C375.432 57.2067 376.139 57.02 376.926 57.02C377.712 57.02 378.359 57.1667 378.866 57.46C379.372 57.7533 379.752 58.2 380.006 58.8C380.259 59.3867 380.386 60.1333 380.386 61.04V65.88C380.386 66.2933 380.279 66.6133 380.066 66.84C379.852 67.0533 379.546 67.16 379.146 67.16C378.746 67.16 378.432 67.0533 378.206 66.84C377.992 66.6133 377.886 66.2933 377.886 65.88V61.16C377.886 60.4 377.739 59.8467 377.446 59.5C377.166 59.1533 376.726 58.98 376.126 58.98C375.392 58.98 374.806 59.2133 374.366 59.68C373.939 60.1333 373.726 60.74 373.726 61.5V65.88C373.726 66.7333 373.306 67.16 372.466 67.16ZM389.555 67.1C389.101 67.1 388.735 66.96 388.455 66.68C388.188 66.4 388.055 66.04 388.055 65.6C388.055 65.1733 388.188 64.8267 388.455 64.56C388.735 64.28 389.101 64.14 389.555 64.14C390.021 64.14 390.381 64.28 390.635 64.56C390.901 64.8267 391.035 65.1733 391.035 65.6C391.035 66.04 390.901 66.4 390.635 66.68C390.381 66.96 390.021 67.1 389.555 67.1ZM394.756 67.16C394.369 67.16 394.069 67.0533 393.856 66.84C393.656 66.6267 393.556 66.32 393.556 65.92V54.02C393.556 53.6067 393.656 53.2933 393.856 53.08C394.069 52.8533 394.342 52.74 394.676 52.74C394.982 52.74 395.209 52.8 395.356 52.92C395.516 53.0267 395.702 53.2133 395.916 53.48L403.576 63.42H403.056V53.96C403.056 53.5733 403.156 53.2733 403.356 53.06C403.569 52.8467 403.869 52.74 404.256 52.74C404.642 52.74 404.936 52.8467 405.136 53.06C405.336 53.2733 405.436 53.5733 405.436 53.96V65.96C405.436 66.3333 405.342 66.6267 405.156 66.84C404.969 67.0533 404.716 67.16 404.396 67.16C404.089 67.16 403.842 67.1 403.656 66.98C403.482 66.86 403.289 66.6667 403.076 66.4L395.436 56.46H395.936V65.92C395.936 66.32 395.836 66.6267 395.636 66.84C395.436 67.0533 395.142 67.16 394.756 67.16ZM409.877 67C409.437 67 409.097 66.8867 408.857 66.66C408.63 66.42 408.517 66.08 408.517 65.64V54.26C408.517 53.82 408.63 53.4867 408.857 53.26C409.097 53.02 409.437 52.9 409.877 52.9H417.017C417.35 52.9 417.603 52.9867 417.777 53.16C417.963 53.3333 418.057 53.58 418.057 53.9C418.057 54.2333 417.963 54.4933 417.777 54.68C417.603 54.8533 417.35 54.94 417.017 54.94H410.977V58.82H416.577C416.923 58.82 417.183 58.9067 417.357 59.08C417.53 59.2533 417.617 59.5067 417.617 59.84C417.617 60.1733 417.53 60.4267 417.357 60.6C417.183 60.7733 416.923 60.86 416.577 60.86H410.977V64.96H417.017C417.35 64.96 417.603 65.0467 417.777 65.22C417.963 65.3933 418.057 65.6467 418.057 65.98C418.057 66.3133 417.963 66.5667 417.777 66.74C417.603 66.9133 417.35 67 417.017 67H409.877ZM425.033 67.16C424.619 67.16 424.299 67.0467 424.073 66.82C423.859 66.58 423.753 66.2533 423.753 65.84V55.04H419.853C419.506 55.04 419.233 54.9467 419.033 54.76C418.846 54.56 418.752 54.2933 418.752 53.96C418.752 53.6133 418.846 53.3533 419.033 53.18C419.233 52.9933 419.506 52.9 419.853 52.9H430.213C430.559 52.9 430.826 52.9933 431.013 53.18C431.213 53.3533 431.312 53.6133 431.312 53.96C431.312 54.2933 431.213 54.56 431.013 54.76C430.826 54.9467 430.559 55.04 430.213 55.04H426.313V65.84C426.313 66.2533 426.206 66.58 425.993 66.82C425.779 67.0467 425.459 67.16 425.033 67.16Z" fill="#4666FF"/>
<path d="M230.8 91.144C229.509 91.144 228.528 90.648 227.856 89.656C227.184 88.664 226.848 87.2293 226.848 85.352C226.848 84.0933 226.997 83.0373 227.296 82.184C227.595 81.32 228.037 80.6693 228.624 80.232C229.221 79.7947 229.947 79.576 230.8 79.576C232.101 79.576 233.083 80.0667 233.744 81.048C234.416 82.0187 234.752 83.448 234.752 85.336C234.752 86.5947 234.603 87.656 234.304 88.52C234.005 89.384 233.563 90.04 232.976 90.488C232.389 90.9253 231.664 91.144 230.8 91.144ZM230.8 90.008C231.696 90.008 232.357 89.6293 232.784 88.872C233.221 88.104 233.44 86.9253 233.44 85.336C233.44 83.736 233.221 82.568 232.784 81.832C232.357 81.0853 231.696 80.712 230.8 80.712C229.915 80.712 229.253 81.0853 228.816 81.832C228.379 82.5787 228.16 83.7467 228.16 85.336C228.16 86.9253 228.379 88.104 228.816 88.872C229.253 89.6293 229.915 90.008 230.8 90.008ZM244.231 91.144C243.452 91.144 242.78 90.9733 242.215 90.632C241.649 90.2907 241.212 89.816 240.903 89.208C240.604 88.5893 240.455 87.8747 240.455 87.064C240.455 86.4453 240.54 85.8907 240.711 85.4C240.881 84.9093 241.132 84.4933 241.463 84.152C241.793 83.8 242.188 83.5333 242.647 83.352C243.116 83.1707 243.644 83.08 244.231 83.08C244.615 83.08 245.015 83.1387 245.431 83.256C245.847 83.3733 246.225 83.576 246.567 83.864C246.673 83.9387 246.743 84.0293 246.775 84.136C246.807 84.2427 246.807 84.3493 246.775 84.456C246.743 84.552 246.689 84.6373 246.615 84.712C246.54 84.776 246.444 84.8133 246.327 84.824C246.22 84.8347 246.108 84.7973 245.991 84.712C245.713 84.4987 245.431 84.3493 245.143 84.264C244.855 84.1787 244.577 84.136 244.311 84.136C243.895 84.136 243.532 84.2053 243.223 84.344C242.913 84.472 242.652 84.6587 242.439 84.904C242.225 85.1493 242.06 85.4533 241.943 85.816C241.836 86.1787 241.783 86.6 241.783 87.08C241.783 88.008 242.001 88.744 242.439 89.288C242.876 89.8213 243.5 90.088 244.311 90.088C244.577 90.088 244.849 90.0453 245.127 89.96C245.415 89.8747 245.703 89.7253 245.991 89.512C246.108 89.4267 246.22 89.3893 246.327 89.4C246.433 89.4107 246.524 89.4533 246.599 89.528C246.673 89.592 246.721 89.6773 246.743 89.784C246.775 89.8907 246.775 89.9973 246.743 90.104C246.711 90.2 246.641 90.2853 246.535 90.36C246.193 90.6373 245.82 90.84 245.415 90.968C245.009 91.0853 244.615 91.144 244.231 91.144ZM251.417 91.144C250.659 91.144 250.003 90.9787 249.449 90.648C248.894 90.3173 248.462 89.8533 248.153 89.256C247.854 88.648 247.705 87.9333 247.705 87.112C247.705 86.4933 247.79 85.9387 247.961 85.448C248.131 84.9467 248.382 84.52 248.713 84.168C249.043 83.816 249.433 83.5493 249.881 83.368C250.339 83.176 250.851 83.08 251.417 83.08C252.174 83.08 252.83 83.2453 253.385 83.576C253.939 83.9067 254.366 84.376 254.665 84.984C254.974 85.5813 255.129 86.2907 255.129 87.112C255.129 87.7307 255.043 88.2853 254.873 88.776C254.702 89.2667 254.451 89.6933 254.121 90.056C253.79 90.408 253.395 90.68 252.937 90.872C252.489 91.0533 251.982 91.144 251.417 91.144ZM251.417 90.104C251.897 90.104 252.318 89.9867 252.681 89.752C253.043 89.5173 253.321 89.176 253.513 88.728C253.715 88.28 253.817 87.7413 253.817 87.112C253.817 86.1413 253.598 85.4 253.161 84.888C252.734 84.376 252.153 84.12 251.417 84.12C250.926 84.12 250.499 84.2373 250.137 84.472C249.785 84.696 249.507 85.032 249.305 85.48C249.113 85.9173 249.017 86.4613 249.017 87.112C249.017 88.072 249.235 88.8133 249.673 89.336C250.11 89.848 250.691 90.104 251.417 90.104ZM257.747 91.112C257.534 91.112 257.374 91.0533 257.267 90.936C257.161 90.8187 257.107 90.6533 257.107 90.44V83.768C257.107 83.5547 257.161 83.3947 257.267 83.288C257.374 83.1707 257.529 83.112 257.731 83.112C257.934 83.112 258.089 83.1707 258.195 83.288C258.313 83.3947 258.371 83.5547 258.371 83.768V85.176L258.195 84.952C258.398 84.3547 258.723 83.896 259.171 83.576C259.63 83.2453 260.174 83.08 260.803 83.08C261.465 83.08 261.998 83.24 262.403 83.56C262.819 83.8693 263.097 84.3547 263.235 85.016H262.995C263.187 84.4187 263.529 83.9493 264.019 83.608C264.521 83.256 265.102 83.08 265.763 83.08C266.35 83.08 266.83 83.192 267.203 83.416C267.587 83.64 267.875 83.9813 268.067 84.44C268.259 84.888 268.355 85.4587 268.355 86.152V90.44C268.355 90.6533 268.297 90.8187 268.179 90.936C268.073 91.0533 267.913 91.112 267.699 91.112C267.497 91.112 267.337 91.0533 267.219 90.936C267.113 90.8187 267.059 90.6533 267.059 90.44V86.216C267.059 85.5013 266.937 84.9787 266.691 84.648C266.446 84.3067 266.03 84.136 265.443 84.136C264.803 84.136 264.297 84.36 263.923 84.808C263.561 85.2453 263.379 85.8427 263.379 86.6V90.44C263.379 90.6533 263.321 90.8187 263.203 90.936C263.097 91.0533 262.937 91.112 262.723 91.112C262.521 91.112 262.361 91.0533 262.243 90.936C262.137 90.8187 262.083 90.6533 262.083 90.44V86.216C262.083 85.5013 261.955 84.9787 261.699 84.648C261.454 84.3067 261.043 84.136 260.467 84.136C259.827 84.136 259.321 84.36 258.947 84.808C258.585 85.2453 258.403 85.8427 258.403 86.6V90.44C258.403 90.888 258.185 91.112 257.747 91.112ZM271.451 91.112C271.237 91.112 271.077 91.0533 270.971 90.936C270.864 90.8187 270.811 90.6533 270.811 90.44V83.768C270.811 83.5547 270.864 83.3947 270.971 83.288C271.077 83.1707 271.232 83.112 271.435 83.112C271.637 83.112 271.792 83.1707 271.899 83.288C272.016 83.3947 272.075 83.5547 272.075 83.768V85.176L271.899 84.952C272.101 84.3547 272.427 83.896 272.875 83.576C273.333 83.2453 273.877 83.08 274.507 83.08C275.168 83.08 275.701 83.24 276.107 83.56C276.523 83.8693 276.8 84.3547 276.939 85.016H276.699C276.891 84.4187 277.232 83.9493 277.723 83.608C278.224 83.256 278.805 83.08 279.467 83.08C280.053 83.08 280.533 83.192 280.907 83.416C281.291 83.64 281.579 83.9813 281.771 84.44C281.963 84.888 282.059 85.4587 282.059 86.152V90.44C282.059 90.6533 282 90.8187 281.883 90.936C281.776 91.0533 281.616 91.112 281.403 91.112C281.2 91.112 281.04 91.0533 280.923 90.936C280.816 90.8187 280.763 90.6533 280.763 90.44V86.216C280.763 85.5013 280.64 84.9787 280.395 84.648C280.149 84.3067 279.733 84.136 279.147 84.136C278.507 84.136 278 84.36 277.627 84.808C277.264 85.2453 277.083 85.8427 277.083 86.6V90.44C277.083 90.6533 277.024 90.8187 276.907 90.936C276.8 91.0533 276.64 91.112 276.427 91.112C276.224 91.112 276.064 91.0533 275.947 90.936C275.84 90.8187 275.787 90.6533 275.787 90.44V86.216C275.787 85.5013 275.659 84.9787 275.403 84.648C275.157 84.3067 274.747 84.136 274.171 84.136C273.531 84.136 273.024 84.36 272.651 84.808C272.288 85.2453 272.107 85.8427 272.107 86.6V90.44C272.107 90.888 271.888 91.112 271.451 91.112ZM287.986 91.144C287.164 91.144 286.455 90.984 285.858 90.664C285.271 90.3333 284.812 89.8693 284.482 89.272C284.162 88.6747 284.002 87.96 284.002 87.128C284.002 86.3173 284.162 85.6133 284.482 85.016C284.802 84.408 285.239 83.9333 285.794 83.592C286.359 83.2507 287.01 83.08 287.746 83.08C288.268 83.08 288.738 83.1707 289.154 83.352C289.57 83.5227 289.922 83.7733 290.21 84.104C290.508 84.4347 290.732 84.8347 290.882 85.304C291.042 85.7733 291.122 86.3013 291.122 86.888C291.122 87.0587 291.074 87.1867 290.978 87.272C290.882 87.3467 290.743 87.384 290.562 87.384H284.994V86.536H290.258L290.002 86.744C290.002 86.168 289.916 85.6827 289.746 85.288C289.575 84.8827 289.324 84.5733 288.994 84.36C288.674 84.1467 288.268 84.04 287.778 84.04C287.234 84.04 286.77 84.168 286.386 84.424C286.012 84.6693 285.73 85.016 285.538 85.464C285.346 85.9013 285.25 86.4133 285.25 87V87.096C285.25 88.0773 285.484 88.824 285.954 89.336C286.434 89.848 287.111 90.104 287.986 90.104C288.348 90.104 288.706 90.056 289.058 89.96C289.42 89.864 289.772 89.704 290.114 89.48C290.263 89.384 290.396 89.3413 290.514 89.352C290.642 89.352 290.743 89.3893 290.818 89.464C290.892 89.528 290.94 89.6133 290.962 89.72C290.994 89.816 290.983 89.9227 290.93 90.04C290.887 90.1573 290.796 90.2587 290.658 90.344C290.306 90.6 289.89 90.7973 289.41 90.936C288.93 91.0747 288.455 91.144 287.986 91.144ZM293.637 91.112C293.424 91.112 293.264 91.0533 293.157 90.936C293.051 90.8187 292.997 90.6533 292.997 90.44V83.768C292.997 83.5547 293.051 83.3947 293.157 83.288C293.264 83.1707 293.419 83.112 293.621 83.112C293.824 83.112 293.979 83.1707 294.085 83.288C294.203 83.3947 294.261 83.5547 294.261 83.768V85.144L294.085 84.952C294.309 84.3333 294.672 83.8693 295.173 83.56C295.685 83.24 296.272 83.08 296.933 83.08C297.552 83.08 298.064 83.192 298.469 83.416C298.885 83.64 299.195 83.9813 299.397 84.44C299.6 84.888 299.701 85.4587 299.701 86.152V90.44C299.701 90.6533 299.643 90.8187 299.525 90.936C299.419 91.0533 299.264 91.112 299.061 91.112C298.848 91.112 298.683 91.0533 298.565 90.936C298.459 90.8187 298.405 90.6533 298.405 90.44V86.232C298.405 85.5067 298.261 84.9787 297.973 84.648C297.696 84.3067 297.248 84.136 296.629 84.136C295.915 84.136 295.344 84.36 294.917 84.808C294.501 85.2453 294.293 85.832 294.293 86.568V90.44C294.293 90.888 294.075 91.112 293.637 91.112ZM305.211 91.144C304.603 91.144 304.091 91.0373 303.675 90.824C303.27 90.6 302.966 90.28 302.763 89.864C302.56 89.4373 302.459 88.92 302.459 88.312V84.232H301.387C301.206 84.232 301.067 84.1893 300.971 84.104C300.875 84.008 300.827 83.88 300.827 83.72C300.827 83.56 300.875 83.4373 300.971 83.352C301.067 83.2667 301.206 83.224 301.387 83.224H302.459V81.384C302.459 81.1707 302.518 81.0107 302.635 80.904C302.752 80.7867 302.912 80.728 303.115 80.728C303.318 80.728 303.472 80.7867 303.579 80.904C303.696 81.0107 303.755 81.1707 303.755 81.384V83.224H305.771C305.952 83.224 306.091 83.2667 306.187 83.352C306.283 83.4373 306.331 83.56 306.331 83.72C306.331 83.88 306.283 84.008 306.187 84.104C306.091 84.1893 305.952 84.232 305.771 84.232H303.755V88.184C303.755 88.792 303.883 89.256 304.139 89.576C304.395 89.8853 304.811 90.04 305.387 90.04C305.59 90.04 305.76 90.0187 305.899 89.976C306.048 89.9333 306.171 89.912 306.267 89.912C306.363 89.9013 306.443 89.9333 306.507 90.008C306.571 90.0827 306.603 90.2107 306.603 90.392C306.603 90.52 306.576 90.6373 306.523 90.744C306.48 90.8507 306.4 90.9253 306.283 90.968C306.155 91.0107 305.984 91.048 305.771 91.08C305.568 91.1227 305.382 91.144 305.211 91.144ZM310.309 91.144C309.829 91.144 309.343 91.0853 308.853 90.968C308.373 90.8507 307.925 90.648 307.509 90.36C307.402 90.2853 307.327 90.2 307.285 90.104C307.242 89.9973 307.226 89.896 307.237 89.8C307.258 89.6933 307.301 89.6027 307.365 89.528C307.439 89.4533 307.525 89.4107 307.621 89.4C307.727 89.3787 307.845 89.4 307.973 89.464C308.389 89.72 308.789 89.9013 309.173 90.008C309.567 90.104 309.957 90.152 310.341 90.152C310.949 90.152 311.407 90.04 311.717 89.816C312.026 89.592 312.181 89.288 312.181 88.904C312.181 88.6053 312.079 88.3707 311.877 88.2C311.674 88.0187 311.354 87.88 310.917 87.784L309.461 87.464C308.789 87.3253 308.287 87.0853 307.957 86.744C307.637 86.4027 307.477 85.96 307.477 85.416C307.477 84.936 307.599 84.5253 307.845 84.184C308.101 83.832 308.458 83.56 308.917 83.368C309.375 83.176 309.909 83.08 310.517 83.08C310.986 83.08 311.429 83.144 311.845 83.272C312.271 83.3893 312.655 83.5813 312.997 83.848C313.103 83.9227 313.173 84.0133 313.205 84.12C313.247 84.216 313.253 84.3173 313.221 84.424C313.199 84.52 313.151 84.6053 313.077 84.68C313.002 84.744 312.911 84.7813 312.805 84.792C312.698 84.8027 312.586 84.7707 312.469 84.696C312.149 84.4827 311.823 84.328 311.493 84.232C311.162 84.1253 310.837 84.072 310.517 84.072C309.919 84.072 309.466 84.1893 309.157 84.424C308.847 84.6587 308.693 84.968 308.693 85.352C308.693 85.6507 308.789 85.896 308.981 86.088C309.173 86.28 309.471 86.4187 309.877 86.504L311.333 86.808C312.026 86.9573 312.543 87.1973 312.885 87.528C313.237 87.848 313.413 88.2853 313.413 88.84C313.413 89.544 313.13 90.104 312.565 90.52C311.999 90.936 311.247 91.144 310.309 91.144Z" fill="#9CA3AF"/>
</g>
<defs>
<filter id="filter0_dddd_1833_76694" x="0" y="0" width="648" height="764" filterUnits="userSpaceOnUse" color-interpolation-filters="sRGB">
<feFlood flood-opacity="0" result="BackgroundImageFix"/>
<feColorMatrix in="SourceAlpha" type="matrix" values="0 0 0 0 0 0 0 0 0 0 0 0 0 0 0 0 0 0 127 0" result="hardAlpha"/>
<feOffset dy="29"/>
<feGaussianBlur stdDeviation="32"/>
<feColorMatrix type="matrix" values="0 0 0 0 0 0 0 0 0 0 0 0 0 0 0 0 0 0 0.1 0"/>
<feBlend mode="normal" in2="BackgroundImageFix" result="effect1_dropShadow_1833_76694"/>
<feColorMatrix in="SourceAlpha" type="matrix" values="0 0 0 0 0 0 0 0 0 0 0 0 0 0 0 0 0 0 127 0" result="hardAlpha"/>
<feOffset dy="117"/>
<feGaussianBlur stdDeviation="58.5"/>
<feColorMatrix type="matrix" values="0 0 0 0 0 0 0 0 0 0 0 0 0 0 0 0 0 0 0.09 0"/>
<feBlend mode="normal" in2="effect1_dropShadow_1833_76694" result="effect2_dropShadow_1833_76694"/>
<feColorMatrix in="SourceAlpha" type="matrix" values="0 0 0 0 0 0 0 0 0 0 0 0 0 0 0 0 0 0 127 0" result="hardAlpha"/>
<feOffset dy="262"/>
<feGaussianBlur stdDeviation="78.5"/>
<feColorMatrix type="matrix" values="0 0 0 0 0 0 0 0 0 0 0 0 0 0 0 0 0 0 0.05 0"/>
<feBlend mode="normal" in2="effect2_dropShadow_1833_76694" result="effect3_dropShadow_1833_76694"/>
<feColorMatrix in="SourceAlpha" type="matrix" values="0 0 0 0 0 0 0 0 0 0 0 0 0 0 0 0 0 0 127 0" result="hardAlpha"/>
<feOffset dy="466"/>
<feGaussianBlur stdDeviation="93.5"/>
<feColorMatrix type="matrix" values="0 0 0 0 0 0 0 0 0 0 0 0 0 0 0 0 0 0 0.01 0"/>
<feBlend mode="normal" in2="effect3_dropShadow_1833_76694" result="effect4_dropShadow_1833_76694"/>
<feBlend mode="normal" in="SourceGraphic" in2="effect4_dropShadow_1833_76694" result="shape"/>
</filter>
</defs>
</svg>
