<svg width="71" height="120" viewBox="0 0 71 120" fill="none" xmlns="http://www.w3.org/2000/svg">
<path d="M-41.4999 29.0812C-41.2531 29.0827 -41.0085 29.0354 -40.78 28.9421C-40.5516 28.8488 -40.3438 28.7113 -40.1686 28.5375L-20.4624 8.83124C-20.2875 8.65642 -20.1489 8.44888 -20.0543 8.22046C-19.9596 7.99204 -19.9109 7.74723 -19.9109 7.49999C-19.9109 7.25276 -19.9596 7.00794 -20.0543 6.77953C-20.1489 6.55111 -20.2875 6.34356 -20.4624 6.16874C-20.6372 5.99392 -20.8447 5.85524 -21.0732 5.76063C-21.3016 5.66602 -21.5464 5.61732 -21.7936 5.61732C-22.2929 5.61732 -22.7718 5.81567 -23.1249 6.16874L-42.8311 25.875C-43.0069 26.0493 -43.1464 26.2567 -43.2415 26.4852C-43.3367 26.7136 -43.3857 26.9587 -43.3857 27.2062C-43.3857 27.4538 -43.3367 27.6988 -43.2415 27.9273C-43.1464 28.1558 -43.0069 28.3632 -42.8311 28.5375C-42.6559 28.7113 -42.4481 28.8488 -42.2197 28.9421C-41.9912 29.0354 -41.7466 29.0827 -41.4999 29.0812ZM-41.4999 50.4187C-41.2531 50.4202 -41.0085 50.3729 -40.78 50.2796C-40.5516 50.1863 -40.3438 50.0488 -40.1686 49.875L0.87513 8.83124C1.04995 8.65642 1.18863 8.44888 1.28324 8.22046C1.37785 7.99204 1.42655 7.74723 1.42655 7.49999C1.42655 7.25276 1.37785 7.00794 1.28324 6.77953C1.18863 6.55111 1.04995 6.34356 0.87513 6.16874C0.70031 5.99392 0.492764 5.85524 0.264347 5.76063C0.0359306 5.66602 -0.208885 5.61732 -0.456123 5.61732C-0.703358 5.61732 -0.94817 5.66602 -1.17659 5.76063C-1.405 5.85524 -1.61255 5.99392 -1.78737 6.16874L-42.8311 47.2125C-43.0069 47.3868 -43.1464 47.5942 -43.2415 47.8227C-43.3367 48.0511 -43.3857 48.2962 -43.3857 48.5437C-43.3857 48.7913 -43.3367 49.0363 -43.2415 49.2648C-43.1464 49.4933 -43.0069 49.7007 -42.8311 49.875C-42.6559 50.0488 -42.4481 50.1863 -42.2197 50.2796C-41.9912 50.3729 -41.7466 50.4202 -41.4999 50.4187ZM-41.4999 71.7188C-41.012 71.7418 -40.5344 71.5737 -40.1686 71.25L22.2501 8.83124C22.6032 8.47817 22.8016 7.99931 22.8016 7.49999C22.8016 7.00068 22.6032 6.52181 22.2501 6.16874C21.8971 5.81567 21.4182 5.61732 20.9189 5.61732C20.4196 5.61732 19.9407 5.81567 19.5876 6.16874L-42.8311 68.5125C-43.0069 68.6868 -43.1464 68.8942 -43.2415 69.1227C-43.3367 69.3512 -43.3857 69.5962 -43.3857 69.8438C-43.3857 70.0913 -43.3367 70.3363 -43.2415 70.5648C-43.1464 70.7933 -43.0069 71.0007 -42.8311 71.175C-42.6559 71.3488 -42.4481 71.4863 -42.2197 71.5796C-41.9912 71.6729 -41.7466 71.7202 -41.4999 71.7188ZM-41.4999 93.0563C-41.2531 93.0577 -41.0085 93.0104 -40.78 92.9171C-40.5516 92.8238 -40.3438 92.6863 -40.1686 92.5125L43.5126 8.83124C43.6875 8.65642 43.8261 8.44888 43.9207 8.22046C44.0154 7.99204 44.064 7.74723 44.064 7.49999C44.064 7.25276 44.0154 7.00794 43.9207 6.77953C43.8261 6.55111 43.6875 6.34356 43.5126 6.16874C43.3378 5.99392 43.1303 5.85524 42.9018 5.76063C42.6734 5.66602 42.4286 5.61732 42.1814 5.61732C41.9341 5.61732 41.6893 5.66602 41.4609 5.76063C41.2325 5.85524 41.0249 5.99392 40.8501 6.16874L-42.8311 89.85C-43.0069 90.0243 -43.1464 90.2317 -43.2415 90.4602C-43.3367 90.6887 -43.3857 90.9337 -43.3857 91.1813C-43.3857 91.4288 -43.3367 91.6738 -43.2415 91.9023C-43.1464 92.1308 -43.0069 92.3382 -42.8311 92.5125C-42.6559 92.6863 -42.4481 92.8238 -42.2197 92.9171C-41.9912 93.0104 -41.7466 93.0577 -41.4999 93.0563ZM64.8314 6.16874C64.6571 5.993 64.4497 5.85351 64.2212 5.75832C63.9927 5.66313 63.7477 5.61412 63.5001 5.61412C63.2526 5.61412 63.0075 5.66313 62.7791 5.75832C62.5506 5.85351 62.3432 5.993 62.1689 6.16874L-42.8311 111.169C-43.0069 111.343 -43.1464 111.55 -43.2415 111.779C-43.3367 112.007 -43.3857 112.252 -43.3857 112.5C-43.3857 112.748 -43.3367 112.993 -43.2415 113.221C-43.1464 113.45 -43.0069 113.657 -42.8311 113.831C-42.6568 114.007 -42.4494 114.146 -42.221 114.242C-41.9925 114.337 -41.7474 114.386 -41.4999 114.386C-41.2523 114.386 -41.0073 114.337 -40.7788 114.242C-40.5503 114.146 -40.3429 114.007 -40.1686 113.831L64.8314 8.83124C65.0071 8.65694 65.1466 8.44956 65.2418 8.22107C65.337 7.99259 65.386 7.74751 65.386 7.49999C65.386 7.25247 65.337 7.0074 65.2418 6.77891C65.1466 6.55043 65.0071 6.34305 64.8314 6.16874ZM62.1689 27.4875L-21.5124 111.169C-21.6881 111.343 -21.8276 111.55 -21.9228 111.779C-22.018 112.007 -22.067 112.252 -22.067 112.5C-22.067 112.748 -22.018 112.993 -21.9228 113.221C-21.8276 113.45 -21.6881 113.657 -21.5124 113.831C-21.3381 114.007 -21.1307 114.146 -20.9022 114.242C-20.6737 114.337 -20.4286 114.386 -20.1811 114.386C-19.9336 114.386 -19.6885 114.337 -19.46 114.242C-19.2316 114.146 -19.0242 114.007 -18.8499 113.831L64.8314 30.15C65.1844 29.7969 65.3828 29.3181 65.3828 28.8187C65.3828 28.3194 65.1844 27.8406 64.8314 27.4875C64.4783 27.1344 63.9994 26.9361 63.5001 26.9361C63.0008 26.9361 62.5219 27.1344 62.1689 27.4875ZM62.1689 48.75L-0.24987 111.169C-0.42561 111.343 -0.565102 111.55 -0.66029 111.779C-0.755482 112.007 -0.804493 112.252 -0.804493 112.5C-0.804493 112.748 -0.755482 112.993 -0.66029 113.221C-0.565102 113.45 -0.42561 113.657 -0.24987 113.831C-0.0755653 114.007 0.131813 114.146 0.360298 114.242C0.588787 114.337 0.833855 114.386 1.08138 114.386C1.3289 114.386 1.57397 114.337 1.80246 114.242C2.03094 114.146 2.23832 114.007 2.41263 113.831L64.8314 51.4875C65.1944 51.1344 65.4023 50.6516 65.4093 50.1453C65.4164 49.6389 65.2219 49.1505 64.8689 48.7875C64.5158 48.4245 64.033 48.2166 63.5266 48.2096C63.0203 48.2025 62.5319 48.3969 62.1689 48.75ZM62.1689 70.125L21.1251 111.169C20.9494 111.343 20.8099 111.55 20.7147 111.779C20.6195 112.007 20.5705 112.252 20.5705 112.5C20.5705 112.748 20.6195 112.993 20.7147 113.221C20.8099 113.45 20.9494 113.657 21.1251 113.831C21.2994 114.007 21.5068 114.146 21.7353 114.242C21.9638 114.337 22.2089 114.386 22.4564 114.386C22.7039 114.386 22.949 114.337 23.1775 114.242C23.4059 114.146 23.6133 114.007 23.7876 113.831L64.8314 72.7875C65.1844 72.4344 65.3828 71.9556 65.3828 71.4562C65.3828 70.9569 65.1844 70.4781 64.8314 70.125C64.4783 69.7719 63.9994 69.5736 63.5001 69.5736C63.0008 69.5736 62.5219 69.7719 62.1689 70.125ZM62.1689 91.4625L42.4626 111.169C42.2869 111.343 42.1474 111.55 42.0522 111.779C41.957 112.007 41.908 112.252 41.908 112.5C41.908 112.748 41.957 112.993 42.0522 113.221C42.1474 113.45 42.2869 113.657 42.4626 113.831C42.6369 114.007 42.8443 114.146 43.0728 114.242C43.3013 114.337 43.5464 114.386 43.7939 114.386C44.0414 114.386 44.2865 114.337 44.515 114.242C44.7434 114.146 44.9508 114.007 45.1251 113.831L64.8314 94.125C65.1844 93.7719 65.3828 93.2931 65.3828 92.7938C65.3828 92.2944 65.1844 91.8156 64.8314 91.4625C64.4783 91.1094 63.9994 90.9111 63.5001 90.9111C63.0008 90.9111 62.5219 91.1094 62.1689 91.4625Z" fill="#6D8DFF"/>
</svg>
