<svg width="26" height="26" viewBox="0 0 26 26" fill="none" xmlns="http://www.w3.org/2000/svg">
<g clip-path="url(#clip0_344_15288)">
<path d="M12.5444 12.6852V12.7307H18.9692L21.9068 9.79554L25.0892 6.62035C23.9754 5.76719 22.9128 4.84918 21.9068 3.87113L21.6356 3.60353L21.404 3.37794C20.3559 2.3155 19.3767 1.18722 18.4725 -4.57764e-05L15.098 3.37074L12.5444 5.91353V12.6852Z" fill="#2454FF"/>
<path d="M12.5443 12.6852V12.7307H6.11831L3.18191 9.79554L-0.000488281 6.62035C1.11334 5.76719 2.17598 4.84918 3.18191 3.87113L3.45309 3.60353L3.68471 3.37794C4.73282 2.3155 5.71201 1.18722 6.6163 -4.57764e-05L9.99071 3.37074L12.5443 5.91353V12.6852Z" fill="#2454FF"/>
<path d="M12.5444 12.7775V12.7307H18.9692L21.9068 15.6671L25.0892 18.8423C23.9754 19.6955 22.9128 20.6135 21.9068 21.5915L21.6356 21.8591L21.404 22.0847C20.3559 23.1472 19.3767 24.2755 18.4725 25.4627L15.098 22.0919L12.5444 19.5491V12.7775Z" fill="#2454FF"/>
<path d="M12.5443 12.7775V12.7307H6.11831L3.18191 15.6671L-0.000488281 18.8423C1.11334 19.6955 2.17598 20.6135 3.18191 21.5915L3.45309 21.8591L3.68471 22.0847C4.73282 23.1472 5.71201 24.2755 6.6163 25.4627L9.99071 22.0919L12.5443 19.5491V12.7775Z" fill="#2454FF"/>
</g>
<defs>
<clipPath id="clip0_344_15288">
<rect width="25.0896" height="25.4628" fill="white"/>
</clipPath>
</defs>
</svg>
